SplineFontDB: 3.0
FontName: AnkaCoder-Norm-SkelBI
FullName: Anna Shugol/Coder Bold Italic
FamilyName: Anka/Coder
Weight: Bold
Copyright: Copyright (c) 2010, Andrey Makarov (makarov@bmstu.ru, mka-at-mailru@mail.ru),\nwith Reserved Font Name Anka/Coder Narrow.\n---------------------------------\nThe Anka/* are members of Anna Shugol name font family; March 2010
Version: 001.000
StrokeWidth: 100
ItalicAngle: -12
UnderlinePosition: -292
UnderlineWidth: 50
Ascent: 1638
Descent: 410
LayerCount: 2
Layer: 0 0 "Back"  1
Layer: 1 0 "Fore"  0
StrokedFont: 1
NeedsXUIDChange: 1
XUID: [1021 77 1780377344 9172785]
UseXUID: 1
BaseHoriz: 0
FSType: 8
OS2Version: 1
OS2_WeightWidthSlopeOnly: 0
OS2_UseTypoMetrics: 1
CreationTime: 1260467214
ModificationTime: 1267611189
PfmFamily: 49
TTFWeight: 700
TTFWidth: 4
LineGap: 0
VLineGap: 0
Panose: 2 11 8 9 2 5 2 2 2 4
OS2TypoAscent: 0
OS2TypoAOffset: 1
OS2TypoDescent: 0
OS2TypoDOffset: 1
OS2TypoLinegap: 0
OS2WinAscent: 0
OS2WinAOffset: 1
OS2WinDescent: 0
OS2WinDOffset: 1
HheadAscent: 0
HheadAOffset: 1
HheadDescent: 0
HheadDOffset: 1
OS2SubXSize: 553
OS2SubYSize: 1229
OS2SubXOff: 0
OS2SubYOff: 283
OS2SupXSize: 553
OS2SupYSize: 1229
OS2SupXOff: 0
OS2SupYOff: 977
OS2StrikeYSize: 102
OS2StrikeYPos: 530
OS2FamilyClass: 1285
OS2Vendor: 'AVM1'
OS2CodePages: 40000097.cfd60000
OS2UnicodeRanges: 800002ef.000079eb.00000000.00000000
MacStyle: 3
DEI: 91125
ShortTable: maxp 16
  0
  0
  0
  0
  0
  0
  0
  2
  1
  0
  9
  0
  256
  0
  0
  0
EndShort
TtTable: prep
PUSHW_1
 511
SCANCTRL
SVTCA[y-axis]
MPPEM
PUSHB_1
 8
LT
IF
PUSHB_2
 1
 1
INSTCTRL
EIF
PUSHB_2
 70
 6
CALL
IF
POP
PUSHB_1
 16
EIF
MPPEM
PUSHB_1
 20
GT
IF
POP
PUSHB_1
 128
EIF
SCVTCI
PUSHB_1
 6
CALL
NOT
IF
EIF
EndTTInstrs
TtTable: fpgm
PUSHB_1
 0
FDEF
PUSHB_1
 0
SZP0
MPPEM
PUSHB_1
 42
LT
IF
PUSHB_1
 74
SROUND
EIF
PUSHB_1
 0
SWAP
MIAP[rnd]
RTG
PUSHB_1
 6
CALL
IF
RTDG
EIF
MPPEM
PUSHB_1
 42
LT
IF
RDTG
EIF
DUP
MDRP[rp0,rnd,grey]
PUSHB_1
 1
SZP0
MDAP[no-rnd]
RTG
ENDF
PUSHB_1
 1
FDEF
DUP
DUP

StartChar: exclam
Encoding: 33 33 1
Width: 1229
VWidth: 1708
GlyphClass: 2
Flags: W
HStem: -68 194<432.398 596.285>
VStem: 417 195<-52.3284 110.08>
LayerCount: 2
Fore
SplineSet
644 29 m 4
 644 -40 591 -101 514 -101 c 4
 440 -101 385 -41 385 29 c 4
 385 97 436 159 514 159 c 4
 590 159 644 99 644 29 c 4
798 1429 m 0
 866 1429 912 1364 889 1255 c 1
 686 393 l 1
 497 393 l 1
 645 1256 l 1
 667 1364 735 1429 798 1429 c 0
EndSplineSet
EndChar

StartChar: quotedbl
Encoding: 34 34 2
Width: 1229
VWidth: 1708
GlyphClass: 2
Flags: W
LayerCount: 2
Fore
SplineSet
511 1072 m 2
 495 1055 478 1047 462 1047 c 3
 436 1047 416 1066 416 1095 c 3
 415 1106 418 1117 425 1130 c 2
 528 1348 l 2
 551 1409 581 1426 611 1426 c 3
 657 1426 701 1376 696 1301 c 3
 695 1281 687 1259 667 1238 c 2
 511 1072 l 2
899 1072 m 2
 884 1055 866 1047 851 1047 c 3
 825 1047 804 1066 804 1095 c 3
 804 1106 807 1117 813 1130 c 2
 916 1348 l 2
 940 1409 970 1426 999 1426 c 3
 1046 1426 1089 1376 1084 1301 c 3
 1084 1281 1076 1259 1056 1238 c 2
 899 1072 l 2
EndSplineSet
EndChar

StartChar: numbersign
Encoding: 35 35 3
Width: 1229
VWidth: 1708
GlyphClass: 2
Flags: W
LayerCount: 2
Back
SplineSet
0 0 m 1
 262 1350 l 1
 1229 1350 l 1
 967 0 l 1
 0 0 l 1
EndSplineSet
Fore
SplineSet
-61 973 m 25
 1292 973 l 25
-61 416 m 25
 1292 416 l 25
982 1425 m 25
 685 -99 l 25
540 1425 m 25
 242 -99 l 25
EndSplineSet
EndChar

StartChar: dollar
Encoding: 36 36 4
Width: 1229
VWidth: 2334
GlyphClass: 2
Flags: MW
LayerCount: 2
Back
SplineSet
186 1425 m 5
 1415 1425 l 5
 1113 -24 l 5
 -116 -24 l 5
 186 1425 l 5
EndSplineSet
Fore
SplineSet
815 1494 m 25
 485 -93 l 25
104 338 m 0
 68 165 295 80 510 80 c 10
 533 80 l 18
 742 80 969 206 999 350 c 10
 1004 378 l 18
 1030 504 967 620 812 684 c 2
 481 808 l 2
 378 847 325 927 347 1033 c 2
 354 1060 l 2
 388 1228 564 1320 775 1320 c 10
 785 1320 l 18
 964 1320 1106 1276 1131 1162 c 0
 1148 1125 1143 1087 1137 1060 c 0
EndSplineSet
EndChar

StartChar: percent
Encoding: 37 37 5
Width: 1229
VWidth: 1708
GlyphClass: 2
Flags: MW
LayerCount: 2
Fore
SplineSet
834 77 m 3
 740 77 678 160 678 255 c 0
 678 351 740 430 835 430 c 3
 932 430 1013 352 1026 255 c 3xe0
 1029 165 951 77 834 77 c 3
512 927 m 3
 418 927 363 1042 361 1134 c 0
 354 1226 423 1303 518 1303 c 3
 615 1303 675 1227 676 1134 c 3xe0
 677 1047 610 927 512 927 c 3
-18 106 m 25
 1318 1295 l 25
EndSplineSet
EndChar

StartChar: ampersand
Encoding: 38 38 6
Width: 1229
VWidth: 2334
GlyphClass: 2
Flags: MW
LayerCount: 2
Fore
SplineSet
1035 14 m 5
 582 791 l 6
 527 871 459 1036 479 1129 c 6
 483 1149 l 6
 504 1253 610 1320 767 1320 c 14
 793 1320 l 22
 956 1320 1043 1247 1021 1144 c 6
 1010 1091 l 6
 1001 1047 895 943 839 910 c 6
 367 631 l 5
 250 542 132 474 113 378 c 14
 107 350 l 22
 71 177 269 80 478 80 c 14
 502 80 l 22
 672 80 806 149 891 259 c 6
 1170 585 l 4
EndSplineSet
EndChar

StartChar: quotesingle
Encoding: 39 39 7
Width: 1229
VWidth: 1708
GlyphClass: 2
Flags: W
LayerCount: 2
Fore
SplineSet
724 1072 m 2
 708 1055 691 1047 675 1047 c 3
 649 1047 628 1066 628 1095 c 3
 628 1106 631 1117 637 1130 c 2
 741 1348 l 2
 764 1409 794 1426 824 1426 c 3
 870 1426 914 1376 908 1301 c 3
 908 1281 900 1259 880 1238 c 2
 724 1072 l 2
EndSplineSet
EndChar

StartChar: parenleft
Encoding: 40 40 8
Width: 1229
VWidth: 1708
GlyphClass: 2
Flags: MW
LayerCount: 2
Fore
SplineSet
1190 1480 m 21
 883 1322 573 1053 502 708 c 31
 434 385 630 111 866 -80 c 13
EndSplineSet
EndChar

StartChar: parenright
Encoding: 41 41 9
Width: 1229
VWidth: 1708
GlyphClass: 2
Flags: MW
LayerCount: 2
Fore
SplineSet
431 1480 m 21
 676 1322 874 1053 802 708 c 31
 734 385 424 111 107 -80 c 13
EndSplineSet
EndChar

StartChar: asterisk
Encoding: 42 42 10
Width: 1229
VWidth: 1708
GlyphClass: 2
Flags: MW
LayerCount: 2
Fore
SplineSet
372 320 m 29
 627 594 l 29
 698 935 l 29
627 594 m 29
 769 320 l 29
970 700 m 29
 627 594 l 29
 329 700 l 29
EndSplineSet
EndChar

StartChar: plus
Encoding: 43 43 11
Width: 1229
VWidth: 1708
GlyphClass: 2
Flags: MW
LayerCount: 2
Back
SplineSet
333 1005 m 5
 1092 1005 l 5
 919 178 l 5
 160 178 l 5
 333 1005 l 5
EndSplineSet
Fore
SplineSet
515 60 m 25
 738 1129 l 25
86 594 m 25
 1238 594 l 25
EndSplineSet
EndChar

StartChar: comma
Encoding: 44 44 12
Width: 1229
VWidth: 1947
GlyphClass: 2
Flags: MW
HStem: -278 57<241.796 320.313>
VStem: 363 194<-3.68353 110.805>
LayerCount: 2
Fore
SplineSet
696 14 m 17
 667 -119 632 -278 400 -278 c 9
 398 -221 l 17
 447 -210 612 -142 538 -34 c 9
 696 14 l 17
701 47 m 0
 696 -23 659 -68 605 -68 c 0
 553 -68 516 -23 521 47 c 0
 524 110 560 153 614 153 c 0
 666 153 704 111 701 47 c 0
EndSplineSet
EndChar

StartChar: hyphen
Encoding: 45 45 13
Width: 1229
VWidth: 1708
GlyphClass: 2
Flags: MW
LayerCount: 2
Back
SplineSet
333 1005 m 5
 1092 1005 l 5
 919 178 l 5
 160 178 l 5
 333 1005 l 5
EndSplineSet
Fore
SplineSet
76 594 m 25
 1178 594 l 25
EndSplineSet
EndChar

StartChar: period
Encoding: 46 46 14
Width: 1229
VWidth: 1708
GlyphClass: 2
Flags: MW
HStem: -101 260<517.547 711.7>
VStem: 485 259<-68.357 126.694>
LayerCount: 2
Fore
SplineSet
744 29 m 4
 744 -40 691 -101 614 -101 c 4
 540 -101 485 -41 485 29 c 4
 485 97 536 159 614 159 c 4
 690 159 744 99 744 29 c 4
EndSplineSet
EndChar

StartChar: slash
Encoding: 47 47 15
Width: 1229
VWidth: 1708
GlyphClass: 2
Flags: MW
LayerCount: 2
Fore
SplineSet
118 -25 m 25
 1179 1425 l 25
EndSplineSet
EndChar

StartChar: zero
Encoding: 48 48 16
Width: 1229
VWidth: 1947
GlyphClass: 2
Flags: MW
LayerCount: 2
Back
SplineSet
195 1476 m 5
 1291 1476 l 5
 1367 1199 l 5
 1107 -51 l 5
 16 -51 l 5
 -68 210 l 5
 195 1476 l 5
EndSplineSet
Fore
SplineSet
787 1320 m 2
 1103 1320 1103 1059 1039 748 c 2
 1025 684 l 2
 964 390 837 80 530 80 c 2
 505 80 l 2
 196 80 205 390 266 684 c 2
 279 746 l 2
 345 1060 448 1320 762 1320 c 2
 787 1320 l 2
-186 -72 m 25
 1497 1503 l 25
EndSplineSet
EndChar

StartChar: one
Encoding: 49 49 17
Width: 1229
VWidth: 1708
GlyphClass: 2
Flags: W
LayerCount: 2
Back
SplineSet
-100 348 m 1
 463 750 l 1
 649 1005 l 1
 579 1124 l 1
 869 1425 l 1
 1414 1425 l 1
 1112 -25 l 1
 -178 -25 l 1
 -100 348 l 1
EndSplineSet
Fore
SplineSet
598 -200 m 29
 912 1320 l 25
 253 956 l 25
EndSplineSet
EndChar

StartChar: two
Encoding: 50 50 18
Width: 1229
VWidth: 2334
GlyphClass: 2
Flags: MW
LayerCount: 2
Back
SplineSet
53 -25 m 1
 168 525 l 1
 73 544 l 1
 267 1479 l 1
 1295 1479 l 1
 982 -25 l 1
 53 -25 l 1
EndSplineSet
Fore
SplineSet
383 1166 m 1
 465 1264 558 1320 767 1320 c 10
 790 1320 l 18
 1034 1320 1137 1221 1104 1061 c 10
 1095 1024 l 18
 1087 980 1035 873 946 810 c 2
 377 415 l 2
 269 338 180 204 146 105 c 1
 1230 105 l 9
EndSplineSet
EndChar

StartChar: three
Encoding: 51 51 19
Width: 1229
VWidth: 2334
GlyphClass: 2
Flags: W
LayerCount: 2
Fore
SplineSet
394 1174 m 1
 469 1269 623 1320 767 1320 c 10
 790 1320 l 18
 987 1320 1076 1224 1047 1087 c 10
 1039 1050 l 18
 1017 944 826 789 646 789 c 2
 453 789 l 9
 680 789 l 18
 924 789 1022 670 979 461 c 10
 975 443 l 18
 926 208 777 80 533 80 c 10
 510 80 l 18
 358 80 187 141 186 280 c 0
EndSplineSet
EndChar

StartChar: four
Encoding: 52 52 20
Width: 1229
VWidth: 1708
GlyphClass: 2
Flags: MW
LayerCount: 2
Back
SplineSet
316 1425 m 5
 1345 1425 l 1
 1048 0 l 1
 19 0 l 5
 316 1425 l 5
EndSplineSet
Fore
SplineSet
742 -216 m 25
 1066 1322 l 25
 182 433 l 25
 1349 433 l 25
EndSplineSet
EndChar

StartChar: five
Encoding: 53 53 21
Width: 1229
VWidth: 2334
GlyphClass: 2
Flags: MW
LayerCount: 2
Back
SplineSet
124 1425 m 1
 1249 1425 l 5
 1183 1113 l 5
 1269 1097 l 1
 1029 -54 l 1
 -184 -54 l 1
 -137 167 l 1
 464 402 l 1
 496 553 l 1
 -1 822 l 1
 124 1425 l 1
EndSplineSet
Fore
SplineSet
1453 1295 m 1
 518 1295 l 1
 227 497 l 1
 276 730 518 854 670 854 c 10
 693 854 l 18
 937 854 1031 716 989 508 c 10
 976 452 l 18
 927 212 777 80 533 80 c 10
 441 80 l 18
 287 80 60 181 95 350 c 1
EndSplineSet
EndChar

StartChar: six
Encoding: 54 54 22
Width: 1229
VWidth: 2334
GlyphClass: 2
Flags: MW
LayerCount: 2
Fore
SplineSet
219 458 m 25
 320 944 l 18
 364 1156 523 1320 767 1320 c 10
 790 1320 l 18
 962 1320 1067 1291 1103 1212 c 1
226 489 m 10
 214 433 l 18
 164 193 305 80 510 80 c 10
 533 80 l 18
 777 80 929 223 973 433 c 10
 985 489 l 18
 1034 727 937 854 693 854 c 10
 670 854 l 18
 426 854 269 698 226 489 c 10
EndSplineSet
EndChar

StartChar: seven
Encoding: 55 55 23
Width: 1229
VWidth: 1708
GlyphClass: 2
Flags: MW
LayerCount: 2
Back
SplineSet
325 1485 m 1
 1296 1485 l 1
 987 0 l 1
 16 0 l 1
 325 1485 l 1
EndSplineSet
Fore
SplineSet
148 1295 m 25
 1207 1295 l 17
 776 837 395 347 180 -138 c 9
EndSplineSet
EndChar

StartChar: eight
Encoding: 56 56 24
Width: 1229
VWidth: 2334
GlyphClass: 2
Flags: MW
LayerCount: 2
Fore
SplineSet
790 1320 m 10
 767 1320 l 18
 584 1320 440 1212 418 1108 c 2
 408 1061 l 2
 379 919 474 789 654 789 c 10
 683 789 l 18
 863 789 1012 919 1042 1060 c 10
 1051 1107 l 18
 1073 1212 973 1320 790 1320 c 10
217 452 m 10
 208 404 l 18
 165 201 305 80 510 80 c 10
 533 80 l 18
 777 80 924 199 967 404 c 10
 976 452 l 18
 1027 690 924 789 680 789 c 10
 657 789 l 18
 413 789 261 660 217 452 c 10
EndSplineSet
EndChar

StartChar: nine
Encoding: 57 57 25
Width: 1229
VWidth: 2334
GlyphClass: 2
Flags: MW
LayerCount: 2
Fore
SplineSet
1075 927 m 25
 974 437 l 18
 927 212 777 80 533 80 c 10
 510 80 l 18
 338 80 232 110 198 192 c 1
1070 901 m 18
 1021 663 874 551 630 551 c 10
 607 551 l 18
 365 551 268 693 311 901 c 10
 330 991 l 18
 366 1167 523 1320 767 1320 c 10
 790 1320 l 18
 991 1320 1134 1211 1089 991 c 10
 1070 901 l 18
EndSplineSet
EndChar

StartChar: less
Encoding: 60 60 28
Width: 1229
VWidth: 1708
GlyphClass: 2
Flags: MW
LayerCount: 2
Back
SplineSet
439 1341 m 5
 1126 1341 l 5
 825 -110 l 5
 138 -110 l 5
 439 1341 l 5
EndSplineSet
Fore
SplineSet
1309 1176 m 25
 300 594 l 25
 1067 11 l 25
EndSplineSet
EndChar

StartChar: equal
Encoding: 61 61 29
Width: 1229
VWidth: 1708
GlyphClass: 2
Flags: MW
LayerCount: 2
Back
SplineSet
333 1005 m 5
 1092 1005 l 5
 919 178 l 5
 160 178 l 5
 333 1005 l 5
EndSplineSet
Fore
SplineSet
134 820 m 25
 1206 820 l 25
48 408 m 25
 1120 408 l 25
EndSplineSet
EndChar

StartChar: greater
Encoding: 62 62 30
Width: 1229
VWidth: 1708
GlyphClass: 2
Flags: MW
LayerCount: 2
Back
SplineSet
439 1341 m 5
 1126 1341 l 5
 825 -110 l 5
 138 -110 l 5
 439 1341 l 5
EndSplineSet
Fore
SplineSet
-53 11 m 25
 956 594 l 25
 189 1176 l 25
EndSplineSet
EndChar

StartChar: question
Encoding: 63 63 31
Width: 1229
VWidth: 1708
GlyphClass: 2
Flags: W
HStem: -68 194<424.398 588.285>
VStem: 409 195<-52.3284 110.08>
LayerCount: 2
Back
SplineSet
165 201 m 1
 924 201 l 1
 816 -318 l 1
 57 -318 l 1
 165 201 l 1
192 1464 m 1
 1422 1464 l 1
 1191 352 l 1
 -39 352 l 1
 192 1464 l 1
EndSplineSet
Fore
SplineSet
644 29 m 0
 644 -40 591 -101 514 -101 c 0
 440 -101 385 -41 385 29 c 0
 385 97 436 159 514 159 c 0
 590 159 644 99 644 29 c 0
560 276 m 25
 605 483 l 18
 619 551 669 611 739 662 c 2
 947 813 l 2
 1022 866 1075 924 1095 1024 c 10
 1109 1089 l 18
 1137 1221 1034 1320 790 1320 c 10
 767 1320 l 18
 523 1320 381 1221 350 1089 c 9
EndSplineSet
EndChar

StartChar: at
Encoding: 64 64 32
Width: 1229
VWidth: 1708
GlyphClass: 2
Flags: MW
LayerCount: 2
Back
SplineSet
192 1464 m 1
 1422 1464 l 1
 1183 325 l 1
 935 367 l 1
 853 258 l 1
 1060 -66 l 1
 -126 -66 l 1
 192 1464 l 1
EndSplineSet
Fore
SplineSet
911 983 m 2
 1174 983 l 25
 1101 631 l 2
 1082 541 936 441 799 441 c 3
 621 441 591 569 622 719 c 0
 653 869 741 983 911 983 c 2
1012 190 m 1
 856 96 641 80 522 80 c 3
 264 80 65 296 152 717 c 0
 222 1054 446 1320 779 1320 c 3
 1045 1320 1224 1221 1191 1062 c 2
 1033 301 l 17
EndSplineSet
EndChar

StartChar: B
Encoding: 66 66 33
Width: 1229
VWidth: 1947
GlyphClass: 2
Flags: MW
LayerCount: 2
Fore
SplineSet
956 350 m 10
 984 487 l 18
 1025 684 920 768 675 768 c 10
 284 768 l 25
 609 768 l 2
 859 768 986 821 1029 1025 c 2
 1042 1089 l 2
 1076 1253 975 1295 719 1295 c 2
 393 1295 l 1
 146 105 l 1
 538 105 l 2
 782 105 921 181 956 350 c 10
EndSplineSet
EndChar

StartChar: C
Encoding: 67 67 34
Width: 1229
VWidth: 1947
GlyphClass: 2
Flags: MW
LayerCount: 2
Fore
SplineSet
941 329 m 1
 858 179 736 80 557 80 c 2
 526 80 l 2
 217 80 205 390 266 684 c 2
 279 746 l 2
 345 1060 469 1320 783 1320 c 2
 814 1320 l 2
 1014 1320 1094 1223 1112 1075 c 1
EndSplineSet
EndChar

StartChar: D
Encoding: 68 68 35
Width: 1229
VWidth: 1947
GlyphClass: 2
Flags: MW
LayerCount: 2
Fore
SplineSet
759 1295 m 2
 1079 1295 1106 1077 1041 757 c 2
 1020 660 l 2
 961 373 819 105 512 105 c 2
 146 105 l 1
 393 1295 l 1
 759 1295 l 2
EndSplineSet
EndChar

StartChar: E
Encoding: 69 69 36
Width: 1229
VWidth: 1708
GlyphClass: 2
Flags: MW
LayerCount: 2
Back
SplineSet
180 1400 m 5
 1279 1400 l 5
 1196 1001 l 4
 1025 972 l 5
 913 435 l 5
 1074 413 l 4
 987 0 l 5
 -112 0 l 5
 180 1400 l 5
EndSplineSet
Fore
SplineSet
1203 768 m 25
 284 768 l 25
1447 1295 m 25
 393 1295 l 25
 146 106 l 25
 1200 106 l 25
EndSplineSet
EndChar

StartChar: F
Encoding: 70 70 37
Width: 1229
VWidth: 1708
GlyphClass: 2
Flags: MW
LayerCount: 2
Back
SplineSet
180 1400 m 5
 1279 1400 l 5
 1196 1001 l 4
 1025 972 l 5
 913 435 l 5
 1074 413 l 4
 987 0 l 5
 -112 0 l 5
 180 1400 l 5
EndSplineSet
Fore
SplineSet
1163 768 m 25
 284 768 l 25
1407 1295 m 25
 393 1295 l 25
 118 -25 l 25
EndSplineSet
EndChar

StartChar: G
Encoding: 71 71 38
Width: 1229
VWidth: 1947
GlyphClass: 2
Flags: MW
LayerCount: 2
Fore
SplineSet
1112 1075 m 1
 1094 1223 1014 1320 814 1320 c 2
 789 1320 l 2
 476 1320 345 1060 279 746 c 2
 266 684 l 2
 205 390 224 80 533 80 c 2
 557 80 l 2
 736 80 881 177 940 275 c 1
 1010 610 l 1
 690 610 l 25
EndSplineSet
EndChar

StartChar: H
Encoding: 72 72 39
Width: 1229
VWidth: 1947
GlyphClass: 2
Flags: MW
LayerCount: 2
Back
SplineSet
180 1400 m 5
 1409 1400 l 5
 1117 0 l 5
 -112 0 l 5
 180 1400 l 5
EndSplineSet
Fore
SplineSet
273 717 m 25
 1032 717 l 25
1199 1536 m 25
 854 -135 l 25
440 1536 m 25
 95 -135 l 25
EndSplineSet
EndChar

StartChar: I
Encoding: 73 73 40
Width: 1229
VWidth: 1947
GlyphClass: 2
Flags: MW
LayerCount: 2
Back
SplineSet
415 1400 m 1
 1174 1400 l 5
 882 0 l 5
 123 0 l 1
 415 1400 l 1
EndSplineSet
Fore
SplineSet
-9 105 m 25
 1060 105 l 25
238 1295 m 25
 1307 1295 l 1
774 1296 m 1
 527 105 l 9
EndSplineSet
EndChar

StartChar: J
Encoding: 74 74 41
Width: 1229
VWidth: 1947
GlyphClass: 2
Flags: MW
LayerCount: 2
Back
SplineSet
578 1400 m 1
 1309 1400 l 1
 1008 -25 l 1
 -121 -25 l 1
 62 832 l 1
 462 846 l 1
 578 1400 l 1
EndSplineSet
Fore
SplineSet
133 230 m 1
 159 122 239 80 387 80 c 10
 411 80 l 18
 594 80 722 201 757 368 c 10
 950 1295 l 25
432 1295 m 25
 1387 1295 l 25
EndSplineSet
EndChar

StartChar: K
Encoding: 75 75 42
Width: 1229
VWidth: 1947
GlyphClass: 2
Flags: MW
LayerCount: 2
Back
SplineSet
119 1400 m 5
 1472 1400 l 5
 1180 0 l 5
 -173 0 l 5
 119 1400 l 5
EndSplineSet
Fore
SplineSet
1003 -141 m 25
 547 778 l 25
1346 1524 m 25
 225 487 l 25
443 1539 m 25
 94 -141 l 25
EndSplineSet
EndChar

StartChar: L
Encoding: 76 76 43
Width: 1229
VWidth: 1947
GlyphClass: 2
Flags: MW
LayerCount: 2
Back
SplineSet
180 1400 m 1
 1279 1400 l 5
 987 0 l 5
 -112 0 l 1
 180 1400 l 1
EndSplineSet
Fore
SplineSet
446 1551 m 25
 146 106 l 25
 1150 106 l 25
EndSplineSet
EndChar

StartChar: M
Encoding: 77 77 44
Width: 1229
VWidth: 1947
GlyphClass: 2
Flags: MW
LayerCount: 2
Back
SplineSet
-111 1 m 1
 180 1401 l 1
 1409 1401 l 1
 1118 1 l 1
 708 1 l 1
 754 232 l 1
 358 232 l 1
 310 1 l 1
 -111 1 l 1
EndSplineSet
Fore
SplineSet
22 -123 m 25
 495 1402 l 25
 581 364 l 25
 1095 1402 l 25
 941 -117 l 25
EndSplineSet
EndChar

StartChar: N
Encoding: 78 78 45
Width: 1229
VWidth: 1947
GlyphClass: 2
Flags: MW
LayerCount: 2
Back
SplineSet
179 1400 m 1
 1409 1400 l 1
 1117 0 l 1
 -113 0 l 1
 179 1400 l 1
EndSplineSet
Fore
SplineSet
93 -144 m 25
 398 1320 l 25
 900 82 l 25
 1199 1530 l 25
EndSplineSet
EndChar

StartChar: O
Encoding: 79 79 46
Width: 1229
VWidth: 1947
GlyphClass: 2
Flags: MW
LayerCount: 2
Fore
SplineSet
787 1320 m 2
 1103 1320 1103 1059 1039 748 c 2
 1025 684 l 2
 964 390 837 80 530 80 c 2
 505 80 l 2
 196 80 205 390 266 684 c 2
 279 746 l 2
 345 1060 448 1320 762 1320 c 2
 787 1320 l 2
EndSplineSet
EndChar

StartChar: P
Encoding: 80 80 47
Width: 1229
VWidth: 1947
GlyphClass: 2
Flags: MW
LayerCount: 2
Back
SplineSet
180 1400 m 5
 1409 1400 l 5
 1117 0 l 5
 -112 0 l 5
 180 1400 l 5
EndSplineSet
Fore
SplineSet
267 687 m 25
 659 687 l 2
 903 687 1043 773 1088 986 c 2
 1104 1060 l 2
 1140 1236 1042 1295 785 1295 c 2
 393 1295 l 1
 92 -150 l 1
EndSplineSet
EndChar

StartChar: Q
Encoding: 81 81 48
Width: 1229
VWidth: 1947
GlyphClass: 2
Flags: MW
LayerCount: 2
Fore
SplineSet
787 1320 m 2
 1103 1320 1103 1059 1039 748 c 2
 1025 684 l 2
 964 390 837 81 530 80 c 2
 514 80 l 2
 205 80 205 390 266 684 c 2
 279 746 l 2
 345 1060 457 1320 771 1320 c 2
 787 1320 l 2
589 407 m 25
 853 -144 l 25
EndSplineSet
EndChar

StartChar: R
Encoding: 82 82 49
Width: 1229
VWidth: 1947
GlyphClass: 2
Flags: MW
LayerCount: 2
Back
SplineSet
131 1458 m 5
 1484 1458 l 5
 1180 0 l 5
 -173 0 l 5
 131 1458 l 5
EndSplineSet
Fore
SplineSet
1013 -102 m 25
 650 699 l 25
271 703 m 25
 662 703 l 2
 907 703 1043 773 1079 943 c 2
 1104 1060 l 2
 1140 1236 1042 1295 785 1295 c 2
 393 1295 l 1
 89 -162 l 1
EndSplineSet
EndChar

StartChar: S
Encoding: 83 83 50
Width: 1229
VWidth: 2334
GlyphClass: 2
Flags: W
LayerCount: 2
Fore
SplineSet
195 327 m 0
 195 199 316 80 510 80 c 10
 533 80 l 18
 742 80 930 225 960 368 c 10
 965 396 l 18
 994 533 939 620 818 665 c 2
 487 790 l 2
 424 814 380 926 403 1033 c 2
 409 1060 l 2
 431 1167 564 1320 775 1320 c 10
 785 1320 l 18
 964 1320 1075 1266 1101 1162 c 1
EndSplineSet
EndChar

StartChar: T
Encoding: 84 84 51
Width: 1229
VWidth: 1947
GlyphClass: 2
Flags: MW
LayerCount: 2
Back
SplineSet
310 1400 m 1
 1279 1400 l 5
 987 0 l 5
 18 0 l 1
 310 1400 l 1
EndSplineSet
Fore
SplineSet
454 -237 m 25
 774 1295 l 25
178 1295 m 25
 1397 1295 l 25
EndSplineSet
EndChar

StartChar: U
Encoding: 85 85 52
Width: 1229
VWidth: 1947
GlyphClass: 2
Flags: MW
LayerCount: 2
Back
SplineSet
180 1400 m 1
 1409 1400 l 1
 1109 -39 l 1
 -120 -39 l 1
 180 1400 l 1
EndSplineSet
Fore
SplineSet
434 1494 m 25
 206 396 l 18
 171 228 265 80 510 80 c 10
 533 80 l 18
 777 80 930 228 965 396 c 10
 1193 1494 l 25
EndSplineSet
EndChar

StartChar: V
Encoding: 86 86 53
Width: 1229
VWidth: 1708
GlyphClass: 2
Flags: MW
LayerCount: 2
Back
SplineSet
-118 -25 m 1
 179 1400 l 1
 1407 1400 l 1
 1110 -25 l 1
 -118 -25 l 1
EndSplineSet
Fore
SplineSet
338 1516 m 25
 506 5 l 25
 1315 1536 l 25
EndSplineSet
EndChar

StartChar: W
Encoding: 87 87 54
Width: 1229
VWidth: 1947
GlyphClass: 2
Flags: MW
LayerCount: 2
Back
SplineSet
179 1400 m 1
 601 1400 l 1
 554 1174 l 1
 951 1174 l 1
 999 1400 l 1
 1407 1400 l 1
 1115 0 l 1
 -113 0 l 1
 179 1400 l 1
EndSplineSet
Fore
SplineSet
367 1475 m 25
 208 -1 l 25
 723 1047 l 25
 799 -1 l 25
 1257 1476 l 25
EndSplineSet
EndChar

StartChar: X
Encoding: 88 88 55
Width: 1229
VWidth: 1947
GlyphClass: 2
Flags: MW
LayerCount: 2
Back
SplineSet
179 1400 m 1
 1407 1400 l 1
 1115 0 l 1
 -113 0 l 1
 179 1400 l 1
EndSplineSet
Fore
SplineSet
1278 1480 m 25
 24 -80 l 25
347 1480 m 25
 954 -80 l 25
EndSplineSet
EndChar

StartChar: Y
Encoding: 89 89 56
Width: 1229
VWidth: 1947
GlyphClass: 2
Flags: MW
LayerCount: 2
Back
SplineSet
179 1400 m 1
 1407 1400 l 1
 1110 -25 l 1
 -118 -25 l 1
 179 1400 l 1
EndSplineSet
Fore
SplineSet
1278 1480 m 17
 611 513 l 1
 474 -141 l 9
347 1480 m 25
 611 513 l 25
EndSplineSet
EndChar

StartChar: Z
Encoding: 90 90 57
Width: 1229
VWidth: 1947
GlyphClass: 2
Flags: MW
LayerCount: 2
Back
SplineSet
315 1425 m 1
 1284 1425 l 1
 982 -25 l 1
 13 -25 l 1
 315 1425 l 1
EndSplineSet
Fore
SplineSet
118 1295 m 25
 1193 1295 l 25
 108 106 l 25
 1161 106 l 25
EndSplineSet
EndChar

StartChar: bracketleft
Encoding: 91 91 58
Width: 1229
VWidth: 1947
GlyphClass: 2
Flags: MW
LayerCount: 2
Back
SplineSet
461 1638 m 5
 1119 1638 l 5
 724 -267 l 5
 67 -267 l 5
 461 1638 l 5
EndSplineSet
Fore
SplineSet
1232 1480 m 17
 662 1480 l 1
 338 -80 l 25
 908 -80 l 9
EndSplineSet
EndChar

StartChar: backslash
Encoding: 92 92 59
Width: 1229
VWidth: 1708
GlyphClass: 2
Flags: MW
LayerCount: 2
Fore
SplineSet
877 -25 m 25
 420 1425 l 25
EndSplineSet
EndChar

StartChar: bracketright
Encoding: 93 93 60
Width: 1229
VWidth: 1947
GlyphClass: 2
Flags: MW
LayerCount: 2
Back
SplineSet
536 1638 m 5
 1193 1638 l 5
 798 -267 l 5
 141 -267 l 5
 536 1638 l 5
EndSplineSet
Fore
SplineSet
360 1480 m 17
 962 1480 l 1
 638 -80 l 25
 36 -80 l 9
EndSplineSet
EndChar

StartChar: asciicircum
Encoding: 94 94 61
Width: 1229
VWidth: 1947
GlyphClass: 2
Flags: MW
LayerCount: 2
Back
SplineSet
262 1425 m 5
 1337 1425 l 5
 1040 0 l 5
 -35 0 l 5
 262 1425 l 5
EndSplineSet
Fore
SplineSet
377 965 m 25
 791 1378 l 25
 1033 965 l 25
EndSplineSet
EndChar

StartChar: underscore
Encoding: 95 95 62
Width: 1229
VWidth: 1947
GlyphClass: 2
Flags: MW
LayerCount: 2
Fore
SplineSet
141 -92 m 29
 828 -92 l 29
EndSplineSet
EndChar

StartChar: grave
Encoding: 96 96 63
Width: 1229
VWidth: 1708
GlyphClass: 2
Flags: MW
HStem: 1404 20G<507.5 534.5>
LayerCount: 2
Fore
SplineSet
904 1099 m 2
 909 1089 910 1080 910 1071 c 3
 911 1056 904 1042 890 1032 c 0
 881 1025 871 1022 860 1022 c 3
 844 1022 828 1029 816 1043 c 2
 641 1248 l 2
 628 1264 621 1283 622 1303 c 3
 624 1341 642 1394 666 1411 c 0
 678 1420 695 1425 713 1425 c 3
 744 1425 779 1409 790 1360 c 2
 904 1099 l 2
EndSplineSet
EndChar

StartChar: a
Encoding: 97 97 64
Width: 1229
VWidth: 1947
GlyphClass: 2
Flags: MW
LayerCount: 2
Back
SplineSet
106 1051 m 5
 1296 1050 l 5
 1071 -33 l 5
 -118 -33 l 5
 106 1051 l 5
EndSplineSet
Fore
SplineSet
248 592 m 10
 216 433 l 18
 175 234 301 80 510 80 c 10
 535 80 l 18
 779 80 931 223 975 433 c 10
 1007 592 l 18
 1046 781 1028 944 712 944 c 10
 688 944 l 18
 444 944 292 800 248 592 c 10
1125 1154 m 17
 957 350 l 2
 928 209 1004 72 1155 68 c 9
EndSplineSet
EndChar

StartChar: b
Encoding: 98 98 65
Width: 1229
VWidth: 2334
GlyphClass: 2
Flags: MW
LayerCount: 2
Back
SplineSet
180 1400 m 5
 1409 1400 l 5
 1113 -23 l 5
 -116 -23 l 5
 180 1400 l 5
EndSplineSet
Fore
SplineSet
444 1545 m 25
 92 -150 l 25
247 592 m 10
 217 452 l 18
 174 242 305 80 510 80 c 10
 533 80 l 18
 777 80 933 242 976 452 c 10
 1006 592 l 18
 1049 800 956 944 712 944 c 10
 689 944 l 18
 445 944 290 800 247 592 c 10
EndSplineSet
EndChar

StartChar: c
Encoding: 99 99 66
Width: 1229
VWidth: 2334
GlyphClass: 2
Flags: MW
LayerCount: 2
Fore
SplineSet
1027 790 m 1
 1004 888 900 943 712 943 c 10
 689 943 l 18
 445 943 290 800 247 592 c 10
 214 433 l 18
 170 223 305 80 510 80 c 10
 533 80 l 18
 719 80 846 144 912 239 c 1
EndSplineSet
EndChar

StartChar: d
Encoding: 100 100 67
Width: 1229
VWidth: 1947
GlyphClass: 2
Flags: MW
LayerCount: 2
Back
SplineSet
180 1400 m 1
 1409 1400 l 1
 1113 -23 l 1
 -116 -23 l 1
 180 1400 l 1
EndSplineSet
Fore
SplineSet
1206 1560 m 25
 852 -147 l 25
247 592 m 10
 214 433 l 18
 170 223 305 80 510 80 c 10
 533 80 l 18
 777 80 929 223 973 433 c 10
 1006 592 l 18
 1049 800 956 944 712 944 c 10
 689 944 l 18
 445 944 290 800 247 592 c 10
EndSplineSet
EndChar

StartChar: e
Encoding: 101 101 68
Width: 1229
VWidth: 1947
GlyphClass: 2
Flags: MW
LayerCount: 2
Fore
SplineSet
240 558 m 25
 999 558 l 25
 1018 649 l 18
 1053 816 956 944 712 944 c 10
 689 944 l 18
 445 944 294 816 259 649 c 10
 203 378 l 18
 174 239 265 80 510 80 c 10
 533 80 l 18
 726 80 858 149 919 252 c 1
EndSplineSet
EndChar

StartChar: g
Encoding: 103 103 70
Width: 1229
VWidth: 2334
GlyphClass: 2
Flags: MW
LayerCount: 2
Back
SplineSet
108 1056 m 1
 989 1056 l 1
 987 1024 l 1
 1330 1024 l 1
 1022 -441 l 1
 140 -441 l 1
 222 -48 l 1
 -120 -33 l 1
 108 1056 l 1
EndSplineSet
Fore
SplineSet
51 -294 m 25
 439 -294 l 18
 685 -294 843 -176 880 0 c 10
 1121 1136 l 25
248 592 m 10
 216 433 l 18
 175 234 301 80 510 80 c 10
 535 80 l 18
 779 80 931 223 975 433 c 10
 1007 592 l 18
 1046 781 1028 944 712 944 c 10
 688 944 l 18
 444 944 292 800 248 592 c 10
EndSplineSet
EndChar

StartChar: h
Encoding: 104 104 71
Width: 1229
VWidth: 2334
GlyphClass: 2
Flags: MW
LayerCount: 2
Back
SplineSet
180 1400 m 5
 1409 1400 l 5
 1117 0 l 5
 -112 0 l 5
 180 1400 l 5
EndSplineSet
Fore
SplineSet
854 -135 m 25
 1024 677 l 18
 1052 809 956 944 712 944 c 10
 689 944 l 18
 475 944 273 716 247 592 c 10
 95 -135 l 25
 441 1527 l 25
EndSplineSet
EndChar

StartChar: k
Encoding: 107 107 74
Width: 1229
VWidth: 1947
GlyphClass: 2
Flags: MW
LayerCount: 2
Back
SplineSet
184 1425 m 1
 1412 1425 l 1
 1115 0 l 1
 -113 0 l 1
 184 1425 l 1
EndSplineSet
Fore
SplineSet
477 1692 m 25
 88 -168 l 25
1074 -135 m 17
 764 139 l 2
 670 218 532 483 524 639 c 9
1089 986 m 17
 960 926 l 2
 853 877 762 833 682 769 c 2
 560 674 l 2
 373 528 243 307 165 185 c 9
EndSplineSet
EndChar

StartChar: l
Encoding: 108 108 75
Width: 1229
VWidth: 1947
GlyphClass: 2
Flags: MW
LayerCount: 2
Back
SplineSet
413 1400 m 1
 1169 1400 l 5
 877 0 l 5
 121 0 l 1
 413 1400 l 1
EndSplineSet
Fore
SplineSet
-34 105 m 25
 1065 105 l 25
213 1295 m 25
 774 1295 l 25
 527 105 l 25
EndSplineSet
EndChar

StartChar: m
Encoding: 109 109 76
Width: 1229
VWidth: 2334
GlyphClass: 2
Flags: MW
LayerCount: 2
Back
SplineSet
107 1048 m 5
 1336 1048 l 5
 1117 0 l 5
 -112 0 l 5
 107 1048 l 5
EndSplineSet
Fore
SplineSet
877 -138 m 25
 1066 761 l 18
 1092 883 1042 944 932 944 c 10
 918 944 l 18
 785 944 672 802 646 677 c 10
 474 -138 l 25
 663 761 l 18
 688 883 647 944 536 944 c 10
 522 944 l 18
 389 944 269 802 243 677 c 10
 70 -138 l 25
 349 1196 l 25
EndSplineSet
EndChar

StartChar: n
Encoding: 110 110 77
Width: 1229
VWidth: 2334
GlyphClass: 2
Flags: W
LayerCount: 2
Back
SplineSet
107 1048 m 5
 1336 1048 l 5
 1117 0 l 5
 -112 0 l 5
 107 1048 l 5
EndSplineSet
Fore
SplineSet
850 -156 m 25
 1022 668 l 18
 1057 834 956 944 712 944 c 10
 689 944 l 18
 475 944 269 698 243 573 c 10
 91 -156 l 25
 382 1247 l 25
EndSplineSet
EndChar

StartChar: o
Encoding: 111 111 78
Width: 1229
VWidth: 1947
GlyphClass: 2
Flags: MW
LayerCount: 2
Fore
SplineSet
724 943 m 2
 974 943 1045 780 999 559 c 2
 983 483 l 2
 936 256 798 80 541 80 c 2
 494 80 l 2
 243 80 177 259 225 484 c 2
 240 558 l 2
 285 779 424 943 672 943 c 2
 724 943 l 2
EndSplineSet
EndChar

StartChar: p
Encoding: 112 112 79
Width: 1229
VWidth: 1947
GlyphClass: 2
Flags: MW
LayerCount: 2
Back
SplineSet
107 1048 m 1
 1336 1048 l 1
 1040 -375 l 1
 -189 -375 l 1
 107 1048 l 1
EndSplineSet
Fore
SplineSet
247 592 m 10
 214 433 l 18
 170 223 305 80 510 80 c 10
 533 80 l 18
 777 80 933 242 976 452 c 10
 1006 592 l 18
 1049 800 956 944 712 944 c 10
 689 944 l 18
 445 944 290 800 247 592 c 10
376 1215 m 25
 11 -537 l 25
EndSplineSet
EndChar

StartChar: q
Encoding: 113 113 80
Width: 1229
VWidth: 1947
GlyphClass: 2
Flags: MW
LayerCount: 2
Back
SplineSet
107 1048 m 5
 1336 1048 l 5
 1040 -375 l 5
 -189 -375 l 5
 107 1048 l 5
EndSplineSet
Fore
SplineSet
1126 1172 m 25
 774 -519 l 25
247 592 m 10
 216 443 l 18
 172 232 305 80 510 80 c 10
 533 80 l 18
 777 80 933 242 976 452 c 10
 1006 592 l 18
 1049 800 956 944 712 944 c 10
 689 944 l 18
 445 944 290 800 247 592 c 10
EndSplineSet
EndChar

StartChar: r
Encoding: 114 114 81
Width: 1229
VWidth: 1947
GlyphClass: 2
Flags: MW
LayerCount: 2
Back
SplineSet
107 1048 m 5
 1336 1048 l 5
 1117 0 l 5
 -112 0 l 5
 107 1048 l 5
EndSplineSet
Fore
SplineSet
1069 840 m 1
 1031 908 954 944 807 944 c 10
 784 944 l 18
 538 944 266 683 222 473 c 10
 78 -216 l 25
 379 1229 l 25
EndSplineSet
EndChar

StartChar: s
Encoding: 115 115 82
Width: 1229
VWidth: 1947
GlyphClass: 2
Flags: MW
LayerCount: 2
Fore
SplineSet
1021 790 m 1
 982 882 855 944 712 944 c 10
 689 944 l 18
 506 944 347 879 325 770 c 2
 322 759 l 2
 311 704 334 620 425 595 c 2
 845 480 l 2
 925 458 961 378 949 316 c 2
 940 273 l 2
 913 147 716 80 533 80 c 10
 468 80 l 18
 301 80 190 185 189 297 c 0
EndSplineSet
EndChar

StartChar: t
Encoding: 116 116 83
Width: 1229
VWidth: 1947
GlyphClass: 2
Flags: MW
LayerCount: 2
Back
SplineSet
314 1425 m 5
 1084 1425 l 5
 913 603 l 5
 1238 589 l 5
 1098 -84 l 5
 -0 -84 l 5
 314 1425 l 5
EndSplineSet
Fore
SplineSet
87 904 m 25
 1111 904 l 25
893 231 m 1
 850 164 755 80 637 80 c 10
 614 80 l 18
 480 80 389 188 416 314 c 2
 419 330 l 9
 714 1506 l 9
EndSplineSet
EndChar

StartChar: u
Encoding: 117 117 84
Width: 1229
VWidth: 2334
GlyphClass: 2
Flags: MW
LayerCount: 2
Back
SplineSet
101 1023 m 5
 1330 1023 l 5
 1112 -27 l 5
 -117 -27 l 5
 101 1023 l 5
EndSplineSet
Fore
SplineSet
360 1140 m 25
 203 378 l 18
 168 211 237 80 481 80 c 10
 506 80 l 18
 720 80 957 356 983 480 c 10
 1119 1140 l 25
 842 -195 l 25
EndSplineSet
EndChar

StartChar: v
Encoding: 118 118 85
Width: 1229
VWidth: 1947
GlyphClass: 2
Flags: MW
LayerCount: 2
Back
SplineSet
100 1024 m 1
 1327 1024 l 1
 1109 -25 l 1
 -118 -25 l 1
 100 1024 l 1
EndSplineSet
Fore
SplineSet
309 1295 m 17
 292 944 l 2
 287 829 317 625 361 511 c 2
 523 80 l 1
 748 513 l 2
 821 637 916 767 985 851 c 2
 1373 1295 l 9
EndSplineSet
EndChar

StartChar: w
Encoding: 119 119 86
Width: 1229
VWidth: 1947
GlyphClass: 2
Flags: MW
LayerCount: 2
Back
SplineSet
100 1024 m 1
 522 1024 l 1
 501 919 l 1
 898 919 l 1
 920 1024 l 1
 1328 1024 l 1
 1115 0 l 1
 -113 0 l 1
 100 1024 l 1
EndSplineSet
Fore
SplineSet
298 1092 m 17
 259 906 l 2
 235 790 217 512 224 432 c 2
 240 85 l 1
 387 435 l 2
 427 530 495 643 544 694 c 2
 678 832 l 1
 685 688 l 2
 694 613 709 508 738 432 c 2
 833 85 l 1
 918 435 l 2
 959 604 1028 818 1073 909 c 2
 1179 1092 l 9
EndSplineSet
EndChar

StartChar: x
Encoding: 120 120 87
Width: 1229
VWidth: 1947
GlyphClass: 2
Flags: MW
LayerCount: 2
Back
SplineSet
100 1024 m 1
 1329 1024 l 5
 1116 0 l 5
 -113 0 l 1
 100 1024 l 1
EndSplineSet
Fore
SplineSet
1268 1221 m 17
 996 855 l 2
 842 629 562 349 293 154 c 2
 -153 -174 l 9
184 1199 m 17
 986 -120 l 9
EndSplineSet
EndChar

StartChar: y
Encoding: 121 121 88
Width: 1229
VWidth: 1947
GlyphClass: 2
Flags: MW
LayerCount: 2
Back
SplineSet
-198 -410 m 1
 100 1024 l 1
 1329 1024 l 1
 1031 -410 l 1
 -198 -410 l 1
EndSplineSet
Fore
SplineSet
669 152 m 1
 522 349 370 669 352 803 c 2
 266 1247 l 9
1298 1295 m 1
 545 -110 l 2
 488 -224 392 -294 271 -294 c 2
 244 -294 l 2
 175 -294 86 -250 47 -191 c 2
 28 -170 l 1
EndSplineSet
EndChar

StartChar: z
Encoding: 122 122 89
Width: 1229
VWidth: 1947
GlyphClass: 2
Flags: MW
LayerCount: 2
Back
SplineSet
292 1047 m 5
 1204 1047 l 1
 980 -25 l 1
 12 -25 l 1
 147 620 l 1
 205 631 l 5
 292 1047 l 5
EndSplineSet
Fore
SplineSet
105 919 m 25
 1100 919 l 25
 85 105 l 25
 1181 105 l 25
EndSplineSet
EndChar

StartChar: braceleft
Encoding: 123 123 90
Width: 1229
VWidth: 1947
GlyphClass: 2
Flags: MW
LayerCount: 2
Back
SplineSet
536 1638 m 5
 1147 1638 l 5
 752 -267 l 5
 141 -267 l 5
 536 1638 l 5
EndSplineSet
Fore
SplineSet
1262 1480 m 17
 1032 1480 l 2
 894 1480 764 1390 729 1221 c 2
 671 940 l 2
 650 838 552 717 412 717 c 2
 216 717 l 1
 412 717 l 2
 552 717 593 566 566 436 c 2
 513 183 l 2
 477 11 570 -80 708 -80 c 10
 939 -80 l 9
EndSplineSet
EndChar

StartChar: bar
Encoding: 124 124 91
Width: 1229
VWidth: 1947
GlyphClass: 2
Flags: MW
LayerCount: 2
Back
SplineSet
428 1473 m 1
 1188 1473 l 1
 867 -72 l 5
 107 -72 l 5
 428 1473 l 1
EndSplineSet
Fore
SplineSet
466 -180 m 25
 830 1572 l 25
EndSplineSet
EndChar

StartChar: braceright
Encoding: 125 125 92
Width: 1229
VWidth: 1947
GlyphClass: 2
Flags: MW
LayerCount: 2
Back
SplineSet
536 1638 m 5
 1147 1638 l 5
 752 -267 l 5
 141 -267 l 5
 536 1638 l 5
EndSplineSet
Fore
SplineSet
374 1480 m 17
 579 1480 l 2
 718 1480 811 1390 775 1221 c 2
 717 940 l 2
 696 838 743 717 884 717 c 2
 1089 717 l 1
 884 717 l 2
 743 717 639 566 612 436 c 2
 559 183 l 2
 523 11 394 -80 255 -80 c 10
 50 -80 l 9
EndSplineSet
EndChar

StartChar: asciitilde
Encoding: 126 126 93
Width: 1229
VWidth: 1947
GlyphClass: 2
Flags: MW
LayerCount: 2
Fore
SplineSet
374 810 m 17
 419 887 512 947 549 947 c 10
 563 947 l 18
 590 947 645 933 668 907 c 2
 726 848 l 2
 746 828 786 811 811 811 c 10
 824 811 l 18
 881 811 960 865 1000 947 c 9
EndSplineSet
EndChar

StartChar: cent
Encoding: 162 162 96
Width: 1229
VWidth: 2334
GlyphClass: 2
Flags: MW
LayerCount: 2
Fore
SplineSet
324 -110 m 25
 941 1167 l 25
1031 808 m 1
 1008 907 900 945 712 945 c 10
 689 945 l 18
 445 945 290 800 247 592 c 10
 214 433 l 18
 170 223 304 78 509 78 c 10
 532 78 l 18
 718 78 839 116 906 211 c 1
EndSplineSet
EndChar

StartChar: sterling
Encoding: 163 163 97
Width: 1229
VWidth: 1947
GlyphClass: 2
Flags: MW
LayerCount: 2
Back
SplineSet
-128 -75 m 1
 8 580 l 1
 141 594 l 1
 194 848 l 1
 67 862 l 1
 184 1425 l 1
 1414 1425 l 1
 1294 848 l 1
 946 832 l 1
 893 578 l 1
 1234 561 l 1
 1102 -75 l 1
 -128 -75 l 1
EndSplineSet
Fore
SplineSet
55 716 m 17
 1022 716 l 9
1075 1212 m 1
 1022 1283 912 1320 790 1320 c 10
 767 1320 l 18
 523 1320 378 1221 348 1078 c 10
 341 1043 l 18
 326 972 351 890 378 839 c 2
 458 697 l 2
 486 649 488 566 478 516 c 10
 469 473 l 18
 437 320 192 145 26 89 c 2
 -27 63 l 1
 26 89 l 2
 182 140 256 151 362 151 c 10
 401 151 l 18
 448 151 497 142 526 126 c 2
 568 101 l 2
 590 88 654 80 681 80 c 10
 728 80 l 18
 815 80 885 106 950 143 c 9
EndSplineSet
EndChar

StartChar: euro
Encoding: 8364 8364 98
Width: 1229
VWidth: 1947
GlyphClass: 2
Flags: MW
LayerCount: 2
Back
SplineSet
338 1425 m 1
 1414 1425 l 1
 1330 1023 l 1
 918 996 l 1
 852 681 l 1
 674 670 l 1
 614 382 l 1
 1194 368 l 1
 1111 -25 l 1
 -18 -25 l 1
 131 684 l 1
 185 695 l 1
 338 1425 l 1
EndSplineSet
Fore
SplineSet
924 315 m 0
 845 179 757 80 585 80 c 2
 560 80 l 2
 289 80 259 244 287 377 c 2
 429 1060 l 2
 447 1147 553 1320 817 1320 c 2
 843 1320 l 2
 1043 1320 1088 1214 1101 1070 c 0
776 534 m 25
 -40 534 l 25
1015 834 m 25
 68 834 l 25
EndSplineSet
EndChar

StartChar: yen
Encoding: 165 165 99
Width: 1229
VWidth: 1947
GlyphClass: 2
Flags: MW
LayerCount: 2
Back
SplineSet
180 1400 m 1
 1409 1400 l 1
 1236 566 l 1
 993 553 l 5
 844 -160 l 5
 88 -160 l 1
 237 555 l 1
 7 569 l 1
 180 1400 l 1
EndSplineSet
Fore
SplineSet
31 151 m 17
 1054 151 l 9
81 392 m 17
 1104 392 l 9
1278 1480 m 17
 611 513 l 1
 444 -282 l 9
347 1480 m 25
 611 513 l 25
EndSplineSet
EndChar

StartChar: section
Encoding: 167 167 101
Width: 1229
VWidth: 1947
GlyphClass: 2
Flags: MW
LayerCount: 2
Fore
SplineSet
247 111 m 1
 275 -9 384 -94 512 -94 c 10
 534 -94 l 18
 700 -94 834 35 862 175 c 10
 867 196 l 18
 890 309 763 394 597 394 c 10
 576 394 l 18
1048 1290 m 1
 1019 1406 911 1490 787 1490 c 10
 764 1490 l 18
 599 1490 470 1348 444 1225 c 10
 440 1204 l 18
 416 1091 532 977 697 977 c 10
 718 977 l 18
719 977 m 10
 696 977 l 18
 469 977 298 834 271 709 c 10
 262 666 l 18
 235 536 331 394 575 394 c 10
 598 394 l 18
 822 394 994 535 1021 666 c 10
 1030 709 l 18
 1057 834 932 977 719 977 c 10
EndSplineSet
EndChar

StartChar: copyright
Encoding: 169 169 103
Width: 1229
VWidth: 1947
GlyphClass: 2
Flags: MW
LayerCount: 2
Fore
SplineSet
622 1106 m 3
 930 1106 1092 839 1117 588 c 3
 1121 345 929 100 613 100 c 3
 309 100 123 337 110 588 c 3
 106 842 305 1106 622 1106 c 3
779 437 m 1
 743 400 692 375 623 375 c 3
 484 375 411 473 411 587 c 3
 411 703 488 799 624 799 c 3
 692 799 744 776 779 739 c 1
EndSplineSet
EndChar

StartChar: ordfeminine
Encoding: 170 170 104
Width: 1229
VWidth: 1947
GlyphClass: 2
Flags: MW
LayerCount: 2
Back
SplineSet
117 0 m 1
 433 1503 l 1
 1194 1503 l 1
 996 550 l 1
 798 550 l 1
 723 435 l 1
 970 434 l 1
 878 0 l 1
 117 0 l 1
EndSplineSet
Fore
SplineSet
14 305 m 17
 1123 305 l 9
963 1004 m 25
 697 1004 l 18
 530 1004 421 872 407 802 c 10
 400 766 l 18
 384 694 444 588 611 588 c 10
 628 588 l 18
 752 588 914 767 929 839 c 10
520 1243 m 1
 570 1313 656 1373 774 1373 c 10
 791 1373 l 18
 958 1373 1014 1249 986 1113 c 10
 866 535 l 25
EndSplineSet
EndChar

StartChar: guillemotleft
Encoding: 171 171 105
Width: 1229
VWidth: 1947
GlyphClass: 2
Flags: MW
LayerCount: 2
Fore
SplineSet
823 151 m 29
 715 432 l 29
 732 512 l 29
 957 794 l 29
434 151 m 29
 326 432 l 29
 343 512 l 29
 568 794 l 29
EndSplineSet
EndChar

StartChar: logicalnot
Encoding: 172 172 106
Width: 1229
VWidth: 1708
GlyphClass: 2
Flags: MW
LayerCount: 2
Back
SplineSet
172 234 m 5
 420 1425 l 1
 1414 1425 l 1
 1166 234 l 5
 172 234 l 5
EndSplineSet
Fore
SplineSet
56 594 m 25
 885 594 l 25
 792 142 l 25
EndSplineSet
EndChar

StartChar: softhyphen
Encoding: 173 173 107
Width: 1229
VWidth: 1947
GlyphClass: 2
Flags: MW
LayerCount: 2
Fore
SplineSet
406 594 m 25
 848 594 l 25
EndSplineSet
EndChar

StartChar: registered
Encoding: 174 174 108
Width: 1229
VWidth: 1947
GlyphClass: 2
Flags: MW
LayerCount: 2
Fore
SplineSet
784 354 m 25
 638 594 l 25
479 596 m 25
 631 596 l 2
 726 596 773 628 773 692 c 2
 773 729 l 2
 774 794 732 816 631 816 c 2
 479 816 l 1
 479 354 l 1
622 1106 m 3
 930 1106 1092 841 1117 590 c 3
 1121 347 929 100 613 100 c 3
 309 100 123 338 110 590 c 3
 106 844 305 1106 622 1106 c 3
EndSplineSet
EndChar

StartChar: degree
Encoding: 176 176 110
Width: 1229
VWidth: 1947
GlyphClass: 2
Flags: W
HStem: 865.591 444.818<617.892 871.108>
VStem: 532.911 423.179<953.365 1222.66>
LayerCount: 2
Fore
SplineSet
596.324 1247 m 0
 635.724 1289.27 690.112 1310.41 744.5 1310.41 c 3
 798.889 1310.41 853.277 1289.27 892.676 1247 c 0
 934.931 1201.66 956.09 1144.87 956.09 1088.09 c 3
 956.09 1031.24 934.973 974.391 892.676 929.005 c 0
 853.276 886.729 798.888 865.591 744.5 865.591 c 3
 690.111 865.591 635.723 886.729 596.324 929.005 c 0
 554.035 974.382 532.911 1031.22 532.911 1088.05 c 3
 532.911 1144.85 554.062 1201.65 596.324 1247 c 0
EndSplineSet
EndChar

StartChar: plusminus
Encoding: 177 177 111
Width: 1229
VWidth: 1947
GlyphClass: 2
Flags: MW
LayerCount: 2
Back
SplineSet
121 0 m 1
 187 315 l 1
 946 315 l 1
 880 0 l 1
 121 0 l 1
212 430 m 1
 382 1247 l 1
 1141 1247 l 1
 971 430 l 1
 212 430 l 1
EndSplineSet
Fore
SplineSet
21 183 m 25
 1093 183 l 25
580 371 m 25
 782 1343 l 25
157 838 m 25
 1229 838 l 25
EndSplineSet
EndChar

StartChar: twosuperior
Encoding: 178 178 112
Width: 1229
VWidth: 2334
GlyphClass: 2
Flags: MW
LayerCount: 2
Back
SplineSet
252 -25 m 1
 568 1479 l 1
 1266 1479 l 1
 1122 790 l 1
 939 776 l 1
 772 -25 l 1
 252 -25 l 1
EndSplineSet
Fore
SplineSet
609 1222 m 1
 651 1276 702 1343 802 1343 c 10
 814 1343 l 18
 930 1343 977 1286 959 1198 c 10
 954 1178 l 18
 948 1150 914 1085 868 1050 c 2
 630 834 l 2
 578 791 502 698 479 641 c 1
 1038 641 l 9
EndSplineSet
EndChar

StartChar: threesuperior
Encoding: 179 179 113
Width: 1229
VWidth: 2334
GlyphClass: 2
Flags: MW
LayerCount: 2
Back
SplineSet
-113 0 m 1
 62 840 l 1
 583 851 l 1
 650 1175 l 1
 135 1186 l 1
 202.252 1510 l 1
 1432.25 1510 l 1
 1117 0 l 1
 -113 0 l 1
EndSplineSet
Fore
SplineSet
602 1240 m 1
 637 1292 711 1334 775 1334 c 10
 787 1334 l 18
 870 1334 910 1269 894 1194 c 10
 890 1173 l 18
 879 1119 797 1022 715 1022 c 2
 508 1022 l 9
 722 1022 l 18
 818 1022 865 919 847 833 c 10
 843 813 l 18
 820 700 749 624 639 624 c 10
 628 624 l 18
 561 624 495 684 495 763 c 0
EndSplineSet
EndChar

StartChar: micro
Encoding: 181 181 115
Width: 1229
VWidth: 2334
GlyphClass: 2
Flags: MW
LayerCount: 2
Back
SplineSet
-184 -348 m 5
 103 1024 l 1
 1333 1024 l 1
 1117 0 l 1
 776 0 l 1
 691 -348 l 5
 -184 -348 l 5
EndSplineSet
Fore
SplineSet
-94 -423 m 17
 3 -336 88 -174 118 -25 c 10
 365 1161 l 25
 208 405 l 18
 174 239 265 80 510 80 c 10
 533 80 l 18
 748 80 941 281 967 405 c 10
 1124 1161 l 17
 909 128 l 2
 895 60 921 -71 964 -111 c 9
EndSplineSet
EndChar

StartChar: paragraph
Encoding: 182 182 116
Width: 1229
VWidth: 1947
GlyphClass: 2
Flags: MW
LayerCount: 2
Back
SplineSet
-113 0 m 1
 210 1552 l 5
 1440 1552 l 5
 1117 0 l 1
 -113 0 l 1
EndSplineSet
Fore
SplineSet
590 818 m 25
 689 1290 l 25
516 818 m 25
 615 1290 l 25
432 864 m 25
 509 1237 l 25
843 -188 m 25
 1174 1400 l 25
 796 1400 l 25
659 742 m 25
 562 742 l 2
 440 742 282 776 340 1055 c 2
 353 1117 l 2
 387 1284 570 1400 699 1400 c 2
 796 1400 l 1
 465 -188 l 1
EndSplineSet
EndChar

StartChar: periodcentered
Encoding: 183 183 117
Width: 1229
VWidth: 1947
GlyphClass: 2
Flags: MW
HStem: 636 222<501.767 677.466>
VStem: 479 221<658.729 835.565>
LayerCount: 2
Fore
SplineSet
765 731 m 0
 765 676 722 628 662 628 c 0
 604 628 561 675 561 731 c 0
 561 785 602 834 663 834 c 0
 723 834 765 787 765 731 c 0
EndSplineSet
EndChar

StartChar: onesuperior
Encoding: 185 185 119
Width: 1229
VWidth: 1708
GlyphClass: 2
Flags: MW
LayerCount: 2
Back
SplineSet
396 834 m 1
 632 1044 l 1
 678 1132 l 1
 619 1215 l 1
 841 1425 l 1
 1082 1425 l 1
 918 631 l 5
 355 631 l 5
 396 834 l 1
EndSplineSet
Fore
SplineSet
693 533 m 25
 863 1359 l 25
 508 1186 l 25
EndSplineSet
EndChar

StartChar: ordmasculine
Encoding: 186 186 120
Width: 1229
VWidth: 1947
GlyphClass: 2
Flags: MW
LayerCount: 2
Back
SplineSet
123 0 m 1
 219 458 l 1
 116 472 l 1
 340 1551 l 1
 1310 1551 l 1
 1084 463 l 1
 974 446 l 1
 881 0 l 1
 123 0 l 1
EndSplineSet
Fore
SplineSet
54 305 m 17
 1113 305 l 9
791 1378 m 3
 1004 1378 1041 1200 993 970 c 3
 946 746 830 593 628 593 c 3
 422 593 363 746 410 970 c 3
 457 1200 585 1378 791 1378 c 3
EndSplineSet
EndChar

StartChar: guillemotright
Encoding: 187 187 121
Width: 1229
VWidth: 1947
GlyphClass: 2
Flags: MW
LayerCount: 2
Fore
SplineSet
247 151 m 29
 473 432 l 29
 489 512 l 29
 381 794 l 29
636 151 m 29
 861 432 l 29
 878 512 l 29
 770 794 l 29
EndSplineSet
EndChar

StartChar: OE
Encoding: 338 338 122
Width: 1229
VWidth: 1947
GlyphClass: 2
Flags: MW
LayerCount: 2
Back
SplineSet
-112 0 m 1
 185 1425 l 1
 1324 1425 l 1
 1241 1026 l 1
 1146 1001 l 1
 1043 508 l 1
 1128 483 l 1
 1027 0 l 1
 -112 0 l 1
EndSplineSet
Fore
SplineSet
1230 105 m 17
 570 105 l 1
 818 1295 l 1
 1477 1295 l 1
1284 717 m 1
 697 717 l 1
294 1090 m 2
 312 1173 438 1295 580 1295 c 2
 609 1295 l 2
 734 1295 793 1177 774 1090 c 2
 611 300 l 2
 592 213 487 105 361 105 c 2
 332 105 l 2
 191 105 113 216 131 300 c 10
 294 1090 l 2
EndSplineSet
EndChar

StartChar: oe
Encoding: 339 339 123
Width: 1229
VWidth: 1947
GlyphClass: 2
Flags: MW
LayerCount: 2
Fore
SplineSet
938 268 m 3
 919 171 842 80 710 80 c 3
 585 80 542 177 560 268 c 2
 663 757 l 2
 680 845 765 944 890 944 c 3
 1023 944 1060 855 1041 757 c 10
 995 540 l 1
 617 540 l 1
282 757 m 2
 301 853 380 944 512 944 c 3
 636 944 681 848 663 757 c 2
 560 268 l 2
 542 180 457 80 333 80 c 3
 197 80 160 171 179 268 c 10
 282 757 l 2
EndSplineSet
EndChar

StartChar: AE
Encoding: 198 198 132
Width: 1229
VWidth: 1947
GlyphClass: 2
Flags: MW
LayerCount: 2
Back
SplineSet
-112 0 m 1
 185 1425 l 1
 1324 1425 l 1
 1241 1026 l 1
 1146 1001 l 1
 1043 508 l 1
 1128 483 l 1
 1027 0 l 1
 -112 0 l 1
EndSplineSet
Fore
SplineSet
4 -90 m 17
 551 1154 l 2
 588 1239 646 1295 794 1295 c 10
 873 1295 l 25
1160 105 m 17
 626 105 l 1
 873 1295 l 1
 1407 1295 l 1
1218 747 m 1
 379 747 l 1
EndSplineSet
EndChar

StartChar: Eth
Encoding: 208 208 142
Width: 1229
VWidth: 1947
GlyphClass: 2
Flags: MW
LayerCount: 2
Back
SplineSet
-32 0 m 5
 265 1425 l 5
 1284 1425 l 5
 987 0 l 5
 -32 0 l 5
EndSplineSet
Fore
SplineSet
23 740 m 25
 619 740 l 25
746 1295 m 2
 1071 1295 1103 1067 1036 746 c 2
 1024 687 l 2
 960 385 816 105 499 105 c 2
 230 105 l 1
 477 1295 l 1
 746 1295 l 2
EndSplineSet
EndChar

StartChar: multiply
Encoding: 215 215 149
Width: 1229
VWidth: 1708
GlyphClass: 2
Flags: MW
LayerCount: 2
Fore
SplineSet
840 324 m 29
 420 895 l 29
302 324 m 29
 959 895 l 29
EndSplineSet
EndChar

StartChar: Thorn
Encoding: 222 222 156
Width: 1229
VWidth: 1947
GlyphClass: 2
Flags: MW
LayerCount: 2
Back
SplineSet
-112 0 m 1
 208 1533 l 5
 1437 1533 l 5
 1117 0 l 1
 -112 0 l 1
EndSplineSet
Fore
SplineSet
217 450 m 25
 609 450 l 2
 854 450 1005 591 1041 759 c 2
 1067 883 l 2
 1108 1083 1024 1210 767 1210 c 2
 375 1210 l 1
462 1620 m 1
 83 -195 l 1
EndSplineSet
EndChar

StartChar: germandbls
Encoding: 223 223 157
Width: 1229
VWidth: 1947
GlyphClass: 2
Flags: MW
LayerCount: 2
Back
SplineSet
-188 -366 m 5
 185 1425 l 1
 1414 1425 l 1
 1041 -366 l 5
 -188 -366 l 5
EndSplineSet
Fore
SplineSet
24 -471 m 1
 350 1090 l 2
 383 1249 523 1320 767 1320 c 2
 790 1320 l 2
 981 1320 1071 1232 1042 1087 c 2
 1035 1053 l 2
 992 849 853 768 609 768 c 2
 584 768 l 25
 675 768 l 18
 920 768 1019 654 984 487 c 10
 963 387 l 18
 928 218 777 80 594 80 c 2
 584 80 l 2
 510 80 456 91 412 126 c 1
EndSplineSet
EndChar

StartChar: ae
Encoding: 230 230 164
Width: 1229
VWidth: 1947
GlyphClass: 2
Flags: MW
LayerCount: 2
Fore
SplineSet
979 268 m 3
 960 171 851 80 720 80 c 3
 595 80 542 177 560 268 c 2
 663 757 l 2
 680 846 774 944 899 944 c 3
 1034 944 1101 855 1082 757 c 10
 1036 540 l 1
 425 540 l 2
 283 540 177 438 158 341 c 2
 142 268 l 18
 122 171 188 80 324 80 c 3
 448 80 542 180 560 268 c 2
 663 757 l 2
 681 848 627 944 503 944 c 3
 371 944 264 854 244 757 c 0
EndSplineSet
EndChar

StartChar: eth
Encoding: 240 240 174
Width: 1229
VWidth: 1947
GlyphClass: 2
Flags: W
VStem: 182 558<220.939 427 497 723.211>
LayerCount: 2
Fore
SplineSet
354 1092 m 25
 1157 1320 l 25
980 466 m 25
 1010 613 l 18
 1066 882 798 1230 546 1432 c 9
224 480 m 10
 217 452 l 18
 174 242 305 80 510 80 c 10
 533 80 l 18
 777 80 933 242 976 452 c 10
 983 480 l 18
 1017 647 932 826 688 826 c 10
 664 826 l 18
 420 826 260 656 224 480 c 10
EndSplineSet
EndChar

StartChar: divide
Encoding: 247 247 181
Width: 1229
VWidth: 1947
GlyphClass: 2
Flags: MW
LayerCount: 2
Back
SplineSet
123 0 m 1
 420 1425 l 1
 1180 1425 l 5
 883 0 l 5
 123 0 l 1
EndSplineSet
Fore
SplineSet
672 262 m 0xe0
 672 204 626 146 559 146 c 0
 493 146 443 206 443 262 c 0
 443 313 491 376 559 376 c 0
 628 376 672 313 672 262 c 0xe0
815 930 m 0xd0
 814 874 767 813 701 813 c 0
 629 813 585 879 585 930 c 0
 590 1005 637 1080 709 1080 c 0
 774 1080 822 1020 815 930 c 0xd0
96 594 m 25
 1168 594 l 25
EndSplineSet
EndChar

StartChar: oslash
Encoding: 248 248 182
Width: 1229
VWidth: 1947
GlyphClass: 2
Flags: MW
LayerCount: 2
Fore
SplineSet
724 943 m 2
 974 943 1022 780 976 559 c 2
 958 473 l 2
 911 246 798 80 541 80 c 2
 494 80 l 2
 243 80 201 250 248 474 c 2
 265 558 l 2
 311 779 424 943 672 943 c 2
 724 943 l 2
111 -48 m 25
 1105 1059 l 25
EndSplineSet
EndChar

StartChar: thorn
Encoding: 254 254 188
Width: 1229
VWidth: 1947
GlyphClass: 2
Flags: MW
LayerCount: 2
Back
SplineSet
-191 -381 m 1
 180 1400 l 1
 1409 1400 l 1
 1038 -381 l 1
 -191 -381 l 1
EndSplineSet
Fore
SplineSet
14 -525 m 25
 444 1542 l 25
721 944 m 2
 982 944 1043 767 993 532 c 2
 986 495 l 2
 936 259 804 80 535 80 c 2
 508 80 l 2
 283 80 169 219 205 393 c 2
 252 618 l 2
 287 788 462 944 683 944 c 2
 721 944 l 2
EndSplineSet
EndChar

StartChar: minus
Encoding: 8722 8722 190
Width: 1229
VWidth: 1708
GlyphClass: 2
Flags: MW
LayerCount: 2
Fore
SplineSet
247 594 m 25
 1006 594 l 25
EndSplineSet
EndChar

StartChar: quoteleft
Encoding: 8216 8216 192
Width: 1229
VWidth: 1947
GlyphClass: 2
Flags: W
HStem: 970 455<660 811.893> 1348 77<853.668 954>
VStem: 606 207<1145 1254>
LayerCount: 2
Fore
SplineSet
837 1183 m 1x60
 855 1161 865 1131 865 1101 c 3
 865 1030 809 970 738 970 c 3xa0
 660 970 606 1031 606 1099 c 0
 606 1099 613 1424 954 1425 c 1
 959 1348 l 1
 892 1339 813 1304 813 1244 c 3
 813 1226 820 1206 837 1183 c 1x60
EndSplineSet
EndChar

StartChar: gravemodifier
Encoding: 715 715 193
Width: 1229
VWidth: 2334
GlyphClass: 2
Flags: MW
LayerCount: 2
Fore
SplineSet
755 1647 m 29
 894 1438 l 29
EndSplineSet
EndChar

StartChar: acute
Encoding: 180 180 194
Width: 1229
VWidth: 1947
GlyphClass: 2
Flags: MW
LayerCount: 2
Fore
SplineSet
932 1587 m 29
 683 1280 l 29
EndSplineSet
EndChar

StartChar: circumflex
Encoding: 710 710 195
Width: 1229
VWidth: 1947
GlyphClass: 2
Flags: MW
LayerCount: 2
Back
SplineSet
200 717 m 5
 391 1638 l 5
 1299 1638 l 5
 1108 717 l 5
 200 717 l 5
EndSplineSet
Fore
SplineSet
573 1460 m 25
 837 1600 l 25
 1043 1460 l 25
EndSplineSet
EndChar

StartChar: tilde
Encoding: 732 732 196
Width: 1229
VWidth: 1947
GlyphClass: 2
Flags: MW
LayerCount: 2
Fore
SplineSet
558 1502 m 17
 579 1528 l 2
 616 1574 681 1612 713 1612 c 10
 727 1612 l 18
 760 1612 806 1595 822 1576 c 2
 837 1559 l 2
 852 1539 899 1522 931 1522 c 10
 947 1522 l 18
 977 1522 1045 1557 1084 1608 c 2
 1101 1632 l 9
EndSplineSet
EndChar

StartChar: macronmodifier
Encoding: 713 713 197
Width: 1229
VWidth: 1947
GlyphClass: 2
Flags: MW
LayerCount: 2
Fore
SplineSet
1032 1538 m 5
 613 1538 l 5
EndSplineSet
EndChar

StartChar: breve
Encoding: 728 728 198
Width: 1229
VWidth: 1947
GlyphClass: 2
Flags: MW
LayerCount: 2
Fore
SplineSet
1050 1593 m 4
 980 1523 895 1480 810 1480 c 7
 725 1480 660 1523 620 1592 c 4
EndSplineSet
EndChar

StartChar: dotaccent
Encoding: 729 729 199
Width: 1229
VWidth: 1947
GlyphClass: 2
Flags: W
HStem: 1425 204<591.294 757.75>
VStem: 573 204<1443.91 1610.09>
LayerCount: 2
Fore
SplineSet
734 1527 m 31
 735 1583 777 1629 829 1629 c 31
 881 1629 924 1583 923 1527 c 31
 922 1471 878 1425 826 1425 c 31
 774 1425 734 1471 734 1527 c 31
EndSplineSet
EndChar

StartChar: dieresis
Encoding: 168 168 200
Width: 1229
VWidth: 1947
GlyphClass: 2
Flags: W
HStem: 1444 198<517.719 675.283 991.928 1148.6>
VStem: 500 193<1461.19 1625.9> 975 191<1461.46 1626.07>
LayerCount: 2
Fore
SplineSet
703 1545 m 0
 702 1491 662 1444 613 1444 c 0
 565 1444 524 1489 525 1545 c 0
 526 1605 571 1642 615 1642 c 0
 666 1642 704 1597 703 1545 c 0
1141 1545 m 0
 1140 1486 1096 1444 1051 1444 c 0
 1004 1444 963 1490 964 1545 c 0
 965 1601 1007 1642 1054 1642 c 0
 1098 1642 1142 1605 1141 1545 c 0
EndSplineSet
EndChar

StartChar: ring
Encoding: 730 730 202
Width: 1229
VWidth: 1947
GlyphClass: 2
Flags: MW
HStem: 1223 110<572.515 727.788> 1517 110<572.515 727.788>
VStem: 448 110<1346.23 1503.77> 742 110<1348.51 1501.49>
LayerCount: 2
Fore
SplineSet
617 1425 m 31
 619 1537 702 1627 805 1627 c 31
 909 1627 993 1537 991 1425 c 31
 983 1284 899 1203 795 1203 c 31
 691 1203 609 1284 617 1425 c 31
719 1425 m 31
 715 1359 748 1303 796 1303 c 31
 843 1303 885 1359 889 1425 c 31
 890 1476 852 1517 805 1517 c 31
 757 1517 720 1476 719 1425 c 31
EndSplineSet
EndChar

StartChar: cedilla
Encoding: 184 184 203
Width: 1229
VWidth: 1947
GlyphClass: 2
Flags: MW
LayerCount: 2
Back
SplineSet
-231 -572 m 1
 -109 18 l 5
 1121 18 l 5
 999 -572 l 1
 -231 -572 l 1
EndSplineSet
Fore
SplineSet
560 140 m 17
 506 -112 l 1
 637 -112 673 -191 656 -270 c 3
 639 -354 548 -411 455 -411 c 27
 383 -411 325 -379 286 -334 c 9
EndSplineSet
EndChar

StartChar: ogonek
Encoding: 731 731 204
Width: 1229
VWidth: 1947
GlyphClass: 2
Flags: MW
LayerCount: 2
Back
SplineSet
-215 -492 m 1
 -91 105 l 1
 1139 105 l 1
 1015 -492 l 1
 -215 -492 l 1
EndSplineSet
Fore
SplineSet
578 -290 m 1
 549 -314 l 2
 523 -333 494 -345 465 -345 c 3
 414 -345 369 -294 370 -241 c 3
 370 -213 390 -159 425 -126 c 9
 567 0 l 25
 604 184 l 25
EndSplineSet
EndChar

StartChar: caron
Encoding: 711 711 205
Width: 1229
VWidth: 1947
GlyphClass: 2
Flags: MW
LayerCount: 2
Back
SplineSet
346 1422 m 5
 411 1736 l 5
 1318 1736 l 5
 1254 1422 l 5
 346 1422 l 5
EndSplineSet
Fore
SplineSet
602 1600 m 25
 808 1460 l 25
 1072 1600 l 25
EndSplineSet
EndChar

StartChar: dotlessi
Encoding: 305 305 206
Width: 1229
VWidth: 1947
GlyphClass: 2
Flags: W
LayerCount: 2
Back
SplineSet
123 0 m 1
 238 550 l 1
 307 569 l 5
 481 1400 l 5
 1172 1400 l 1
 880 0 l 1
 123 0 l 1
EndSplineSet
Fore
SplineSet
-34 105 m 25
 1045 105 l 25
175 919 m 25
 696 919 l 25
 527 105 l 25
EndSplineSet
EndChar

StartChar: currency
Encoding: 164 164 210
Width: 1229
VWidth: 1947
GlyphClass: 2
Flags: MW
LayerCount: 2
Fore
SplineSet
952 302 m 17
 806 525 l 1
431 1038 m 1
 246 1253 l 9
139 413 m 17
 366 588 l 1
865 942 m 1
 1072 1146 l 9
631 1100 m 18
 809 1100 910 922 910 780 c 10
 910 751 l 18
 910 602 798 466 624 466 c 10
 605 466 l 18
 429 466 320 603 320 751 c 10
 320 780 l 18
 320 922 448 1100 613 1100 c 10
 631 1100 l 18
EndSplineSet
EndChar

StartChar: brokenbar
Encoding: 166 166 211
Width: 1229
VWidth: 1947
GlyphClass: 2
Flags: MW
LayerCount: 2
Back
SplineSet
-130 -84 m 5
 9 586 l 1
 1239 586 l 1
 1100 -84 l 5
 -130 -84 l 5
56 809 m 1
 194 1473 l 1
 1424 1473 l 1
 1286 809 l 1
 56 809 l 1
EndSplineSet
Fore
SplineSet
457 -222 m 17
 832 1581 l 9
EndSplineSet
EndChar

StartChar: onequarter
Encoding: 188 188 212
Width: 1229
VWidth: 1708
GlyphClass: 2
Flags: MW
LayerCount: 2
Back
SplineSet
292 628 m 17
 -243 740 l 1
 -208 913 l 1
 225 1153 l 1
 246 1269 l 1
 206 1376 l 1
 471 1569 l 1
 829 1569 l 1
 749 1183 l 17
 1170 1668 l 9
 1552 1473 l 17
 808 571 l 1
 1202 571 l 5
 1039 -209 l 5
 482 -209 l 1
 585 291 l 9
 220 -207 l 25
 -232 -69 l 25
 292 628 l 17
EndSplineSet
Fore
SplineSet
805 -369 m 25
 992 525 l 25
 550 68 l 25
 1260 68 l 25
334 783 m 25
 484 1504 l 25
 13 1290 l 25
118 -25 m 25
 1179 1425 l 25
EndSplineSet
EndChar

StartChar: onehalf
Encoding: 189 189 213
Width: 1229
VWidth: 1708
GlyphClass: 2
Flags: MW
LayerCount: 2
Back
SplineSet
223 1153 m 1
 246 1269 l 1
 206 1376 l 1
 471 1569 l 1
 829 1569 l 1
 749 1183 l 17
 1138 1662 l 1
 1532 1521 l 1
 818 612 l 1
 1298 612 l 1
 1099 -345 l 1
 493 -345 l 1
 595 145 l 1
 163 -279 l 1
 -296 -84 l 1
 271 592 l 1
 -243 740 l 1
 -208 913 l 1
 223 1153 l 1
EndSplineSet
Fore
SplineSet
679 382 m 1
 726 438 778 476 892 476 c 10
 906 476 l 18
 1076 476 1138 430 1119 338 c 10
 1115 318 l 18
 1109 288 1067 223 1014 185 c 2
 683 -49 l 2
 617 -97 581 -153 548 -210 c 1
 1030 -210 l 9
334 783 m 25
 484 1504 l 25
 13 1290 l 25
118 -25 m 25
 1179 1425 l 25
EndSplineSet
EndChar

StartChar: threequarters
Encoding: 190 190 214
Width: 1229
VWidth: 1708
GlyphClass: 2
Flags: MW
LayerCount: 2
Back
SplineSet
259 -177 m 5
 -216 -174 l 5
 169 1674 l 5
 1165 1674 l 5
 1489 1458 l 5
 869 571 l 5
 1246 571 l 5
 1083 -209 l 5
 482 -209 l 5
 587 297 l 5
 259 -177 l 5
EndSplineSet
Fore
SplineSet
799 -399 m 25
 992 525 l 25
 550 68 l 25
 1374 70 l 25
271 1432 m 1
 318 1491 428 1529 516 1529 c 10
 531 1529 l 18
 640 1529 677 1450 654 1343 c 10
 663 1387 l 18
 643 1285 588 1232 479 1232 c 2
 339 1232 l 9
 488 1232 l 18
 632 1232 660 1190 637 1080 c 10
 635 1070 l 18
 605 923 532 840 388 840 c 10
 373 840 l 18
 264 840 145 898 171 1026 c 1
118 -25 m 25
 1179 1425 l 25
EndSplineSet
EndChar

StartChar: Lslash
Encoding: 321 321 216
Width: 1229
VWidth: 1947
GlyphClass: 2
Flags: MW
LayerCount: 2
Back
SplineSet
-112 0 m 1
 180 1400 l 1
 1279 1400 l 5
 987 0 l 5
 -112 0 l 1
EndSplineSet
Fore
SplineSet
75 512 m 25
 898 715 l 25
511 1518 m 25
 223 106 l 25
 1150 106 l 25
EndSplineSet
EndChar

StartChar: lslash
Encoding: 322 322 257
Width: 1229
VWidth: 1947
GlyphClass: 2
Flags: MW
LayerCount: 2
Back
SplineSet
121 0 m 1
 184 298 l 1
 -48 312 l 1
 88 962 l 1
 328 991 l 1
 413 1400 l 1
 1408 1400 l 1
 1178 296 l 1
 940 279 l 1
 882 0 l 1
 121 0 l 1
EndSplineSet
Fore
SplineSet
6 105 m 25
 1045 105 l 25
530 122 m 17
253 1295 m 25
 774 1295 l 25
 527 105 l 25
188 512 m 25
 1079 715 l 25
EndSplineSet
EndChar

StartChar: dotlessj
Encoding: 567 567 260
Width: 1229
VWidth: 1947
GlyphClass: 2
Flags: MW
LayerCount: 2
Back
SplineSet
-200 -410 m 1
 -9 505 l 1
 420 519 l 5
 525 1024 l 5
 1329 1024 l 1
 1030 -410 l 1
 -200 -410 l 1
EndSplineSet
Fore
SplineSet
277 -94 m 0
 275 -187 363 -294 463 -294 c 11
 598 -294 718 -189 743 -69 c 2
 949 919 l 25
 299 919 l 25
EndSplineSet
EndChar

StartChar: eng
Encoding: 331 331 261
Width: 1229
VWidth: 2334
GlyphClass: 2
Flags: MW
LayerCount: 2
Back
SplineSet
-112 0 m 1
 107 1048 l 1
 1336 1048 l 1
 1029 -410 l 1
 83 -410 l 1
 434 -43 l 5
 443 0 l 1
 -112 0 l 1
EndSplineSet
Fore
SplineSet
288 -188 m 1
 326 -231 385 -294 462 -294 c 10
 531 -294 l 18
 713 -294 855 -130 887 18 c 10
 1022 668 l 18
 1057 834 956 944 712 944 c 10
 689 944 l 18
 475 944 265 680 239 554 c 10
 94 -138 l 25
 366 1167 l 25
EndSplineSet
EndChar

StartChar: ellipsis
Encoding: 8230 8230 266
Width: 1229
VWidth: 1947
GlyphClass: 2
Flags: HMW
HStem: 27 171<128.457 269.76 484.422 624.76 839.674 980.76>
VStem: 118 162<36.6866 188.154> 474 162<37.0584 187.782> 829 163<37.0584 187.782>
LayerCount: 2
Fore
SplineSet
892 135 m 0
 892 191 936 237 993 237 c 0
 1049 237 1096 191 1096 135 c 0
 1096 79 1049 33 993 33 c 0
 936 33 892 79 892 135 c 0
85 126 m 0
 85 182 129 228 186 228 c 0
 242 228 289 182 289 126 c 0
 289 70 242 24 186 24 c 0
 129 24 85 70 85 126 c 0
475 129 m 0
 475 185 519 231 576 231 c 0
 632 231 679 185 679 129 c 0
 679 73 632 27 576 27 c 0
 519 27 475 73 475 129 c 0
EndSplineSet
EndChar

StartChar: uparrow
Encoding: 8593 8593 267
Width: 1229
VWidth: 1708
GlyphClass: 2
Flags: W
LayerCount: 2
Fore
SplineSet
1076 -99 m 5
 154 -99 l 5
 154 1044 l 5
 1076 1044 l 5
 1076 -99 l 5
975 620 m 29
 615 991 l 29
 255 620 l 29
615 991 m 29
 615 177 l 29
EndSplineSet
EndChar

StartChar: downarrow
Encoding: 8595 8595 268
Width: 1229
VWidth: 1708
GlyphClass: 2
Flags: W
LayerCount: 2
Fore
SplineSet
1076 124 m 1
 154 124 l 1
 154 1331 l 1
 1076 1331 l 1
 1076 124 l 1
975 580 m 25
 615 177 l 25
 255 580 l 25
615 177 m 25
 615 991 l 25
EndSplineSet
EndChar

StartChar: spaceopenbox
Encoding: 9251 9251 269
Width: 1229
VWidth: 1708
GlyphClass: 2
Flags: MW
LayerCount: 2
Back
SplineSet
-197 -410 m 1
 -80 153 l 1
 1150 153 l 1
 1032 -410 l 1
 -197 -410 l 1
EndSplineSet
Fore
SplineSet
937 254 m 25
 863 -92 l 25
 104 -92 l 25
 178 254 l 25
EndSplineSet
EndChar

StartChar: foursuperior
Encoding: 8308 8308 271
Width: 1229
VWidth: 1947
GlyphClass: 2
Flags: MW
LayerCount: 2
Back
SplineSet
420 1425 m 5
 1179 1425 l 5
 996 542 l 5
 237 542 l 5
 420 1425 l 5
EndSplineSet
Fore
SplineSet
773 377 m 25
 986 1402 l 25
 336 817 l 25
 1274 817 l 25
EndSplineSet
EndChar

StartChar: Eng
Encoding: 330 330 273
Width: 1229
VWidth: 2334
GlyphClass: 2
Flags: MW
LayerCount: 2
Back
SplineSet
-112 0 m 1
 183 1425 l 1
 1412 1425 l 1
 1026 -410 l 1
 129 -410 l 1
 162 -252 l 5
 423 -126 l 1
 446 0 l 1
 -112 0 l 1
EndSplineSet
Fore
SplineSet
288 -188 m 1
 311 -246 385 -294 462 -294 c 10
 531 -294 l 18
 713 -294 855 -130 887 18 c 10
 1095 1023 l 18
 1129 1185 1034 1320 790 1320 c 10
 767 1320 l 18
 553 1320 342 1050 309 890 c 10
 108 -72 l 25
 445 1548 l 25
EndSplineSet
EndChar

StartChar: dcroat
Encoding: 273 273 274
Width: 1229
VWidth: 1947
GlyphClass: 2
Flags: W
LayerCount: 2
Back
SplineSet
-119 -36 m 1
 118 1105 l 1
 688 1099 l 1
 750 1400 l 1
 1344 1400 l 1
 1052 0 l 1
 748 0 l 1
 740 -36 l 1
 -119 -36 l 1
EndSplineSet
Fore
SplineSet
600 1210 m 25
 1461 1210 l 25
1137 1400 m 25
 814 -162 l 25
247 592 m 10
 214 433 l 18
 170 223 287 80 491 80 c 10
 514 80 l 18
 758 80 891 223 935 433 c 10
 968 592 l 18
 1011 800 938 944 694 944 c 10
 671 944 l 18
 426 944 290 800 247 592 c 10
EndSplineSet
EndChar

StartChar: bullet
Encoding: 8226 8226 280
Width: 1229
VWidth: 1947
GlyphClass: 2
Flags: W
HStem: 496 343<562.994 770.903>
VStem: 499 332<557.3 774.69>
LayerCount: 2
Fore
SplineSet
815 659 m 0
 815 579 746 498 662 498 c 0
 577 498 508 576 508 652 c 0
 508 734 581 817 663 817 c 0
 744 817 815 740 815 659 c 0
EndSplineSet
EndChar

StartChar: florin
Encoding: 402 402 281
Width: 1229
VWidth: 1947
GlyphClass: 2
Flags: MW
LayerCount: 2
Back
SplineSet
502 1500 m 1
 1430 1500 l 1
 1342 1075 l 1
 1106 1061 l 1
 795 -428 l 1
 -201 -428 l 1
 -5 509 l 1
 299 524 l 1
 502 1500 l 1
EndSplineSet
Fore
SplineSet
1179 1228 m 1
 1138 1285 1107 1320 1018 1320 c 11
 909 1320 820 1248 783 1121 c 10
 451 -77 l 18
 414 -212 315 -311 201 -311 c 3
 126 -311 57 -252 48 -170 c 1
154 806 m 25
 1270 806 l 25
EndSplineSet
EndChar

StartChar: dagger
Encoding: 8224 8224 282
Width: 1229
VWidth: 1947
GlyphClass: 2
Flags: MW
LayerCount: 2
Back
SplineSet
274 1425 m 5
 1323 1425 l 5
 946 -390 l 5
 -103 -390 l 5
 274 1425 l 5
EndSplineSet
Fore
SplineSet
820 1524 m 17
 400 -495 l 9
51 919 m 25
 1350 919 l 25
EndSplineSet
EndChar

StartChar: daggerdbl
Encoding: 8225 8225 283
Width: 1229
VWidth: 1947
GlyphClass: 2
Flags: MW
LayerCount: 2
Back
SplineSet
274 1425 m 5
 1323 1425 l 5
 946 -390 l 5
 -103 -390 l 5
 274 1425 l 5
EndSplineSet
Fore
SplineSet
-125 119 m 25
 1184 119 l 25
825 1548 m 25
 400 -498 l 25
41 919 m 25
 1350 919 l 25
EndSplineSet
EndChar

StartChar: trademark
Encoding: 8482 8482 284
Width: 1229
VWidth: 1947
GlyphClass: 2
Flags: MW
LayerCount: 2
Back
SplineSet
57.0518 466 m 1
 255.579 1400 l 1
 1344.58 1400 l 1
 1146.05 466 l 1
 896.052 466 l 1
 907.316 519 l 1
 717.316 519 l 1
 706.052 466 l 1
 57.0518 466 l 1
EndSplineSet
Fore
SplineSet
549.105 311 m 25
 780.792 1401 l 25
 833.723 615 l 25
 1219.79 1401 l 25
 988.105 311 l 25
252.404 303 m 25
 463.261 1295 l 25
149.261 1295 m 25
 754.261 1295 l 25
EndSplineSet
EndChar

StartChar: Ecyrillic
Encoding: 1028 1028 290
Width: 1229
VWidth: 1947
GlyphClass: 2
Flags: W
LayerCount: 2
Back
SplineSet
-122 -51 m 1
 184 1425 l 1
 1414 1425 l 1
 1303 890 l 1
 736 876 l 5
 657 497 l 5
 1218 480 l 1
 1108 -51 l 1
 -122 -51 l 1
EndSplineSet
Fore
SplineSet
896 315 m 0
 817 179 702 81 530 80 c 2
 514 80 l 2
 205 80 205 390 266 684 c 2
 279 746 l 2
 345 1060 457 1320 771 1320 c 2
 787 1320 l 2
 987 1320 1060 1214 1072 1070 c 0
278 721 m 17
 822 720 l 9
EndSplineSet
EndChar

StartChar: Becyrillic
Encoding: 1041 1041 298
Width: 1229
VWidth: 1947
GlyphClass: 2
Flags: MW
LayerCount: 2
Back
SplineSet
12 0 m 5
 307 1400 l 5
 1171 1400 l 5
 1105 1083 l 5
 1339 1067 l 5
 1113 0 l 5
 12 0 l 5
EndSplineSet
Fore
SplineSet
284 768 m 25
 638 768 l 2
 883 768 1019 656 984 487 c 2
 965 396 l 2
 931 230 758 105 501 105 c 2
 146 105 l 1
 393 1295 l 9
 1342 1295 l 25
EndSplineSet
EndChar

StartChar: Gecyrillic
Encoding: 1043 1043 299
Width: 1229
VWidth: 1947
GlyphClass: 2
Flags: MW
LayerCount: 2
Back
SplineSet
12 0 m 1
 307 1400 l 1
 1276 1400 l 5
 1210 1083 l 5
 1339 1067 l 1
 1113 0 l 1
 12 0 l 1
EndSplineSet
Fore
SplineSet
86 -177 m 25
 393 1295 l 25
 1387 1295 l 25
EndSplineSet
EndChar

StartChar: Decyrillic
Encoding: 1044 1044 300
Width: 1229
VWidth: 1947
GlyphClass: 2
Flags: MW
LayerCount: 2
Back
SplineSet
185 1425 m 1
 1414 1425 l 1
 1148 146 l 1
 913 -170 l 1
 31 -170 l 1
 -81 146 l 1
 185 1425 l 1
EndSplineSet
Fore
SplineSet
32 -212 m 17
 97 106 l 9
 953 106 l 17
 889 -212 l 9
197 106 m 17
 563 936 l 2
 617 1073 794 1295 966 1295 c 10
 1088 1295 l 17
 840 106 l 9
EndSplineSet
EndChar

StartChar: Zhecyrillic
Encoding: 1046 1046 302
Width: 1229
VWidth: 1947
GlyphClass: 2
Flags: W
LayerCount: 2
Back
SplineSet
180 1400 m 1
 1409 1400 l 1
 1117 0 l 1
 -112 0 l 1
 180 1400 l 1
EndSplineSet
Fore
SplineSet
971 -85 m 25
 817 685 l 25
2 -85 m 25
 475 685 l 25
331 1500 m 25
 554 236 l 25
 1300 1500 l 25
777 1320 m 25
 475 -140 l 25
EndSplineSet
EndChar

StartChar: Zecyrillic
Encoding: 1047 1047 303
Width: 1229
VWidth: 1947
GlyphClass: 2
Flags: MW
LayerCount: 2
Back
SplineSet
-110 -24 m 1
 14 589 l 1
 415 606 l 5
 503 1040 l 5
 109 1059 l 1
 183 1425 l 1
 1410 1426 l 1
 1117 -24 l 1
 -110 -24 l 1
EndSplineSet
Fore
SplineSet
394 1174 m 1
 467 1269 596 1320 738 1320 c 10
 790 1320 l 18
 961 1320 1079 1242 1049 1096 c 9
 1041 1059 l 18
 1006 890 836 789 655 789 c 2
 332 789 l 9
 680 789 l 18
 922 789 1021 662 976 452 c 9
 973 433 l 18
 931 229 777 80 533 80 c 10
 481 80 l 18
 331 80 192 163 192 302 c 0
EndSplineSet
EndChar

StartChar: Iicyrillic
Encoding: 1048 1048 304
Width: 1229
VWidth: 1947
GlyphClass: 2
Flags: MW
LayerCount: 2
Back
SplineSet
180 1400 m 1
 1409 1400 l 1
 1117 0 l 1
 -112 0 l 1
 180 1400 l 1
EndSplineSet
Fore
SplineSet
834 -231 m 25
 1157 1320 l 25
 141 79 l 25
 446 1554 l 25
EndSplineSet
EndChar

StartChar: Elcyrillic
Encoding: 1051 1051 307
Width: 1229
VWidth: 1947
GlyphClass: 2
Flags: MW
LayerCount: 2
Back
SplineSet
185 1425 m 1
 1414 1425 l 1
 1117 0 l 1
 -112 0 l 1
 185 1425 l 1
EndSplineSet
Fore
SplineSet
-54 -213 m 16
 541 936 l 2
 614 1102 791 1252 966 1295 c 9
 1152 1295 l 25
 843 -186 l 25
EndSplineSet
EndChar

StartChar: Pecyrillic
Encoding: 1055 1055 311
Width: 1229
VWidth: 1947
GlyphClass: 2
Flags: MW
LayerCount: 2
Back
SplineSet
-113 0 m 5
 183 1425 l 1
 1410 1426 l 1
 1113 0 l 5
 -113 0 l 5
EndSplineSet
Fore
SplineSet
95 -135 m 25
 393 1295 l 25
 1152 1295 l 25
 854 -135 l 25
EndSplineSet
EndChar

StartChar: Ucyrillic
Encoding: 1059 1059 315
Width: 1229
VWidth: 1947
GlyphClass: 2
Flags: MW
LayerCount: 2
Back
SplineSet
180 1400 m 1
 1409 1400 l 5
 1109 -40 l 5
 -120 -40 l 1
 180 1400 l 1
EndSplineSet
Fore
SplineSet
1278 1480 m 16
 559 235 l 2
 483 102 392 81 302 80 c 2
 265 80 l 2
 242 80 198 90 186 101 c 2
 151 132 l 9
383 1476 m 17
 439 1091 540 757 687 463 c 9
EndSplineSet
EndChar

StartChar: Efcyrillic
Encoding: 1060 1060 316
Width: 1229
VWidth: 1947
GlyphClass: 2
Flags: W
LayerCount: 2
Back
SplineSet
-110 -24 m 5
 183 1425 l 5
 1410 1426 l 5
 1117 -24 l 5
 -110 -24 l 5
EndSplineSet
Fore
SplineSet
881 1230 m 2
 998 1230 1097 1031 1043 766 c 2
 1031 713 l 2
 980 469 815 231 673 231 c 2
 433 231 l 2
 291 231 221 469 272 713 c 2
 283 765 l 2
 338 1032 502 1230 639 1230 c 2
 881 1230 l 2
824 1545 m 25
 460 -207 l 25
EndSplineSet
EndChar

StartChar: Tsecyrillic
Encoding: 1062 1062 318
Width: 1229
VWidth: 1947
GlyphClass: 2
Flags: MW
LayerCount: 2
Back
SplineSet
180 1400 m 1
 1309 1400 l 1
 956 -302 l 1
 -174 -302 l 1
 180 1400 l 1
EndSplineSet
Fore
SplineSet
810 105 m 17
 978 105 l 9
 765 -189 l 25
441 1527 m 25
 146 105 l 25
 811 105 l 17
 1106 1527 l 9
EndSplineSet
EndChar

StartChar: Checyrillic
Encoding: 1063 1063 319
Width: 1229
VWidth: 1947
GlyphClass: 2
Flags: MW
LayerCount: 2
Back
SplineSet
-108 0 m 1
 177 1400 l 1
 1404 1401 l 1
 1119 0 l 1
 -108 0 l 1
EndSplineSet
Fore
SplineSet
990 512 m 25
 599 512 l 2
 355 512 264 672 298 840 c 2
 441 1527 l 17
1200 1527 m 1
 853 -141 l 1
EndSplineSet
EndChar

StartChar: Shacyrillic
Encoding: 1064 1064 320
Width: 1229
VWidth: 1947
GlyphClass: 2
Flags: MW
LayerCount: 2
Back
SplineSet
-110 -24 m 1
 177 1400 l 5
 618 1401 l 5
 570 1165 l 5
 891 1165 l 5
 967 1401 l 5
 1404 1401 l 5
 1117 -24 l 1
 -110 -24 l 1
EndSplineSet
Fore
SplineSet
769 1274 m 17
 527 105 l 9
439 1518 m 25
 146 105 l 25
 905 105 l 25
 1198 1518 l 25
EndSplineSet
EndChar

StartChar: Shchacyrillic
Encoding: 1065 1065 321
Width: 1229
VWidth: 1947
GlyphClass: 2
Flags: MW
LayerCount: 2
Back
SplineSet
177 1400 m 1
 618 1401 l 1
 570 1165 l 1
 891 1165 l 1
 967 1401 l 1
 1361 1401 l 1
 1006 -302 l 1
 -174 -302 l 1
 177 1400 l 1
EndSplineSet
Fore
SplineSet
767 1266 m 17
 527 105 l 9
903 105 m 25
 1054 105 l 25
 809 -189 l 25
437 1509 m 25
 146 105 l 25
 905 105 l 17
 1196 1509 l 9
EndSplineSet
EndChar

StartChar: Hardsigncyrillic
Encoding: 1066 1066 322
Width: 1229
VWidth: 1947
GlyphClass: 2
Flags: W
HStem: 1405 20G<60 922>
VStem: 0 922<-60 680>
LayerCount: 2
Back
SplineSet
266 1425 m 1
 1414 1425 l 1
 1105 -60 l 1
 -124 -60 l 1
 35 699 l 1
 271 700 l 1
 318 929 l 1
 163 929 l 1
 266 1425 l 1
EndSplineSet
Fore
SplineSet
453 731 m 25
 732 731 l 2
 894 731 1017 646 982 478 c 2
 962 378 l 2
 927 211 763 105 602 105 c 2
 323 105 l 1
 571 1295 l 9
 353 1295 l 25
 91 870 l 25
EndSplineSet
EndChar

StartChar: Yericyrillic
Encoding: 1067 1067 323
Width: 1229
VWidth: 1947
GlyphClass: 2
Flags: MW
LayerCount: 2
Back
SplineSet
-113 0 m 1
 177 1400 l 1
 1407 1400 l 1
 1117 0 l 1
 -113 0 l 1
EndSplineSet
Fore
SplineSet
1221 1506 m 17
 867 -192 l 9
260 778 m 25
 378 778 l 2
 622 778 723 665 687 497 c 2
 670 415 l 2
 636 248 495 105 238 105 c 2
 121 105 l 1
 411 1506 l 1
EndSplineSet
EndChar

StartChar: Softsigncyrillic
Encoding: 1068 1068 324
Width: 1229
VWidth: 1947
GlyphClass: 2
Flags: MW
LayerCount: 2
Back
SplineSet
-113 0 m 1
 184 1425 l 1
 1414 1425 l 1
 1117 0 l 1
 -113 0 l 1
EndSplineSet
Fore
SplineSet
276 731 m 25
 668 731 l 2
 912 731 1012 619 976 450 c 2
 963 387 l 2
 929 220 795 105 538 105 c 2
 146 105 l 1
 446 1554 l 1
EndSplineSet
EndChar

StartChar: Ereversedcyrillic
Encoding: 1069 1069 325
Width: 1229
VWidth: 1947
GlyphClass: 2
Flags: MW
LayerCount: 2
Back
SplineSet
-120 -39 m 1
 -7 508 l 1
 560 522 l 1
 643 918 l 1
 83 939 l 1
 184 1425 l 1
 1414 1425 l 1
 1110 -39 l 1
 -120 -39 l 1
EndSplineSet
Fore
SplineSet
379 1067 m 0
 453 1213 571 1320 771 1320 c 2
 787 1320 l 2
 1103 1320 1103 1059 1039 748 c 2
 1025 684 l 2
 964 390 837 81 530 80 c 2
 514 80 l 2
 336 80 260 186 240 329 c 0
467 729 m 25
 1029 729 l 25
EndSplineSet
EndChar

StartChar: IUcyrillic
Encoding: 1070 1070 326
Width: 1229
VWidth: 1947
GlyphClass: 2
Flags: MW
LayerCount: 2
Back
SplineSet
-111 0 m 1
 178 1400 l 1
 565 1400 l 1
 582 1425 l 1
 1414 1425 l 1
 1113 -25 l 1
 354 -25 l 1
 344 0 l 1
 -111 0 l 1
EndSplineSet
Fore
SplineSet
251 687 m 25
 518 687 l 25
409 1485 m 17
 61 -174 l 9
928 1320 m 2
 1109 1320 1132 1069 1064 744 c 2
 1053 698 l 2
 992 402 859 80 676 80 c 2
 652 80 l 2
 473 80 480 411 539 693 c 2
 549 740 l 2
 616 1065 731 1320 915 1320 c 2
 928 1320 l 2
EndSplineSet
EndChar

StartChar: IAcyrillic
Encoding: 1071 1071 327
Width: 1229
VWidth: 1947
GlyphClass: 2
Flags: MW
LayerCount: 2
Back
SplineSet
192 1458 m 1
 1421 1458 l 1
 1117 0 l 1
 -112 0 l 1
 192 1458 l 1
EndSplineSet
Fore
SplineSet
-47 -102 m 25
 640 652 l 25
1019 657 m 25
 629 657 l 2
 385 657 281 754 316 923 c 2
 340 1042 l 2
 377 1218 505 1295 762 1295 c 2
 1152 1295 l 1
 850 -156 l 1
EndSplineSet
EndChar

StartChar: becyrillic
Encoding: 1073 1073 329
Width: 1229
VWidth: 1947
GlyphClass: 2
Flags: MW
LayerCount: 2
Back
SplineSet
334 1506 m 5
 1197 1506 l 1
 1120 1125 l 1
 1341 1078 l 1
 1093 -99 l 1
 -131 -99 l 1
 103 1029 l 1
 239 1046 l 5
 334 1506 l 5
EndSplineSet
Fore
SplineSet
248 592 m 10
 216 433 l 18
 175 234 301 80 510 80 c 10
 535 80 l 18
 779 80 931 223 975 433 c 10
 1007 592 l 18
 1044 780 1031 944 712 944 c 10
 688 944 l 18
 444 944 292 800 248 592 c 10
1329 1295 m 25
 396 1295 l 25
 929 899 l 25
EndSplineSet
EndChar

StartChar: vecyrillic
Encoding: 1074 1074 330
Width: 1229
VWidth: 2334
GlyphClass: 2
Flags: MW
LayerCount: 2
Fore
SplineSet
514 105 m 2
 631 105 l 2
 875 105 1017 161 1049 301 c 10
 1058 338 l 18
 1090 477 956 547 721 547 c 2
 239 547 l 1
 353 547 l 2
 560 547 878 863 921 1061 c 2
 941 1158 l 2
 967 1274 832 1319 694 1319 c 2
 651 1319 l 2
 429 1319 368 1179 330 996 c 2
 199 365 l 18
 153 142 362 105 514 105 c 2
EndSplineSet
EndChar

StartChar: gecyrillic
Encoding: 1075 1075 331
Width: 1229
VWidth: 1947
GlyphClass: 2
Flags: MW
LayerCount: 2
Fore
SplineSet
317 790 m 1
 393 882 507 944 647 944 c 10
 728 944 l 18
 947 944 1026 885 1000 761 c 2
 998 750 l 2
 982 670 927 614 850 595 c 2
 357 479 l 2
 276 459 205 393 192 331 c 2
 184 288 l 2
 156 156 285 80 468 80 c 10
 579 80 l 18
 765 80 930 225 956 350 c 8
EndSplineSet
EndChar

StartChar: decyrillic
Encoding: 1076 1076 332
Width: 1229
VWidth: 1947
GlyphClass: 2
Flags: MW
LayerCount: 2
Fore
SplineSet
377 1221 m 17
 515 1278 559 1295 762 1295 c 2
 785 1295 l 2
 1030 1284 1124 1151 1083 953 c 2
 991 512 l 9
248 592 m 10
 216 433 l 18
 175 234 301 80 510 80 c 10
 535 80 l 18
 779 80 931 223 975 433 c 10
 1007 592 l 18
 1044 780 1031 944 712 944 c 10
 688 944 l 18
 444 944 292 800 248 592 c 10
EndSplineSet
EndChar

StartChar: zhecyrillic
Encoding: 1078 1078 334
Width: 1229
VWidth: 1947
GlyphClass: 2
Flags: MW
LayerCount: 2
Back
SplineSet
131 1169 m 1
 522 1169 l 1
 531 1024 l 1
 939 1024 l 1
 1002 1169 l 1
 1360 1169 l 1
 1115 0 l 1
 -113 0 l 1
 131 1169 l 1
EndSplineSet
Fore
SplineSet
872 -142 m 25
 747 478 l 25
79 -142 m 25
 456 476 l 25
311 1047 m 25
 541 175 l 25
 1127 1047 l 25
759 1221 m 25
 463 -192 l 25
EndSplineSet
EndChar

StartChar: zecyrillic
Encoding: 1079 1079 335
Width: 1229
VWidth: 1947
GlyphClass: 2
Flags: MW
LayerCount: 2
Back
SplineSet
108 1047 m 1
 1337 1047 l 1
 1111 -30 l 1
 -118 -30 l 1
 -31 382 l 1
 453 399 l 1
 521 726 l 1
 37 714 l 1
 108 1047 l 1
EndSplineSet
Fore
SplineSet
316 793 m 1
 390 891 499 945 642 945 c 10
 758 945 l 18
 942 945 997 844 979 760 c 10
 977 750 l 18
 956 646 850 548 670 548 c 2
 355 548 l 9
 685 548 l 18
 930 548 977 455 955 347 c 10
 951 328 l 18
 929 223 832 80 588 80 c 10
 473 80 l 18
 307 80 190 164 185 292 c 1
EndSplineSet
EndChar

StartChar: kacyrillic
Encoding: 1082 1082 338
Width: 1229
VWidth: 1947
GlyphClass: 2
Flags: MW
LayerCount: 2
Back
SplineSet
100 1024 m 1
 659 1024 l 1
 719 1196 l 1
 1366 1196 l 1
 1117 0 l 1
 -112 0 l 1
 100 1024 l 1
EndSplineSet
Fore
SplineSet
1035 -118 m 17
 784 142 l 2
 728 197 633 383 599 490 c 2
 567 594 l 9
1087 953 m 17
 934 875 l 2
 718 740 557 607 399 429 c 2
 158 153 l 9
367 1172 m 25
 89 -162 l 25
EndSplineSet
EndChar

StartChar: elcyrillic
Encoding: 1083 1083 339
Width: 1229
VWidth: 1947
GlyphClass: 2
Flags: MW
LayerCount: 2
Back
SplineSet
106 1047 m 1
 1335 1047 l 1
 1117 0 l 1
 -112 0 l 1
 106 1047 l 1
EndSplineSet
Fore
SplineSet
10 -99 m 16
 417 598 l 2
 489 728 716 918 888 918 c 10
 1074 918 l 25
 848 -165 l 25
EndSplineSet
EndChar

StartChar: emcyrillic
Encoding: 1084 1084 340
Width: 1229
VWidth: 1947
GlyphClass: 2
Flags: MW
LayerCount: 2
Back
SplineSet
-111 1 m 1
 102 1025 l 1
 1331 1025 l 1
 1118 1 l 1
 708 1 l 1
 728 106 l 1
 331 106 l 1
 310 1 l 1
 -111 1 l 1
EndSplineSet
Fore
SplineSet
60 -74 m 25
 425 1026 l 25
 535 148 l 25
 1001 1026 l 25
 916 -75 l 25
EndSplineSet
EndChar

StartChar: encyrillic
Encoding: 1085 1085 341
Width: 1229
VWidth: 1947
GlyphClass: 2
Flags: MW
LayerCount: 2
Back
SplineSet
99 1024 m 1
 1329 1023 l 1
 1115 0 l 1
 -114 0 l 1
 99 1024 l 1
EndSplineSet
Fore
SplineSet
222 473 m 25
 981 473 l 25
1120 1143 m 25
 857 -120 l 25
361 1143 m 25
 98 -120 l 25
EndSplineSet
EndChar

StartChar: efcyrillic
Encoding: 1092 1092 348
Width: 1229
VWidth: 1947
GlyphClass: 2
Flags: MW
LayerCount: 2
Back
SplineSet
107 1048 m 1
 1336 1048 l 1
 1038 -384 l 5
 -191 -384 l 5
 107 1048 l 1
EndSplineSet
Fore
SplineSet
776 867 m 2
 1063 867 1133 709 1092 510 c 2
 1079 452 l 2
 1038 247 900 80 609 80 c 2
 424 80 l 2
 141 80 70 251 111 453 c 2
 123 510 l 2
 163 707 304 867 586 867 c 2
 776 867 l 2
746 1169 m 25
 403 -483 l 25
EndSplineSet
EndChar

StartChar: tsecyrillic
Encoding: 1094 1094 350
Width: 1229
VWidth: 2334
GlyphClass: 2
Flags: MW
LayerCount: 2
Back
SplineSet
99 1024 m 1
 1328 1024 l 1
 1038 -384 l 1
 -191 -384 l 1
 99 1024 l 1
EndSplineSet
Fore
SplineSet
355 1116 m 25
 204 387 l 18
 166 203 256 80 481 80 c 10
 506 80 l 18
 720 80 959 364 985 489 c 10
 1114 1116 l 25
 929 221 l 17
 963 186 981 148 986 111 c 3
 985 -127 742 -221 727 -228 c 8
EndSplineSet
EndChar

StartChar: checyrillic
Encoding: 1095 1095 351
Width: 1229
VWidth: 1947
GlyphClass: 2
Flags: MW
LayerCount: 2
Back
SplineSet
100 1024 m 1
 1328 1024 l 1
 1113 -24 l 5
 -116 -24 l 5
 100 1024 l 1
EndSplineSet
Fore
SplineSet
354 1110 m 25
 272 714 l 18
 238 548 304 405 548 405 c 10
 620 405 l 18
 834 405 1027 692 1053 817 c 10
 1113 1110 l 25
 849 -159 l 17
EndSplineSet
EndChar

StartChar: shacyrillic
Encoding: 1096 1096 352
Width: 1229
VWidth: 2334
GlyphClass: 2
Flags: MW
LayerCount: 2
Back
SplineSet
103 1024 m 5
 1331 1024 l 5
 1113 -26 l 5
 -116 -26 l 5
 103 1024 l 5
EndSplineSet
Fore
SplineSet
326 1099 m 25
 153 264 l 18
 130 153 203 80 288 80 c 10
 301 80 l 18
 403 80 557 253 583 378 c 10
 730 1099 l 25
 559 264 l 18
 540 170 588 80 686 80 c 10
 700 80 l 18
 810 80 962 254 987 378 c 10
 1136 1099 l 25
 863 -213 l 25
EndSplineSet
EndChar

StartChar: shchacyrillic
Encoding: 1097 1097 353
Width: 1229
VWidth: 2334
GlyphClass: 2
Flags: MW
LayerCount: 2
Back
SplineSet
99 1024 m 1
 1328 1024 l 1
 1046 -342 l 1
 -183 -342 l 1
 99 1024 l 1
EndSplineSet
Fore
SplineSet
330 1124 m 25
 153 264 l 18
 131 158 198 80 288 80 c 10
 301 80 l 18
 403 80 556 253 582 378 c 10
 737 1124 l 25
 559 264 l 18
 540 170 588 80 686 80 c 10
 700 80 l 18
 810 80 962 254 987 378 c 10
 1139 1124 l 25
 955 221 l 17
 994 186 1010 148 1011 111 c 3
 1005 -127 761 -221 746 -228 c 8
EndSplineSet
EndChar

StartChar: hardsigncyrillic
Encoding: 1098 1098 354
Width: 1229
VWidth: 1947
GlyphClass: 2
Flags: MW
LayerCount: 2
Back
SplineSet
188 1023 m 5
 1330 1023 l 1
 1105 -60 l 1
 -124 -60 l 5
 -56 265 l 5
 180 267 l 5
 243 568 l 5
 94 568 l 5
 188 1023 l 5
EndSplineSet
Fore
SplineSet
427 563 m 25
 670 563 l 18
 852 563 985 492 960 368 c 2
 950 324 l 2
 924 198 758 105 575 105 c 10
 332 105 l 25
 501 918 l 25
 315 918 l 25
 8 466 l 25
EndSplineSet
EndChar

StartChar: yericyrillic
Encoding: 1099 1099 355
Width: 1229
VWidth: 1947
GlyphClass: 2
Flags: MW
LayerCount: 2
Back
SplineSet
102 1024 m 1
 1331 1024 l 1
 1117 0 l 1
 -112 0 l 1
 102 1024 l 1
EndSplineSet
Fore
SplineSet
888 -100 m 25
 1137 1123 l 25
327 1123 m 25
 121 105 l 25
 311 105 l 18
 494 105 669 198 695 324 c 2
 703 359 l 2
 728 483 603 558 405 558 c 10
 215 558 l 25
EndSplineSet
EndChar

StartChar: softsigncyrillic
Encoding: 1100 1100 356
Width: 1229
VWidth: 1947
GlyphClass: 2
Flags: MW
LayerCount: 2
Back
SplineSet
108 1047 m 5
 1337 1047 l 5
 1117 0 l 1
 -112 0 l 1
 108 1047 l 5
EndSplineSet
Fore
SplineSet
367 1175 m 25
 146 105 l 25
 538 105 l 18
 721 105 924 198 950 324 c 2
 958 359 l 2
 983 483 830 558 632 558 c 10
 240 558 l 25
EndSplineSet
EndChar

StartChar: ereversedcyrillic
Encoding: 1101 1101 357
Width: 1229
VWidth: 1947
GlyphClass: 2
Flags: MW
LayerCount: 2
Back
SplineSet
105 1047 m 1
 1334 1047 l 1
 1111 -33 l 1
 -118 -33 l 1
 -42 335 l 1
 387 352 l 5
 455 681 l 5
 33 700 l 1
 105 1047 l 1
EndSplineSet
Fore
SplineSet
287 512 m 25
 968 512 l 25
296 780 m 1
 360 879 481 943 668 943 c 10
 739 943 l 18
 933 943 1029 800 986 592 c 10
 956 452 l 18
 913 242 723 80 560 80 c 10
 488 80 l 18
 304 80 213 144 186 239 c 1
EndSplineSet
EndChar

StartChar: iucyrillic
Encoding: 1102 1102 358
Width: 1229
VWidth: 1947
GlyphClass: 2
Flags: W
HStem: 50 923<600.62 892.008>
VStem: 469 555<212.969 810.98>
LayerCount: 2
Back
SplineSet
102 1024 m 1
 479 1024 l 1
 497 1051 l 1
 1336 1051 l 1
 1111 -33 l 1
 306 -33 l 1
 291 0 l 1
 -112 0 l 1
 102 1024 l 1
EndSplineSet
Fore
SplineSet
850 944 m 2
 1031 944 1061 739 1019 532 c 2
 1012 499 l 2
 975 319 859 80 676 80 c 2
 652 80 l 2
 473 80 460 317 498 496 c 2
 505 529 l 2
 548 736 653 944 837 944 c 2
 850 944 l 2
215 512 m 25
 494 512 l 25
335 1143 m 25
 56 -201 l 25
EndSplineSet
EndChar

StartChar: iacyrillic
Encoding: 1103 1103 359
Width: 1229
VWidth: 1947
GlyphClass: 2
Flags: W
LayerCount: 2
Back
SplineSet
105 1047 m 1
 1334 1047 l 1
 1117 0 l 1
 515 0 l 1
 482 -93 l 1
 -131 -93 l 1
 105 1047 l 1
EndSplineSet
Fore
SplineSet
139 75 m 25
 617 473 l 25
853 -138 m 25
 1074 918 l 25
 666 918 l 18
 482 918 301 854 275 728 c 2
 266 681 l 2
 240 558 328 473 572 473 c 10
 981 473 l 25
EndSplineSet
EndChar

StartChar: ecyrillic
Encoding: 1108 1108 362
Width: 1229
VWidth: 1947
GlyphClass: 2
Flags: W
LayerCount: 2
Back
SplineSet
108 1047 m 1
 1337 1047 l 1
 1269 723 l 1
 850 709 l 5
 769 321 l 5
 1181 304 l 1
 1113 -25 l 1
 -116 -25 l 1
 108 1047 l 1
EndSplineSet
Fore
SplineSet
956 512 m 25
 255 512 l 25
1048 780 m 1
 1024 879 921 943 734 943 c 10
 673 943 l 18
 448 943 310 781 266 573 c 10
 244 461 l 18
 204 271 260 80 494 80 c 10
 555 80 l 18
 740 80 867 144 933 239 c 1
EndSplineSet
EndChar

StartChar: numero
Encoding: 8470 8470 372
Width: 1229
VWidth: 1947
Flags: MW
LayerCount: 2
Back
SplineSet
181.79 1400 m 1
 1410.79 1400 l 1
 1113.21 0 l 1
 -115.79 0 l 1
 181.79 1400 l 1
EndSplineSet
Fore
SplineSet
1090.39 1257 m 3
 1180.44 1257 1202.91 1123 1159.55 919 c 0
 1115.76 713 1029.29 546 939.267 546 c 3
 853.243 546 833.764 713 877.55 919 c 0
 920.911 1123 1011.88 1257 1090.39 1257 c 3
4.20996 -110 m 25
 322.853 1405 l 25
 434.147 -5 l 25
 752.79 1500 l 25
EndSplineSet
EndChar

StartChar: caroncomb
Encoding: 780 780 377
Width: 1229
VWidth: 1947
Flags: MW
LayerCount: 2
Back
SplineSet
346 1422 m 5
 411 1736 l 5
 1318 1736 l 5
 1254 1422 l 5
 346 1422 l 5
EndSplineSet
Fore
SplineSet
602 1600 m 25
 808 1460 l 25
 1072 1600 l 25
EndSplineSet
EndChar

StartChar: gravecomb
Encoding: 768 768 379
Width: 1229
VWidth: 2334
Flags: MW
LayerCount: 2
Fore
SplineSet
755 1647 m 29
 894 1438 l 29
EndSplineSet
EndChar

StartChar: acutecomb
Encoding: 769 769 380
Width: 1229
VWidth: 2334
Flags: MW
LayerCount: 2
Fore
SplineSet
929 1647 m 29
 702 1438 l 29
EndSplineSet
EndChar

StartChar: tildecomb
Encoding: 771 771 381
Width: 1229
VWidth: 1947
Flags: MW
LayerCount: 2
Fore
SplineSet
558 1502 m 17
 579 1528 l 2
 616 1574 681 1612 713 1612 c 10
 727 1612 l 18
 760 1612 806 1595 822 1576 c 2
 837 1559 l 2
 852 1539 899 1522 931 1522 c 10
 947 1522 l 18
 977 1522 1045 1557 1084 1608 c 2
 1101 1632 l 9
EndSplineSet
EndChar

StartChar: hookabovecomb
Encoding: 777 777 382
Width: 1229
VWidth: 1947
Flags: MW
LayerCount: 2
Back
SplineSet
146 1244 m 5
 248 1732 l 1
 1478 1732 l 1
 1376 1244 l 5
 146 1244 l 5
EndSplineSet
Fore
SplineSet
749 1143 m 1
 794 1353 l 1
 901 1353 1005 1408 1006 1514 c 3
 1007 1584 921 1606 855 1606 c 11
 776 1606 723 1590 658 1549 c 9
EndSplineSet
EndChar

StartChar: dotbelowcomb
Encoding: 803 803 383
Width: 1229
VWidth: 2334
Flags: MW
HStem: -355 204<285.294 451.75>
VStem: 267 204<-336.089 -169.911>
LayerCount: 2
Fore
SplineSet
352 -253 m 31
 353 -197 395 -151 447 -151 c 31
 499 -151 542 -197 541 -253 c 31
 540 -309 496 -355 444 -355 c 31
 392 -355 352 -309 352 -253 c 31
EndSplineSet
EndChar

StartChar: commaturnedabovecmb
Encoding: 786 786 396
Width: 1229
VWidth: 1947
Flags: MW
LayerCount: 2
Back
SplineSet
-234 -585 m 1
 -108 23 l 5
 1122 23 l 5
 996 -585 l 1
 -234 -585 l 1
EndSplineSet
Fore
SplineSet
565 170 m 17
 506 -112 l 1
 619 -112 661 -176 660 -239 c 3
 659 -339 556 -411 455 -411 c 27
 383 -411 325 -379 286 -334 c 9
EndSplineSet
EndChar

StartChar: Hbar
Encoding: 294 294 400
Width: 1229
VWidth: 1947
Flags: W
LayerCount: 2
Back
SplineSet
-32 0 m 1
 260 1400 l 1
 1329 1400 l 5
 1037 0 l 5
 -32 0 l 1
EndSplineSet
Fore
SplineSet
129 1156 m 25
 1398 1156 l 25
354 717 m 25
 951 717 l 25
1125 1539 m 25
 781 -100 l 25
528 1539 m 25
 185 -100 l 25
EndSplineSet
EndChar

StartChar: hbar
Encoding: 295 295 401
Width: 1229
VWidth: 1947
Flags: W
LayerCount: 2
Back
SplineSet
-42 0 m 1
 250 1400 l 1
 836 1400 l 1
 772 1094 l 1
 1343 1083 l 1
 1117 0 l 1
 -42 0 l 1
EndSplineSet
Fore
SplineSet
110 1255 m 25
 930 1255 l 25
855 -132 m 25
 1022 668 l 18
 1057 834 947 944 749 944 c 10
 726 944 l 18
 512 944 340 679 314 554 c 10
 170 -132 l 25
 514 1512 l 25
EndSplineSet
EndChar

StartChar: IJ
Encoding: 306 306 410
Width: 1229
VWidth: 1947
Flags: W
LayerCount: 2
Back
SplineSet
-37 -25 m 1
 260 1400 l 1
 1329 1400 l 1
 1086 234 l 1
 665 223 l 1
 616 -25 l 1
 -37 -25 l 1
EndSplineSet
Fore
SplineSet
537 351 m 9
 641 351 l 18
 727 351 817 432 850 592 c 10
 996 1295 l 25
-159 106 m 25
 784 106 l 25
88 1295 m 25
 1427 1295 l 1
550 1296 m 1
 303 106 l 9
EndSplineSet
EndChar

StartChar: Tbar
Encoding: 358 358 430
Width: 1229
VWidth: 1947
Flags: W
LayerCount: 2
Back
SplineSet
18 0 m 1
 310 1400 l 1
 1279 1400 l 5
 987 0 l 5
 18 0 l 1
EndSplineSet
Fore
SplineSet
5 557 m 25
 1224 557 l 25
478 -123 m 25
 774 1295 l 25
158 1295 m 25
 1377 1295 l 25
EndSplineSet
EndChar

StartChar: tbar
Encoding: 359 359 431
Width: 1229
VWidth: 1947
Flags: W
HStem: -19 209<493.818 713.488> 522 130<73.8504 844.924> 839 182<76 251 473 761>
VStem: 74 771<522 652> 228 216<235.871 833.119> 251 215<420.546 839> 285 214<1094 1308>
DStem2: 265 1021 473 1021 0.0695178 0.997581<14.4597 287.696>
LayerCount: 2
Back
SplineSet
363 1425 m 1
 1084 1425 l 1
 941 731 l 1
 1136 717 l 1
 969 -84 l 1
 -0 -84 l 1
 177 765 l 1
 229 784 l 1
 363 1425 l 1
EndSplineSet
Fore
SplineSet
893 231 m 1
 850 164 755 80 637 80 c 10
 614 80 l 18
 480 80 389 188 416 314 c 2
 419 330 l 9
 714 1506 l 9
95 904 m 25
 1125 904 l 25
-5 557 m 25
 1234 557 l 25
EndSplineSet
EndChar

StartChar: A
Encoding: 65 65 461
Width: 1229
VWidth: 1708
Flags: MW
LayerCount: 2
Back
SplineSet
-113 0 m 5
 184 1425 l 5
 1414 1425 l 5
 1117 0 l 5
 -113 0 l 5
EndSplineSet
Fore
SplineSet
271 338 m 25
 879 338 l 25
1 -141 m 25
 780 1327 l 25
 951 -126 l 25
EndSplineSet
EndChar

StartChar: Lambda
Encoding: 923 923 462
Width: 1229
VWidth: 1708
Flags: MW
LayerCount: 2
Back
SplineSet
-112 0 m 1
 185 1425 l 1
 1414 1425 l 1
 1117 0 l 1
 -112 0 l 1
EndSplineSet
Fore
SplineSet
11 -105 m 25
 788 1362 l 25
 946 -114 l 25
EndSplineSet
EndChar

StartChar: Delta
Encoding: 916 916 463
Width: 1229
VWidth: 1708
Flags: MW
LayerCount: 2
Back
SplineSet
-112 0 m 1
 185 1425 l 1
 1414 1425 l 1
 1117 0 l 1
 -112 0 l 1
EndSplineSet
Fore
SplineSet
905 106 m 9
 788 1362 l 17
 146 105 l 1
 905 106 l 9
EndSplineSet
EndChar

StartChar: Theta
Encoding: 920 920 464
Width: 1229
VWidth: 1947
Flags: MW
LayerCount: 2
Fore
SplineSet
787 1320 m 2
 1039 1320 1103 1059 1039 748 c 2
 1025 684 l 2
 964 390 798 80 530 80 c 2
 514 80 l 2
 246 80 205 390 266 684 c 2
 279 746 l 2
 345 1060 509 1320 771 1320 c 2
 787 1320 l 2
536 687 m 17
 623 687 673 687 760 687 c 9
EndSplineSet
EndChar

StartChar: Xi
Encoding: 926 926 465
Width: 1229
VWidth: 1708
Flags: W
LayerCount: 2
Back
SplineSet
-129 -81 m 1
 -40 349 l 1
 1190 349 l 1
 1101 -81 l 1
 -129 -81 l 1
446 564 m 1
 503 812 l 1
 852 812 l 5
 795 564 l 5
 446 564 l 1
106 1048 m 1
 192 1464 l 1
 1422 1464 l 1
 1336 1048 l 1
 106 1048 l 1
EndSplineSet
Fore
SplineSet
214 438 m 25
 146 105 l 25
 905 105 l 25
 973 438 l 25
362 687 m 25
 943 687 l 25
314 918 m 25
 393 1295 l 25
 1152 1295 l 25
 1073 918 l 25
EndSplineSet
EndChar

StartChar: Sigma
Encoding: 931 931 468
Width: 1229
VWidth: 1947
Flags: MW
LayerCount: 2
Back
SplineSet
315 1425 m 1
 1284 1425 l 5
 982 -25 l 5
 13 -25 l 1
 315 1425 l 1
EndSplineSet
Fore
SplineSet
1075 104 m 1
 93 104 l 1
 683 719 l 1
 334 1295 l 1
 1318 1295 l 1
EndSplineSet
EndChar

StartChar: Psi
Encoding: 936 936 473
Width: 1229
VWidth: 1947
Flags: MW
LayerCount: 2
Back
SplineSet
-117 -25 m 1
 163 1320 l 1
 558 1320 l 1
 596 1425 l 1
 1018 1425 l 1
 1006 1320 l 5
 1392 1320 l 5
 1113 -25 l 1
 -117 -25 l 1
EndSplineSet
Fore
SplineSet
1191 1440 m 25
 1052 760 l 18
 1027 636 917 512 768 512 c 10
 455 512 l 18
 321 512 246 628 273 760 c 10
 412 1440 l 25
818 1515 m 25
 470 -159 l 25
EndSplineSet
EndChar

StartChar: Omega
Encoding: 937 937 474
Width: 1229
VWidth: 1947
Flags: MW
LayerCount: 2
Back
SplineSet
17 0 m 1
 72 262 l 1
 -54 282 l 1
 184 1425 l 1
 1414 1425 l 1
 1174 273 l 1
 1040 254 l 5
 987 0 l 5
 17 0 l 1
EndSplineSet
Fore
SplineSet
-59 105 m 1
 368 105 l 0
 416 337 l 1
 270 396 249 606 286 787 c 2
 297 838 l 2
 352 1100 512 1321 771 1321 c 2
 787 1321 l 2
 1042 1321 1112 1099 1057 840 c 2
 1046 787 l 2
 1009 606 894 385 731 337 c 1
 683 105 l 1
 1120 105 l 25
EndSplineSet
EndChar

StartChar: alpha
Encoding: 945 945 483
Width: 1229
VWidth: 1947
Flags: MW
LayerCount: 2
Fore
SplineSet
1132 1024 m 1
 681 260 l 2
 634 179 558 80 428 80 c 2
 411 80 l 2
 270 80 177 259 227 497 c 2
 233 528 l 2
 283 764 450 944 590 944 c 2
 608 944 l 2
 754 944 773 843 786 764 c 2
 923 0 l 17
EndSplineSet
EndChar

StartChar: beta
Encoding: 946 946 484
Width: 1229
VWidth: 2334
Flags: MW
LayerCount: 2
Back
SplineSet
-180 -324 m 5
 184 1425 l 1
 1414 1425 l 1
 1050 -324 l 5
 -180 -324 l 5
EndSplineSet
Fore
SplineSet
18 -507 m 25
 253 621 l 18
 288 788 447 944 691 944 c 10
 714 944 l 18
 954 944 1016 858 995 753 c 2
 992 740 l 2
 969 633 853 547 622 547 c 2
 484 547 l 1
 667 547 l 2
 910 547 979 462 953 338 c 10
 949 314 l 18
 923 189 795 80 553 80 c 10
 502 80 l 18
 258 80 171 226 197 352 c 10
EndSplineSet
EndChar

StartChar: gamma
Encoding: 947 947 485
Width: 1229
VWidth: 2334
Flags: MW
LayerCount: 2
Back
SplineSet
102 1024 m 1
 1328 1024 l 5
 1035 -386 l 5
 -191 -386 l 1
 102 1024 l 1
EndSplineSet
Fore
SplineSet
383 -579 m 25
 521 80 l 25
303 1099 m 25
 521 80 l 25
 1160 1098 l 25
EndSplineSet
EndChar

StartChar: delta
Encoding: 948 948 486
Width: 1229
VWidth: 2334
Flags: MW
LayerCount: 2
Back
SplineSet
356 1455 m 1
 1420 1455 l 1
 1107 -51 l 1
 -122 -51 l 1
 116 1091 l 1
 281 1091 l 1
 356 1455 l 1
EndSplineSet
Fore
SplineSet
1152 1295 m 25
 354 1295 l 25
 909 885 l 25
239 554 m 10
 224 480 l 18
 180 270 305 80 510 80 c 10
 533 80 l 18
 777 80 939 270 983 480 c 10
 998 554 l 18
 1042 763 956 944 712 944 c 10
 689 944 l 18
 445 944 283 763 239 554 c 10
EndSplineSet
EndChar

StartChar: epsilon
Encoding: 949 949 487
Width: 1229
VWidth: 2334
Flags: W
LayerCount: 2
Back
SplineSet
-118 -25 m 1
 184 1425 l 1
 1414 1425 l 1
 1262 695 l 1
 862 681 l 5
 793 354 l 5
 1187 338 l 1
 1112 -25 l 1
 -118 -25 l 1
EndSplineSet
Fore
SplineSet
1022 855 m 1
 985 901 886 944 741 944 c 10
 643 944 l 18
 399 944 305 873 279 747 c 3
 258 646 304 532 561 532 c 10
 980 532 l 25
 561 532 l 18
 304 532 208 405 191 325 c 10
 189 310 l 18
 161 176 219 80 463 80 c 10
 561 80 l 18
 716 80 806 125 880 179 c 1
EndSplineSet
EndChar

StartChar: zeta
Encoding: 950 950 488
Width: 1229
VWidth: 2334
Flags: MW
LayerCount: 2
Back
SplineSet
177 1385 m 1
 1275 1385 l 1
 1093 512 l 1
 1224 512 l 1
 1032 -411 l 1
 417 -411 l 5
 476 -123 l 5
 -133 -105 l 1
 177 1385 l 1
EndSplineSet
Fore
SplineSet
602 1047 m 17
 638 1024 l 2
 730 927 911 919 1045 919 c 2
 1117 919 l 1
 1077 895 l 2
 1001 826 875 765 789 735 c 2
 495 635 l 2
 364 591 222 471 201 368 c 10
 197 350 l 18
 162 181 219 80 463 80 c 10
 616 80 l 18
 814 80 884 5 863 -94 c 2
 858 -116 l 2
 835 -230 700 -294 555 -294 c 2
 286 -294 l 9
EndSplineSet
EndChar

StartChar: eta
Encoding: 951 951 489
Width: 1229
VWidth: 2334
Flags: MW
LayerCount: 2
Back
SplineSet
-113 0 m 1
 106 1048 l 1
 1336 1048 l 1
 1037 -387 l 1
 432 -387 l 1
 491 0 l 1
 -113 0 l 1
EndSplineSet
Fore
SplineSet
769 -543 m 25
 1030 705 l 18
 1064 872 956 944 712 944 c 10
 689 944 l 18
 475 944 273 716 247 592 c 10
 83 -192 l 25
 355 1116 l 25
EndSplineSet
EndChar

StartChar: theta
Encoding: 952 952 490
Width: 1229
VWidth: 1947
Flags: MW
LayerCount: 2
Fore
SplineSet
724 943 m 2
 953 943 1045 780 999 559 c 2
 981 473 l 2
 934 246 776 80 541 80 c 2
 494 80 l 2
 271 80 176 250 222 474 c 2
 240 558 l 2
 285 779 456 943 672 943 c 2
 724 943 l 2
231 512 m 17
 360 512 856 512 984 512 c 9
EndSplineSet
EndChar

StartChar: lambda
Encoding: 955 955 491
Width: 1229
VWidth: 2334
Flags: MW
LayerCount: 2
Back
SplineSet
-113 0 m 1
 185 1425 l 1
 1414 1425 l 1
 1116 0 l 1
 -113 0 l 1
EndSplineSet
Fore
SplineSet
614 1527 m 25
 701 945 l 25
-16 -162 m 25
 701 945 l 25
 930 -99 l 25
EndSplineSet
EndChar

StartChar: xi
Encoding: 958 958 494
Width: 1229
VWidth: 2334
Flags: MW
LayerCount: 2
Back
SplineSet
185 1425 m 1
 1042 1425 l 1
 909 784 l 1
 921 784 l 5
 820 301 l 5
 1178 287 l 1
 1032 -410 l 1
 417 -410 l 1
 478 -114 l 1
 -132 -99 l 1
 185 1425 l 1
EndSplineSet
Fore
SplineSet
613 1231 m 17
 626 1203 l 2
 647 1157 755 1100 907 1078 c 2
 943 1073 l 1
 907 1053 l 2
 872 1034 794 997 716 973 c 2
 568 936 l 2
 446 914 304 863 279 740 c 2
 273 715 l 2
 253 619 362 513 604 513 c 10
 1009 513 l 25
 604 513 l 18
 347 513 210 415 187 303 c 10
 184 287 l 18
 154 147 238 80 463 80 c 10
 616 80 l 18
 814 80 884 5 863 -94 c 2
 858 -116 l 2
 835 -230 700 -294 555 -294 c 2
 314 -294 l 9
EndSplineSet
EndChar

StartChar: pi
Encoding: 960 960 496
Width: 1229
VWidth: 2334
Flags: MW
LayerCount: 2
Back
SplineSet
235 1320 m 1
 1321 1320 l 1
 1046 0 l 1
 -40 0 l 1
 235 1320 l 1
EndSplineSet
Fore
SplineSet
3 766 m 17
 81 834 241 919 467 919 c 2
 925 919 l 2
 1162 919 1333 1038 1398 1113 c 9
974 919 m 25
 835 248 l 18
 805 105 968 -96 1081 -142 c 9
-136 -142 m 17
 44 -93 224 105 254 248 c 10
 392 910 l 25
EndSplineSet
EndChar

StartChar: rho
Encoding: 961 961 497
Width: 1229
VWidth: 2334
Flags: MW
LayerCount: 2
Back
SplineSet
-192 -384 m 1
 105 1047 l 1
 1335 1047 l 1
 1038 -384 l 1
 -192 -384 l 1
EndSplineSet
Fore
SplineSet
14 -525 m 25
 230 514 l 25
979 461 m 10
 1006 592 l 18
 1050 802 917 944 712 944 c 10
 689 944 l 18
 445 944 291 802 247 592 c 10
 220 461 l 18
 177 253 265 80 510 80 c 10
 533 80 l 18
 777 80 936 253 979 461 c 10
EndSplineSet
EndChar

StartChar: sigmafinal
Encoding: 962 962 498
Width: 1229
VWidth: 2334
Flags: MW
LayerCount: 2
Back
SplineSet
419 -410 m 5
 478 -129 l 5
 -137 -108 l 1
 112 1075 l 1
 1342 1075 l 1
 1029 -410 l 1
 419 -410 l 5
EndSplineSet
Fore
SplineSet
1094 838 m 9
 1034 874 l 18
 995 903 895 943 827 943 c 2
 763 943 l 2
 501 943 282 757 241 564 c 10
 222 471 l 18
 172 229 279 80 463 80 c 10
 616 80 l 18
 814 80 884 5 863 -94 c 2
 858 -116 l 2
 835 -230 700 -294 555 -294 c 2
 314 -294 l 9
EndSplineSet
EndChar

StartChar: sigma
Encoding: 963 963 499
Width: 1229
VWidth: 1947
Flags: MW
LayerCount: 2
Back
SplineSet
-122 -51 m 1
 184 1425 l 1
 1334 1425 l 5
 1028 -51 l 5
 -122 -51 l 1
EndSplineSet
Fore
SplineSet
722 943 m 2
 939 943 1045 780 999 559 c 2
 985 492 l 2
 938 265 759 80 540 80 c 2
 492 80 l 2
 274 80 179 269 227 493 c 2
 240 558 l 2
 285 779 453 943 670 943 c 2
 722 943 l 2
1345 904 m 25
 884 903 l 25
EndSplineSet
EndChar

StartChar: tau
Encoding: 964 964 500
Width: 1229
VWidth: 2334
Flags: MW
LayerCount: 2
Back
SplineSet
293 1320 m 1
 1262 1320 l 1
 982 -25 l 5
 13 -25 l 5
 293 1320 l 1
EndSplineSet
Fore
SplineSet
-15 682 m 17
 76 767 354 919 513 919 c 2
 869 919 l 2
 1039 919 1359 1161 1422 1230 c 9
108 -142 m 17
 237 -138 535 148 582 369 c 2
 696 919 l 9
EndSplineSet
EndChar

StartChar: upsilon
Encoding: 965 965 501
Width: 1229
VWidth: 1947
Flags: MW
LayerCount: 2
Back
SplineSet
-122 -51 m 5
 103 1024 l 5
 540 1024 l 5
 554 1047 l 5
 1335 1047 l 5
 1108 -51 l 5
 -122 -51 l 5
EndSplineSet
Fore
SplineSet
632 945 m 0
 750 945 l 2
 986 945 1043 771 999 559 c 2
 982 478 l 2
 935 255 745 80 535 80 c 2
 507 80 l 2
 236 80 184 290 230 513 c 2
 362 1148 l 1
EndSplineSet
EndChar

StartChar: phi
Encoding: 966 966 502
Width: 1229
VWidth: 1947
Flags: W
LayerCount: 2
Back
SplineSet
-192 -384 m 1
 85 945 l 5
 523 945 l 5
 554 1047 l 1
 1335 1047 l 1
 1038 -384 l 1
 -192 -384 l 1
EndSplineSet
Fore
SplineSet
396 -513 m 1
 654 719 l 2
 683 855 767 944 853 944 c 2
 876 944 l 2
 997 944 1043 767 998 553 c 2
 988 505 l 2
 941 284 806 80 557 80 c 2
 486 80 l 2
 222 80 183 285 228 501 c 2
 354 1110 l 1
EndSplineSet
EndChar

StartChar: chi
Encoding: 967 967 503
Width: 1229
VWidth: 2062
Flags: MW
LayerCount: 2
Back
SplineSet
100 1023 m 1
 1328 1023 l 1
 1035 -387 l 1
 -193 -387 l 1
 100 1023 l 1
EndSplineSet
Fore
SplineSet
1355 1298 m 25
 -227 -690 l 17
-9 1250 m 1
 59 1242 178 1165 233 1099 c 2
 388 915 l 2
 451 848 507 696 527 558 c 2
 583 181 l 2
 601 -28 657 -240 734 -319 c 2
 910 -456 l 2
 928 -473 1035 -517 1115 -543 c 9
EndSplineSet
EndChar

StartChar: psi
Encoding: 968 968 504
Width: 1229
VWidth: 1947
Flags: MW
LayerCount: 2
Back
SplineSet
-192 -384 m 5
 85 945 l 1
 523 945 l 1
 554 1047 l 1
 906 1047 l 1
 899 945 l 1
 1314 945 l 1
 1038 -384 l 5
 -192 -384 l 5
EndSplineSet
Fore
SplineSet
395 -519 m 1
 742 1148 l 17
1105 1080 m 0
 989 513 l 2
 953 333 784 80 628 80 c 2
 412 80 l 2
 254 80 194 334 230 513 c 2
 346 1080 l 1
EndSplineSet
EndChar

StartChar: omega
Encoding: 969 969 505
Width: 1229
VWidth: 2334
Flags: MW
LayerCount: 2
Back
SplineSet
-136 -114 m 1
 100 1024 l 1
 1330 1024 l 1
 1094 -114 l 1
 -136 -114 l 1
EndSplineSet
Fore
SplineSet
577 1152 m 17
 389 945 l 2
 347 903 289 794 273 719 c 10
 196 349 l 18
 170 220 210 80 314 80 c 10
 336 80 l 18
 468 80 540 170 566 292 c 10
 654 717 l 25
 566 292 l 18
 540 170 586 80 697 80 c 10
 722 80 l 18
 856 80 929 220 956 350 c 10
 1032 719 l 18
 1048 795 1047 895 1010 948 c 2
 892 1151 l 9
EndSplineSet
EndChar

StartChar: dieresiscmb
Encoding: 776 776 508
Width: 1229
VWidth: 1947
Flags: MW
HStem: 1285 198<450.719 608.283 827.928 984.598>
VStem: 433 193<1302.19 1466.9> 811 191<1302.46 1467.07>
LayerCount: 2
Fore
SplineSet
709 1380 m 0
 703 1302 663 1259 614 1259 c 0
 566 1259 524 1300 530 1380 c 0
 533 1446 577 1483 622 1483 c 0
 673 1483 711 1438 709 1380 c 0
1056 1380 m 0
 1051 1297 1007 1259 963 1259 c 0
 916 1259 874 1301 880 1380 c 0
 882 1442 924 1483 971 1483 c 0
 1015 1483 1059 1446 1056 1380 c 0
EndSplineSet
EndChar

StartChar: Djecyrillic
Encoding: 1026 1026 512
Width: 1229
VWidth: 2334
Flags: MW
LayerCount: 2
Back
SplineSet
12 0 m 5
 307 1400 l 5
 1276 1400 l 5
 1210 1083 l 5
 1339 1067 l 5
 1108 -48 l 5
 594 -48 l 5
 655 240 l 5
 515 237 l 5
 457 0 l 5
 12 0 l 5
EndSplineSet
Fore
SplineSet
558 105 m 25
 722 105 l 18
 876 105 943 293 964 395 c 2
 1015 640 l 2
 1042 768 982 877 848 877 c 10
 823 877 l 18
 720 877 501 709 440 424 c 10
 319 -144 l 25
 622 1295 l 25
168 1295 m 25
 1377 1295 l 25
EndSplineSet
EndChar

StartChar: Ljecyrillic
Encoding: 1033 1033 513
Width: 1229
VWidth: 1947
Flags: MW
LayerCount: 2
Back
SplineSet
124 1425 m 5
 1477 1425 l 5
 1160 -100 l 5
 260 -100 l 5
 280 0 l 5
 -173 0 l 5
 124 1425 l 5
EndSplineSet
Fore
SplineSet
18 -126 m 25
 440 1071 l 18
 481 1194 560 1295 646 1295 c 10
 773 1295 l 1
 526 105 l 1
 642 105 l 2
 803 105 927 212 971 424 c 2
 986 497 l 2
 1021 665 954 778 782 778 c 2
 665 778 l 25
EndSplineSet
EndChar

StartChar: Njecyrillic
Encoding: 1034 1034 514
Width: 1229
VWidth: 1947
Flags: MW
LayerCount: 2
Back
SplineSet
-114 0 m 1
 179 1400 l 1
 1409 1400 l 1
 1113 -24 l 1
 334 -24 l 1
 321 0 l 1
 -114 0 l 1
EndSplineSet
Fore
SplineSet
435 1500 m 25
 94 -141 l 25
291 778 m 25
 791 778 l 2
 973 778 1021 665 986 497 c 2
 971 424 l 2
 936 258 825 105 651 105 c 2
 526 105 l 1
 815 1500 l 1
EndSplineSet
EndChar

StartChar: Tshecyrillic
Encoding: 1035 1035 515
Width: 1229
VWidth: 2334
Flags: MW
LayerCount: 2
Back
SplineSet
12 0 m 1
 307 1400 l 1
 1276 1400 l 1
 1210 1083 l 1
 1339 1067 l 1
 1119 0 l 1
 12 0 l 1
EndSplineSet
Fore
SplineSet
860 -108 m 25
 1033 724 l 18
 1060 852 982 944 848 944 c 10
 823 944 l 18
 721 944 499 813 433 499 c 10
 306 -108 l 25
 598 1295 l 25
188 1295 m 25
 1367 1295 l 25
EndSplineSet
EndChar

StartChar: Dzhecyrillic
Encoding: 1039 1039 516
Width: 1229
VWidth: 2334
Flags: MW
LayerCount: 2
Back
SplineSet
-193 -387 m 1
 180 1400 l 1
 1410 1400 l 1
 1037 -387 l 1
 -193 -387 l 1
EndSplineSet
Fore
SplineSet
527 106 m 25
 396 -513 l 25
440 1539 m 25
 146 105 l 25
 905 105 l 17
 1199 1539 l 9
EndSplineSet
EndChar

StartChar: djecyrillic
Encoding: 1106 1106 517
Width: 1229
VWidth: 2334
Flags: MW
LayerCount: 2
Back
SplineSet
313 1425 m 1
 996 1425 l 1
 923 1068 l 1
 1337 1059 l 1
 1029 -410 l 1
 110 -410 l 1
 514 0 l 1
 18 0 l 1
 313 1425 l 1
EndSplineSet
Fore
SplineSet
172 1169 m 25
 1072 1169 l 25
280 -228 m 1
 318 -271 385 -294 462 -294 c 10
 531 -294 l 18
 713 -294 860 -110 894 53 c 10
 989 513 l 18
 1024 680 1001 832 757 832 c 10
 713 832 l 18
 500 832 326 555 300 430 c 10
 190 -108 l 25
 528 1514 l 25
EndSplineSet
EndChar

StartChar: dzhecyrillic
Encoding: 1119 1119 519
Width: 1229
VWidth: 2334
Flags: MW
LayerCount: 2
Back
SplineSet
102 1024 m 1
 1331 1024 l 1
 1038 -381 l 1
 -191 -381 l 1
 102 1024 l 1
EndSplineSet
Fore
SplineSet
395 -519 m 25
 527 106 l 25
364 1159 m 25
 146 106 l 25
 905 106 l 25
 1123 1159 l 25
EndSplineSet
EndChar

StartChar: ljecyrillic
Encoding: 1113 1113 520
Width: 1229
VWidth: 1947
Flags: MW
LayerCount: 2
Back
SplineSet
106 1047 m 1
 1335 1047 l 1
 1117 0 l 1
 -112 0 l 1
 106 1047 l 1
EndSplineSet
Fore
SplineSet
54 -99 m 16
 284 608 l 2
 325 747 413 918 585 918 c 10
 695 918 l 25
 525 105 l 25
 669 105 l 18
 797 105 924 198 950 324 c 2
 960 368 l 2
 979 462 891 558 763 558 c 10
 619 558 l 25
EndSplineSet
EndChar

StartChar: njecyrillic
Encoding: 1114 1114 521
Width: 1229
VWidth: 1947
Flags: MW
LayerCount: 2
Back
SplineSet
102 1024 m 5
 1331 1024 l 5
 1117 0 l 5
 -112 0 l 5
 102 1024 l 5
EndSplineSet
Fore
SplineSet
357 1124 m 25
 88 -171 l 25
738 1124 m 25
 527 105 l 25
 660 105 l 18
 787 105 923 194 949 320 c 2
 959 365 l 2
 978 459 881 558 754 558 c 10
 621 558 l 25
 240 558 l 25
EndSplineSet
EndChar

StartChar: apostrophereverse
Encoding: 8219 8219 523
Width: 1229
VWidth: 1708
Flags: W
VStem: 636 150<1047.01 1257>
LayerCount: 2
Fore
SplineSet
838.186 1177.58 m 1
 874.11 1195.66 909 1239 909 1295 c 3
 909 1366 853 1425 779 1425 c 3
 665 1425 636 1304 636 1210 c 3
 636 1113 674.63 986.103 846.641 908.913 c 1
 882.527 977.223 l 1
 834.261 1006.97 786 1057 786 1105 c 3
 786 1134 803.411 1157.88 838.186 1177.58 c 1
EndSplineSet
EndChar

StartChar: arrowleft
Encoding: 8592 8592 526
Width: 1229
VWidth: 1708
Flags: W
LayerCount: 2
Fore
SplineSet
1076 -99 m 5
 204 -99 l 5
 204 1256 l 5
 1076 1256 l 5
 1076 -99 l 5
615 992 m 29
 244 600 l 29
 615 208 l 29
244 600 m 29
 1026 600 l 29
EndSplineSet
EndChar

StartChar: arrowright
Encoding: 8594 8594 527
Width: 1229
VWidth: 1708
Flags: MW
LayerCount: 2
Fore
SplineSet
154 -99 m 1
 154 1256 l 1
 1026 1256 l 1
 1026 -99 l 1
 154 -99 l 1
615 992 m 25
 986 600 l 25
 615 208 l 25
986 600 m 25
 204 600 l 25
EndSplineSet
EndChar

StartChar: lthorizform
Encoding: 9472 9472 528
Width: 1229
Flags: W
LayerCount: 2
Fore
SplineSet
1229 523 m 1
 -0 523 l 1
EndSplineSet
EndChar

StartChar: ltvertform
Encoding: 9474 9474 529
Width: 1229
Flags: W
LayerCount: 2
Fore
SplineSet
635 1775 m 1
 597 -615 l 1
EndSplineSet
EndChar

StartChar: rightanglenw
Encoding: 9484 9484 530
Width: 1229
Flags: W
LayerCount: 2
Fore
SplineSet
597 -615 m 1
 615 523 l 1
 1229 523 l 1
EndSplineSet
EndChar

StartChar: rightanglene
Encoding: 9488 9488 531
Width: 1229
Flags: W
LayerCount: 2
Fore
SplineSet
597 -615 m 1
 615 523 l 1
 -0 523 l 1
EndSplineSet
EndChar

StartChar: rightanglesw
Encoding: 9492 9492 532
Width: 1229
Flags: W
LayerCount: 2
Fore
SplineSet
635 1775 m 5
 615 523 l 1
 1229 523 l 1
EndSplineSet
EndChar

StartChar: rightanglese
Encoding: 9496 9496 533
Width: 1229
Flags: W
LayerCount: 2
Fore
SplineSet
635 1775 m 5
 615 523 l 1
 -0 523 l 1
EndSplineSet
EndChar

StartChar: ltvertrightform
Encoding: 9500 9500 534
Width: 1229
Flags: W
LayerCount: 2
Fore
SplineSet
635 1775 m 5
 597 -615 l 1
1229 523 m 1
 615 523 l 1
EndSplineSet
EndChar

StartChar: ltvertleftform
Encoding: 9508 9508 535
Width: 1229
Flags: W
LayerCount: 2
Fore
SplineSet
635 1775 m 5
 597 -615 l 1
615 523 m 1
 -0 523 l 1
EndSplineSet
EndChar

StartChar: ltdnhorizform
Encoding: 9516 9516 536
Width: 1229
Flags: W
LayerCount: 2
Fore
SplineSet
615 523 m 1
 597 -615 l 1
1229 523 m 1
 -0 523 l 1
EndSplineSet
EndChar

StartChar: ltuphorizform
Encoding: 9524 9524 537
Width: 1229
Flags: W
LayerCount: 2
Fore
SplineSet
635 1775 m 5
 615 523 l 1
1229 523 m 1
 -0 523 l 1
EndSplineSet
EndChar

StartChar: ltverthorizform
Encoding: 9532 9532 538
Width: 1229
Flags: W
LayerCount: 2
Fore
SplineSet
635 1775 m 5
 597 -615 l 1
1229 523 m 1
 -0 523 l 1
EndSplineSet
EndChar

StartChar: horizdblbar
Encoding: 9552 9552 539
Width: 1229
Flags: W
LayerCount: 2
Fore
SplineSet
1232 374 m 1
 3 374 l 1
1227 701 m 1
 -2 701 l 1
EndSplineSet
EndChar

StartChar: vertdblbar
Encoding: 9553 9553 540
Width: 1229
Flags: W
LayerCount: 2
Fore
SplineSet
485 1775 m 5
 449 -615 l 1
783 1775 m 5
 745 -615 l 1
EndSplineSet
EndChar

StartChar: dnrtdblform
Encoding: 9554 9554 541
Width: 1229
Flags: W
LayerCount: 2
Fore
SplineSet
1232 374 m 1
 615 374 l 1
1227 701 m 1
 615 701 l 1
 597 -615 l 1
EndSplineSet
EndChar

StartChar: dndblrtform
Encoding: 9555 9555 542
Width: 1229
Flags: W
LayerCount: 2
Fore
SplineSet
449 -615 m 1
 467 523 l 1
 1229 523 l 1
763 523 m 1
 745 -615 l 1
EndSplineSet
EndChar

StartChar: dbldnrtform
Encoding: 9556 9556 543
Width: 1229
Flags: W
LayerCount: 2
Fore
SplineSet
1232 374 m 1
 763 374 l 1
 745 -615 l 1
1227 701 m 1
 467 701 l 1
 449 -615 l 1
EndSplineSet
EndChar

StartChar: dnleftdblform
Encoding: 9557 9557 544
Width: 1229
Flags: W
LayerCount: 2
Fore
SplineSet
615 374 m 1
 3 374 l 1
-2 701 m 1
 615 701 l 1
 597 -615 l 1
EndSplineSet
EndChar

StartChar: dndblleftform
Encoding: 9558 9558 545
Width: 1229
Flags: W
LayerCount: 2
Fore
SplineSet
467 523 m 1
 449 -615 l 1
745 -615 m 1
 763 523 l 1
 -0 523 l 1
EndSplineSet
EndChar

StartChar: dbldnleftform
Encoding: 9559 9559 546
Width: 1229
Flags: W
LayerCount: 2
Fore
SplineSet
3 374 m 1
 467 374 l 1
 449 -615 l 1
-2 701 m 1
 763 701 l 1
 745 -615 l 1
EndSplineSet
EndChar

StartChar: uprtdblform
Encoding: 9560 9560 547
Width: 1229
Flags: W
LayerCount: 2
Fore
SplineSet
1232 374 m 1
 615 374 l 1
 635 1775 l 5
1227 672 m 1
 615 672 l 1
EndSplineSet
EndChar

StartChar: updblrtform
Encoding: 9561 9561 548
Width: 1229
Flags: W
LayerCount: 2
Fore
SplineSet
485 1775 m 5
 467 523 l 1
 1229 523 l 1
783 1775 m 5
 763 523 l 1
EndSplineSet
EndChar

StartChar: dbluprtform
Encoding: 9562 9562 549
Width: 1229
Flags: W
LayerCount: 2
Fore
SplineSet
1232 374 m 1
 467 374 l 1
 485 1775 l 5
1227 701 m 1
 763 701 l 1
 783 1775 l 5
EndSplineSet
EndChar

StartChar: upleftdblform
Encoding: 9563 9563 550
Width: 1229
Flags: W
LayerCount: 2
Fore
SplineSet
3 374 m 1
 615 374 l 1
 635 1775 l 5
615 672 m 1
 -2 672 l 1
EndSplineSet
EndChar

StartChar: updblleftform
Encoding: 9564 9564 551
Width: 1229
Flags: W
LayerCount: 2
Fore
SplineSet
485 1775 m 5
 467 523 l 1
783 1775 m 5
 763 523 l 1
 -0 523 l 1
EndSplineSet
EndChar

StartChar: dblupleftform
Encoding: 9565 9565 552
Width: 1229
Flags: W
LayerCount: 2
Fore
SplineSet
3 374 m 1
 763 374 l 1
 783 1775 l 5
-2 701 m 1
 467 701 l 1
 485 1775 l 5
EndSplineSet
EndChar

StartChar: vertrtdblform
Encoding: 9566 9566 553
Width: 1229
Flags: W
LayerCount: 2
Fore
SplineSet
1232 374 m 1
 615 374 l 1
1227 672 m 1
 615 672 l 1
635 1775 m 5
 597 -615 l 1
EndSplineSet
EndChar

StartChar: vertdblrtform
Encoding: 9567 9567 554
Width: 1229
Flags: W
LayerCount: 2
Fore
SplineSet
485 1775 m 1
 449 -615 l 1
783 1775 m 1
 745 -615 l 1
1229 523 m 1
 763 523 l 1
EndSplineSet
EndChar

StartChar: dblvertrtform
Encoding: 9568 9568 555
Width: 1229
Flags: W
LayerCount: 2
Fore
SplineSet
1232 374 m 1
 763 374 l 1
 745 -615 l 1
1227 701 m 1
 763 701 l 1
 783 1775 l 5
485 1775 m 5
 449 -615 l 1
EndSplineSet
EndChar

StartChar: vertleftdblform
Encoding: 9569 9569 556
Width: 1229
Flags: W
LayerCount: 2
Fore
SplineSet
615 374 m 1
 3 374 l 1
615 672 m 1
 -2 672 l 1
635 1775 m 5
 597 -615 l 1
EndSplineSet
EndChar

StartChar: vertdblleftform
Encoding: 9570 9570 557
Width: 1229
Flags: W
LayerCount: 2
Fore
SplineSet
485 1775 m 5
 449 -615 l 1
783 1775 m 5
 745 -615 l 1
467 523 m 1
 -0 523 l 1
EndSplineSet
EndChar

StartChar: dblvertleftform
Encoding: 9571 9571 558
Width: 1229
Flags: W
LayerCount: 2
Fore
SplineSet
3 374 m 1
 467 374 l 1
 449 -615 l 1
-2 701 m 1
 467 701 l 1
 485 1775 l 5
783 1775 m 5
 745 -615 l 1
EndSplineSet
EndChar

StartChar: dnhorizdblform
Encoding: 9572 9572 559
Width: 1229
Flags: W
LayerCount: 2
Fore
SplineSet
1232 374 m 1
 3 374 l 1
1227 701 m 1
 -2 701 l 1
615 374 m 1
 597 -615 l 1
EndSplineSet
EndChar

StartChar: dndblhorizform
Encoding: 9573 9573 560
Width: 1229
Flags: W
LayerCount: 2
Fore
SplineSet
467 523 m 1
 449 -615 l 1
763 523 m 1
 745 -615 l 1
1229 523 m 1
 -0 523 l 1
EndSplineSet
EndChar

StartChar: dbldnhorizform
Encoding: 9574 9574 561
Width: 1229
Flags: W
LayerCount: 2
Fore
SplineSet
1232 374 m 1
 763 374 l 1
 745 -615 l 1
3 374 m 1
 467 374 l 1
 449 -615 l 1
1227 701 m 1
 -2 701 l 1
EndSplineSet
EndChar

StartChar: uphorizdblform
Encoding: 9575 9575 562
Width: 1229
Flags: W
LayerCount: 2
Fore
SplineSet
1232 374 m 1
 3 374 l 1
1227 701 m 1
 -2 701 l 1
635 1775 m 5
 615 701 l 1
EndSplineSet
EndChar

StartChar: updblhorizform
Encoding: 9576 9576 563
Width: 1229
Flags: W
LayerCount: 2
Fore
SplineSet
485 1775 m 5
 467 523 l 1
783 1775 m 5
 763 523 l 1
1229 523 m 1
 -0 523 l 1
EndSplineSet
EndChar

StartChar: dbluphorizform
Encoding: 9577 9577 564
Width: 1229
Flags: W
LayerCount: 2
Fore
SplineSet
1232 374 m 1
 3 374 l 1
1227 701 m 1
 763 701 l 1
 783 1775 l 5
-2 701 m 1
 467 701 l 1
 485 1775 l 5
EndSplineSet
EndChar

StartChar: verthorizdblform
Encoding: 9578 9578 565
Width: 1229
Flags: W
LayerCount: 2
Fore
SplineSet
1232 374 m 1
 3 374 l 1
1227 701 m 1
 -2 701 l 1
635 1775 m 1
 615 701 l 1
615 374 m 1
 597 -615 l 1
EndSplineSet
EndChar

StartChar: vertdblhorizform
Encoding: 9579 9579 566
Width: 1229
Flags: W
LayerCount: 2
Fore
SplineSet
485 1775 m 1
 449 -615 l 1
783 1775 m 1
 745 -615 l 1
1229 523 m 1
 763 523 l 1
467 523 m 1
 -0 523 l 1
EndSplineSet
EndChar

StartChar: dblverthorizform
Encoding: 9580 9580 567
Width: 1229
Flags: W
LayerCount: 2
Fore
SplineSet
1232 374 m 1
 763 374 l 1
 745 -615 l 1
3 374 m 1
 467 374 l 1
 449 -615 l 1
1227 701 m 1
 763 701 l 1
 783 1775 l 5
-2 701 m 1
 467 701 l 1
 485 1775 l 5
EndSplineSet
EndChar

StartChar: upblock
Encoding: 9600 9600 568
Width: 1229
Flags: W
VStem: -0 922<523 1775>
LayerCount: 2
Fore
SplineSet
1229 523 m 1
 -0 523 l 1
 0 1775 l 5
 1203 1775 l 5
 1229 523 l 1
EndSplineSet
EndChar

StartChar: dnblock
Encoding: 9604 9604 569
Width: 1229
Flags: W
HStem: -615 1138<0 922>
VStem: -0 922<-615 523>
LayerCount: 2
Fore
SplineSet
1229 -615 m 1
 29 -615 l 1
 -0 523 l 1
 1229 523 l 1
 1229 -615 l 1
EndSplineSet
EndChar

StartChar: block
Encoding: 9608 9608 570
Width: 1229
Flags: W
VStem: -0 922<-615 1775>
LayerCount: 2
Fore
SplineSet
29 -615 m 1
 0 1775 l 5
 1203 1775 l 5
 1229 -615 l 1
 29 -615 l 1
EndSplineSet
EndChar

StartChar: lfblock
Encoding: 9612 9612 571
Width: 1229
Flags: W
VStem: -0 461<-615 1775>
LayerCount: 2
Fore
SplineSet
29 -615 m 1
 0 1775 l 5
 635 1775 l 5
 597 -615 l 1
 29 -615 l 1
EndSplineSet
EndChar

StartChar: rtblock
Encoding: 9616 9616 572
Width: 1229
Flags: W
VStem: 461 461<-615 1775>
LayerCount: 2
Fore
SplineSet
597 -615 m 1
 635 1775 l 1
 1203 1775 l 1
 1229 -615 l 1
 597 -615 l 1
EndSplineSet
EndChar

StartChar: shadelight
Encoding: 9617 9617 573
Width: 1229
Flags: W
HStem: -514 100<153 230 461 540 769 846> -315 100<0 77 307 385 616 693> -115 99<153 230 461 540 769 846> 83 100<0 77 307 385 616 693> 283 99<153 230 461 540 769 846> 482 99<0 77 307 385 616 693> 681 100<153 230 461 540 769 846> 881 99<0 77 307 385 616 693> 1080 99<153 230 461 540 769 846> 1278 100<0 77 307 385 616 693> 1477 100<153 230 461 540 769 846> 1677 98<0 77 307 385 616 693>
VStem: 0 77<-315 -215 83 183 482 581 881 980 1278 1378 1677 1775> 153 77<-514 -414 -115 -16 283 382 681 781 1080 1179 1477 1577> 307 78<-315 -215 83 183 482 581 881 980 1278 1378 1677 1775> 461 79<-514 -414 -115 -16 283 382 681 781 1080 1179 1477 1577> 616 77<-315 -215 83 183 482 581 881 980 1278 1378 1677 1775> 769 77<-514 -414 -115 -16 283 382 681 781 1080 1179 1477 1577>
LayerCount: 2
Fore
SplineSet
-2 1366 m 1
 101 1366 l 1
 98 1253 l 1
 -5 1253 l 1
 -2 1366 l 1
436 1366 m 1
 533 1366 l 1
 528 1253 l 1
 432 1253 l 1
 436 1366 l 1
818 1366 m 1
 912 1366 l 1
 907 1253 l 1
 814 1253 l 1
 818 1366 l 1
202 1164 m 1
 324 1164 l 1
 337 1075 l 1
 204 1075 l 1
 202 1164 l 1
623 1164 m 1
 720 1164 l 1
 721 1075 l 1
 624 1075 l 1
 623 1164 l 1
1002 1164 m 1
 1098 1164 l 1
 1098 1075 l 1
 1003 1075 l 1
 1002 1164 l 1
809 951 m 1
 902 951 l 1
 901 856 l 1
 808 856 l 1
 809 951 l 1
427 951 m 1
 523 951 l 1
 522 856 l 1
 426 856 l 1
 427 951 l 1
-6 951 m 1
 97 951 l 1
 98 856 l 1
 -5 856 l 1
 -6 951 l 1
995 763 m 1
 1120 763 l 1
 1127 670 l 1
 995 670 l 1
 995 763 l 1
616 763 m 1
 713 763 l 1
 713 670 l 1
 616 670 l 1
 616 763 l 1
210 763 m 1
 331 763 l 1
 331 670 l 1
 222 670 l 1
 210 763 l 1
-0 577 m 1
 103 577 l 1
 104 485 l 1
 1 485 l 1
 -0 577 l 1
426 577 m 1
 522 577 l 1
 522 485 l 1
 425 485 l 1
 426 577 l 1
808 577 m 1
 901 577 l 1
 901 485 l 1
 807 485 l 1
 808 577 l 1
1012 392 m 1
 1131 392 l 1
 1133 299 l 1
 1024 299 l 1
 1012 392 l 1
616 392 m 1
 713 392 l 1
 713 299 l 1
 616 299 l 1
 616 392 l 1
236 392 m 1
 331 392 l 1
 331 299 l 1
 236 299 l 1
 236 392 l 1
5 206 m 1
 128 206 l 1
 140 113 l 1
 7 113 l 1
 5 206 l 1
425 206 m 1
 521 206 l 1
 521 113 l 1
 425 113 l 1
 425 206 l 1
807 206 m 1
 900 206 l 1
 901 113 l 1
 807 113 l 1
 807 206 l 1
228 -16 m 1
 323 -16 l 1
 321 -115 l 1
 226 -115 l 1
 228 -16 l 1
608 -16 m 1
 705 -16 l 1
 703 -115 l 1
 606 -115 l 1
 608 -16 l 1
1026 -16 m 1
 1129 -16 l 1
 1129 -115 l 1
 1026 -115 l 1
 1026 -16 l 1
796 -215 m 1
 920 -215 l 1
 925 -315 l 1
 795 -315 l 1
 796 -215 l 1
414 -215 m 1
 510 -215 l 1
 509 -315 l 1
 413 -315 l 1
 414 -215 l 1
10 -215 m 1
 130 -215 l 1
 129 -315 l 1
 21 -315 l 1
 10 -215 l 1
221 -414 m 1
 317 -414 l 1
 315 -514 l 1
 220 -514 l 1
 221 -414 l 1
602 -414 m 1
 699 -414 l 1
 697 -514 l 1
 600 -514 l 1
 602 -414 l 1
1026 -414 m 1
 1129 -414 l 1
 1129 -514 l 1
 1026 -514 l 1
 1026 -414 l 1
205 1577 m 1
 308 1577 l 1
 308 1477 l 1
 205 1477 l 1
 205 1577 l 1
633 1577 m 1
 730 1577 l 1
 728 1477 l 1
 631 1477 l 1
 633 1577 l 1
1012 1577 m 1
 1107 1577 l 1
 1106 1477 l 1
 1010 1477 l 1
 1012 1577 l 1
0 1775 m 1
 103 1775 l 1
 103 1677 l 1
 0 1677 l 1
 0 1775 l 1
418 1775 m 1
 541 1775 l 1
 540 1677 l 1
 429 1677 l 1
 418 1775 l 1
827 1775 m 1
 921 1775 l 1
 919 1677 l 1
 826 1677 l 1
 827 1775 l 1
EndSplineSet
EndChar

StartChar: shademedium
Encoding: 9618 9618 574
Width: 1229
Flags: W
HStem: -514 100<0 77 153 230 307 384 461 539 616 692 769 846> -315 100<77 153 230 307 384 461 539 616 692 769 846 922> -115 99<0 77 153 230 307 384 461 539 616 692 769 846> 83 100<77 153 230 307 384 461 539 616 692 769 846 922> 283 99<0 77 153 230 307 384 461 539 616 692 769 846> 482 99<77 153 230 307 384 461 539 616 692 769 846 922> 681 100<0 77 153 230 307 384 461 539 616 692 769 846> 881 99<77 153 230 307 384 461 539 616 692 769 846 922> 1080 99<0 77 153 230 307 384 461 539 616 692 769 846> 1278 100<77 153 230 307 384 461 539 616 692 769 846 922> 1477 100<0 77 153 230 307 384 461 539 616 692 769 846> 1677 98<77 153 230 307 384 461 539 616 692 769 846 922>
VStem: 0 77<-514 -414 -115 -16 283 382 681 781 1080 1179 1477 1577> 77 76<-315 -215 83 183 482 581 881 980 1278 1378 1677 1775> 153 77<-514 -414 -115 -16 283 382 681 781 1080 1179 1477 1577> 230 77<-315 -215 83 183 482 581 881 980 1278 1378 1677 1775> 307 77<-514 -414 -115 -16 283 382 681 781 1080 1179 1477 1577> 384 77<-315 -215 83 183 482 581 881 980 1278 1378 1677 1775> 461 78<-514 -414 -115 -16 283 382 681 781 1080 1179 1477 1577> 539 77<-315 -215 83 183 482 581 881 980 1278 1378 1677 1775> 616 76<-514 -414 -115 -16 283 382 681 781 1080 1179 1477 1577> 692 77<-315 -215 83 183 482 581 881 980 1278 1378 1677 1775> 769 77<-514 -414 -115 -16 283 382 681 781 1080 1179 1477 1577> 846 76<-315 -215 83 183 482 581 881 980 1278 1378 1677 1775>
LayerCount: 2
Fore
SplineSet
101 1366 m 1
 203 1366 l 1
 200 1253 l 1
 98 1253 l 1
 101 1366 l 1
306 1366 m 1
 436 1366 l 1
 432 1253 l 1
 311 1253 l 1
 306 1366 l 1
532 1366 m 1
 627 1366 l 1
 623 1253 l 1
 527 1253 l 1
 532 1366 l 1
723 1366 m 1
 818 1366 l 1
 814 1253 l 1
 719 1253 l 1
 723 1366 l 1
911 1366 m 1
 1006 1366 l 1
 1002 1253 l 1
 907 1253 l 1
 911 1366 l 1
1101 1366 m 1
 1208 1366 l 1
 1217 1253 l 1
 1097 1253 l 1
 1101 1366 l 1
-3 1164 m 1
 100 1164 l 1
 102 1075 l 1
 -1 1075 l 1
 -3 1164 l 1
202 1164 m 1
 324 1164 l 1
 337 1075 l 1
 204 1075 l 1
 202 1164 l 1
433 1164 m 1
 528 1164 l 1
 528 1075 l 1
 433 1075 l 1
 433 1164 l 1
623 1164 m 1
 719 1164 l 1
 720 1075 l 1
 624 1075 l 1
 623 1164 l 1
815 1164 m 1
 907 1164 l 1
 908 1075 l 1
 815 1075 l 1
 815 1164 l 1
1002 1164 m 1
 1098 1164 l 1
 1098 1075 l 1
 1003 1075 l 1
 1002 1164 l 1
97 951 m 1
 199 951 l 1
 200 856 l 1
 98 856 l 1
 97 951 l 1
332 951 m 1
 427 951 l 1
 426 856 l 1
 332 856 l 1
 332 951 l 1
522 951 m 1
 617 951 l 1
 616 856 l 1
 521 856 l 1
 522 951 l 1
713 951 m 1
 809 951 l 1
 808 856 l 1
 713 856 l 1
 713 951 l 1
901 951 m 1
 996 951 l 1
 996 856 l 1
 900 856 l 1
 901 951 l 1
1095 951 m 1
 1223 951 l 1
 1224 856 l 1
 1107 856 l 1
 1095 951 l 1
-3 763 m 1
 100 763 l 1
 101 670 l 1
 -2 670 l 1
 -3 763 l 1
210 763 m 1
 331 763 l 1
 331 670 l 1
 222 670 l 1
 210 763 l 1
426 763 m 1
 521 763 l 1
 521 670 l 1
 426 670 l 1
 426 763 l 1
616 763 m 1
 712 763 l 1
 712 670 l 1
 616 670 l 1
 616 763 l 1
808 763 m 1
 900 763 l 1
 900 670 l 1
 808 670 l 1
 808 763 l 1
995 763 m 1
 1120 763 l 1
 1127 670 l 1
 995 670 l 1
 995 763 l 1
103 577 m 1
 235 577 l 1
 236 485 l 1
 104 485 l 1
 103 577 l 1
331 577 m 1
 426 577 l 1
 425 485 l 1
 331 485 l 1
 331 577 l 1
521 577 m 1
 616 577 l 1
 616 485 l 1
 521 485 l 1
 521 577 l 1
712 577 m 1
 808 577 l 1
 807 485 l 1
 712 485 l 1
 712 577 l 1
900 577 m 1
 996 577 l 1
 999 485 l 1
 900 485 l 1
 900 577 l 1
1129 577 m 1
 1229 577 l 1
 1230 485 l 1
 1130 485 l 1
 1129 577 l 1
2 392 m 1
 105 392 l 1
 116 299 l 1
 4 299 l 1
 2 392 l 1
425 392 m 1
 521 392 l 1
 520 299 l 1
 425 299 l 1
 425 392 l 1
616 392 m 1
 712 392 l 1
 712 299 l 1
 616 299 l 1
 616 392 l 1
807 392 m 1
 900 392 l 1
 900 299 l 1
 807 299 l 1
 807 392 l 1
1012 392 m 1
 1131 392 l 1
 1133 299 l 1
 1024 299 l 1
 1012 392 l 1
236 392 m 1
 331 392 l 1
 331 299 l 1
 236 299 l 1
 236 392 l 1
1134 206 m 1
 1234 206 l 1
 1236 113 l 1
 1136 113 l 1
 1134 206 l 1
900 206 m 1
 1031 206 l 1
 1033 113 l 1
 900 113 l 1
 900 206 l 1
712 206 m 1
 807 206 l 1
 807 113 l 1
 712 113 l 1
 712 206 l 1
520 206 m 1
 616 206 l 1
 615 113 l 1
 520 113 l 1
 520 206 l 1
331 206 m 1
 425 206 l 1
 425 113 l 1
 331 113 l 1
 331 206 l 1
128 206 m 1
 235 206 l 1
 235 113 l 1
 140 113 l 1
 128 206 l 1
1 -16 m 1
 133 -16 l 1
 132 -115 l 1
 1 -115 l 1
 1 -16 l 1
228 -16 m 1
 323 -16 l 1
 321 -115 l 1
 226 -115 l 1
 228 -16 l 1
417 -16 m 1
 512 -16 l 1
 511 -115 l 1
 416 -115 l 1
 417 -16 l 1
608 -16 m 1
 704 -16 l 1
 702 -115 l 1
 606 -115 l 1
 608 -16 l 1
799 -16 m 1
 896 -16 l 1
 907 -115 l 1
 798 -115 l 1
 799 -16 l 1
1026 -16 m 1
 1129 -16 l 1
 1129 -115 l 1
 1026 -115 l 1
 1026 -16 l 1
1129 -215 m 1
 1229 -215 l 1
 1229 -315 l 1
 1129 -315 l 1
 1129 -215 l 1
918 -215 m 1
 1026 -215 l 1
 1026 -315 l 1
 924 -315 l 1
 918 -215 l 1
701 -215 m 1
 796 -215 l 1
 795 -315 l 1
 699 -315 l 1
 701 -215 l 1
509 -215 m 1
 605 -215 l 1
 603 -315 l 1
 508 -315 l 1
 509 -215 l 1
320 -215 m 1
 414 -215 l 1
 413 -315 l 1
 318 -315 l 1
 320 -215 l 1
130 -215 m 1
 224 -215 l 1
 223 -315 l 1
 129 -315 l 1
 130 -215 l 1
30 -414 m 1
 127 -414 l 1
 125 -514 l 1
 30 -514 l 1
 30 -414 l 1
221 -414 m 1
 317 -414 l 1
 315 -514 l 1
 220 -514 l 1
 221 -414 l 1
411 -414 m 1
 506 -414 l 1
 505 -514 l 1
 409 -514 l 1
 411 -414 l 1
602 -414 m 1
 698 -414 l 1
 696 -514 l 1
 600 -514 l 1
 602 -414 l 1
793 -414 m 1
 923 -414 l 1
 923 -514 l 1
 798 -514 l 1
 793 -414 l 1
1026 -414 m 1
 1129 -414 l 1
 1129 -514 l 1
 1026 -514 l 1
 1026 -414 l 1
0 1577 m 1
 103 1577 l 1
 103 1477 l 1
 0 1477 l 1
 0 1577 l 1
205 1577 m 1
 308 1577 l 1
 308 1477 l 1
 205 1477 l 1
 205 1577 l 1
440 1577 m 1
 537 1577 l 1
 536 1477 l 1
 440 1477 l 1
 440 1577 l 1
633 1577 m 1
 729 1577 l 1
 727 1477 l 1
 631 1477 l 1
 633 1577 l 1
824 1577 m 1
 917 1577 l 1
 915 1477 l 1
 822 1477 l 1
 824 1577 l 1
1012 1577 m 1
 1107 1577 l 1
 1106 1477 l 1
 1010 1477 l 1
 1012 1577 l 1
103 1775 m 1
 205 1775 l 1
 205 1677 l 1
 103 1677 l 1
 103 1775 l 1
308 1775 m 1
 418 1775 l 1
 429 1677 l 1
 308 1677 l 1
 308 1775 l 1
540 1775 m 1
 636 1775 l 1
 634 1677 l 1
 539 1677 l 1
 540 1775 l 1
732 1775 m 1
 827 1775 l 1
 826 1677 l 1
 730 1677 l 1
 732 1775 l 1
920 1775 m 1
 1015 1775 l 1
 1013 1677 l 1
 918 1677 l 1
 920 1775 l 1
1110 1775 m 1
 1203 1775 l 1
 1201 1677 l 1
 1109 1677 l 1
 1110 1775 l 1
EndSplineSet
EndChar

StartChar: shadedark
Encoding: 9619 9619 575
Width: 1229
Flags: W
HStem: -615 300<0 77 153 230 307 384 461 539 616 692 769 846> -615 101<77 153 230 307 384 461 539 616 692 769 846 922> -414 299<77 153 230 307 384 461 539 616 692 769 846 922> -215 299<0 77 153 230 307 384 461 539 616 692 769 846> -16 299<77 153 230 307 384 461 539 616 692 769 846 922> 183 299<0 77 153 230 307 384 461 539 616 692 769 846> 382 299<77 153 230 307 384 461 539 616 692 769 846 922> 581 299<0 77 153 230 307 384 461 539 616 692 769 846> 781 299<77 153 230 307 384 461 539 616 692 769 846 922> 980 299<0 77 153 230 307 384 461 539 616 692 769 846> 1179 299<77 153 230 307 384 461 539 616 692 769 846 922> 1378 299<0 77 153 230 307 384 461 539 616 692 769 846> 1577 198<77 153 230 307 384 461 539 616 692 769 846 922>
VStem: 0 77<-514 -414 -115 -16 283 382 681 781 1080 1179 1478 1577> 77 76<-315 -215 84 183 482 581 881 980 1279 1378 1677 1775> 153 77<-514 -414 -115 -16 283 382 681 781 1080 1179 1478 1577> 230 77<-315 -215 84 183 482 581 880 980 1279 1378 1677 1775> 307 77<-514 -414 -115 -16 283 382 681 781 1080 1179 1478 1577> 384 77<-315 -215 84 183 482 581 880 980 1279 1378 1677 1775> 461 78<-514 -414 -115 -16 283 382 681 781 1080 1179 1478 1577> 539 77<-315 -215 84 183 482 581 880 980 1279 1378 1677 1775> 616 76<-514 -414 -115 -16 283 382 681 781 1080 1179 1478 1577> 692 77<-315 -215 84 183 482 581 880 980 1279 1378 1677 1775> 769 77<-514 -414 -115 -16 283 382 681 781 1080 1179 1478 1577> 846 76<-315 -215 84 183 482 581 880 980 1279 1378 1677 1775>
LayerCount: 2
Fore
SplineSet
1200 1577 m 1x000fff80
 1107 1577 l 1
 1106 1478 l 1
 1199 1478 l 1
 1226 1164 l 1
 1098 1164 l 1
 1098 1075 l 1
 1228 1075 l 1
 1226 763 l 1
 1120 763 l 1
 1127 670 l 1
 1227 670 l 1
 1231 392 l 1
 1131 392 l 1
 1133 299 l 1
 1233 299 l 1
 1229 -16 l 1
 1129 -16 l 1
 1129 -115 l 1
 1229 -115 l 1
 1229 -414 l 1
 1129 -414 l 1
 1129 -514 l 1
 1229 -514 l 1
 1229 -615 l 1x6aafff80
 29 -615 l 1
 21 -315 l 1
 129 -315 l 1
 130 -215 l 1
 10 -215 l 1
 7 113 l 1
 140 113 l 1
 128 206 l 1
 5 206 l 1
 1 485 l 1
 104 485 l 1
 103 577 l 1
 -0 577 l 1
 -5 856 l 1
 98 856 l 1
 97 951 l 1
 -6 951 l 1
 -5 1254 l 1
 98 1254 l 1
 101 1366 l 1
 -2 1366 l 1
 0 1677 l 1
 103 1677 l 1x9557ff80
 103 1775 l 1
 205 1775 l 1x000fff80
 205 1677 l 1
 308 1677 l 1x0017ff80
 308 1775 l 1
 418 1775 l 1x000fff80
 429 1677 l 1
 539 1677 l 1x0017ff80
 540 1775 l 1
 636 1775 l 1x000fff80
 634 1677 l 1
 730 1677 l 1x0017ff80
 732 1775 l 1
 827 1775 l 1x000fff80
 826 1677 l 1
 918 1677 l 1x0017ff80
 920 1775 l 1
 1015 1775 l 1x000fff80
 1013 1677 l 1
 1109 1677 l 1x0017ff80
 1110 1775 l 1
 1203 1775 l 1
 1200 1577 l 1x000fff80
100 1164 m 1
 102 1075 l 1
 204 1075 l 1
 202 1164 l 1
 100 1164 l 1
324 1164 m 1
 337 1075 l 1
 433 1075 l 1
 433 1164 l 1
 324 1164 l 1
528 1164 m 1
 528 1075 l 1
 624 1075 l 1
 623 1164 l 1
 528 1164 l 1
719 1164 m 1
 720 1075 l 1
 815 1075 l 1
 815 1164 l 1
 719 1164 l 1
907 1164 m 1
 908 1075 l 1
 1003 1075 l 1
 1002 1164 l 1
 907 1164 l 1
1095 951 m 1x0147ff80
 996 951 l 1
 996 855 l 1
 1107 855 l 1
 1095 951 l 1x0147ff80
901 951 m 1
 809 951 l 1
 808 855 l 1
 900 855 l 1
 901 951 l 1
713 951 m 1
 617 951 l 1
 616 855 l 1
 713 855 l 1
 713 951 l 1
522 951 m 1
 427 951 l 1
 426 855 l 1
 521 855 l 1
 522 951 l 1
332 951 m 1
 199 951 l 1
 200 855 l 1
 332 855 l 1
 332 951 l 1
100 763 m 1x0287ff80
 101 670 l 1
 222 670 l 1
 210 763 l 1
 100 763 l 1x0287ff80
331 763 m 1
 331 670 l 1
 426 670 l 1
 426 763 l 1
 331 763 l 1
521 763 m 1
 521 670 l 1
 616 670 l 1
 616 763 l 1
 521 763 l 1
712 763 m 1
 712 670 l 1
 808 670 l 1
 808 763 l 1
 712 763 l 1
900 763 m 1
 900 670 l 1
 995 670 l 1
 995 763 l 1
 900 763 l 1
331 577 m 1x0507ff80
 235 577 l 1
 236 485 l 1
 331 485 l 1
 331 577 l 1x0507ff80
426 577 m 1
 425 485 l 1
 521 485 l 1
 521 577 l 1
 426 577 l 1
616 577 m 1
 616 485 l 1
 712 485 l 1
 712 577 l 1
 616 577 l 1
808 577 m 1
 807 485 l 1
 900 485 l 1
 900 577 l 1
 808 577 l 1
996 577 m 1
 999 485 l 1
 1130 485 l 1
 1129 577 l 1
 996 577 l 1
105 392 m 1x0a07ff80
 116 299 l 1
 236 299 l 1
 236 392 l 1
 105 392 l 1x0a07ff80
521 392 m 1
 520 299 l 1
 616 299 l 1
 616 392 l 1
 521 392 l 1
425 299 m 1
 425 392 l 1
 331 392 l 1
 331 299 l 1
 425 299 l 1
712 392 m 1
 712 299 l 1
 807 299 l 1
 807 392 l 1
 712 392 l 1
900 392 m 1
 900 299 l 1
 1024 299 l 1
 1012 392 l 1
 900 392 l 1
1136 114 m 1x1407ff80
 1134 206 l 1
 1031 206 l 1
 1033 114 l 1
 1136 114 l 1x1407ff80
900 114 m 1
 900 206 l 1
 807 206 l 1
 807 114 l 1
 900 114 l 1
712 114 m 1
 712 206 l 1
 616 206 l 1
 615 114 l 1
 712 114 l 1
520 114 m 1
 520 206 l 1
 425 206 l 1
 425 114 l 1
 520 114 l 1
331 114 m 1
 331 206 l 1
 235 206 l 1
 235 114 l 1
 331 114 l 1
133 -16 m 1x2807ff80
 132 -115 l 1
 226 -115 l 1
 228 -16 l 1
 133 -16 l 1x2807ff80
323 -16 m 1
 321 -115 l 1
 416 -115 l 1
 417 -16 l 1
 323 -16 l 1
512 -16 m 1
 511 -115 l 1
 606 -115 l 1
 608 -16 l 1
 512 -16 l 1
704 -16 m 1
 702 -115 l 1
 798 -115 l 1
 799 -16 l 1
 704 -16 l 1
896 -16 m 1
 907 -115 l 1
 1026 -115 l 1
 1026 -16 l 1
 896 -16 l 1
1129 -315 m 1x9007ff80
 1129 -215 l 1
 1026 -215 l 1
 1026 -315 l 1
 1129 -315 l 1x9007ff80
924 -315 m 1
 918 -215 l 1
 796 -215 l 1
 795 -315 l 1
 924 -315 l 1
699 -315 m 1
 701 -215 l 1
 605 -215 l 1
 603 -315 l 1
 699 -315 l 1
508 -315 m 1
 509 -215 l 1
 414 -215 l 1
 413 -315 l 1
 508 -315 l 1
318 -315 m 1
 320 -215 l 1
 224 -215 l 1
 223 -315 l 1
 318 -315 l 1
127 -414 m 1x6007ff80
 125 -514 l 1
 220 -514 l 1
 221 -414 l 1
 127 -414 l 1x6007ff80
317 -414 m 1
 315 -514 l 1
 409 -514 l 1
 411 -414 l 1
 317 -414 l 1
506 -414 m 1
 505 -514 l 1
 600 -514 l 1
 602 -414 l 1
 506 -414 l 1
698 -414 m 1
 696 -514 l 1
 798 -514 l 1
 793 -414 l 1
 698 -414 l 1
923 -414 m 1
 923 -514 l 1
 1026 -514 l 1
 1026 -414 l 1
 923 -414 l 1
1101 1366 m 1x0057ff80
 1006 1366 l 1
 1002 1254 l 1
 1097 1254 l 1
 1101 1366 l 1x0057ff80
911 1366 m 1
 818 1366 l 1
 814 1254 l 1
 907 1254 l 1
 911 1366 l 1
723 1366 m 1
 627 1366 l 1
 623 1254 l 1
 719 1254 l 1
 723 1366 l 1
532 1366 m 1
 436 1366 l 1
 432 1254 l 1
 527 1254 l 1
 532 1366 l 1
306 1366 m 1
 203 1366 l 1
 200 1254 l 1
 311 1254 l 1
 306 1366 l 1
1012 1577 m 1x002fff80
 917 1577 l 1
 915 1478 l 1
 1010 1478 l 1
 1012 1577 l 1x002fff80
824 1577 m 1
 729 1577 l 1
 727 1478 l 1
 823 1478 l 1
 824 1577 l 1
633 1577 m 1
 537 1577 l 1
 536 1478 l 1
 631 1478 l 1
 633 1577 l 1
440 1577 m 1
 308 1577 l 1
 308 1478 l 1
 440 1478 l 1
 440 1577 l 1
205 1577 m 1
 103 1577 l 1
 103 1478 l 1
 205 1478 l 1
 205 1577 l 1
EndSplineSet
EndChar

StartChar: blacksquare
Encoding: 9632 9632 576
Width: 1229
Flags: W
HStem: 84 1057<0 922>
VStem: 0 922<84 1141>
LayerCount: 2
Fore
SplineSet
0 1522 m 5
 1199 1522 l 5
 1235 141 l 5
 6 141 l 5
 0 1522 l 5
EndSplineSet
EndChar

StartChar: whitesquare
Encoding: 9633 9633 577
Width: 1229
Flags: W
HStem: 84 224<187 734> 949 192<187 734>
VStem: 0 187<308 949> 734 188<308 949>
LayerCount: 2
Fore
SplineSet
0 1522 m 1
 1199 1522 l 1
 1235 141 l 1
 6 141 l 1
 0 1522 l 1
246 1242 m 1
 278 419 l 1
 952 419 l 1
 958 1242 l 1
 246 1242 l 1
EndSplineSet
EndChar

StartChar: blacksmallsquare
Encoding: 9642 9642 578
Width: 1229
Flags: W
HStem: 400.365 472.271<224.175 696.825>
VStem: 224.175 472.65<400.365 872.635>
LayerCount: 2
Fore
SplineSet
906 533 m 5
 324 533 l 5
 314 1151 l 5
 914 1151 l 5
 906 533 l 5
EndSplineSet
EndChar

StartChar: whitesmallsquare
Encoding: 9643 9643 579
Width: 1229
Flags: W
HStem: 400.365 113.926<341.925 579.075> 758.709 113.926<341.925 579.075>
VStem: 224.175 117.75<514.291 758.709> 579.075 117.75<514.291 758.709>
LayerCount: 2
Fore
SplineSet
906 533 m 1
 324 533 l 1
 314 1151 l 1
 914 1151 l 1
 906 533 l 1
761 674 m 1
 767 1002 l 1
 475 1002 l 1
 469 674 l 1
 761 674 l 1
EndSplineSet
EndChar

StartChar: blackrectangle
Encoding: 9644 9644 580
Width: 1229
Flags: W
HStem: 395 231<0 922>
LayerCount: 2
Fore
SplineSet
-4 813 m 1
 1225 813 l 5
 1229 527 l 5
 -0 527 l 1
 -4 813 l 1
EndSplineSet
EndChar

StartChar: triagup
Encoding: 9650 9650 581
Width: 1229
Flags: W
LayerCount: 2
Fore
SplineSet
6 138 m 5
 621 1238 l 5
 1235 138 l 5
 6 138 l 5
EndSplineSet
EndChar

StartChar: triagrt
Encoding: 9658 9658 582
Width: 1229
Flags: W
LayerCount: 2
Fore
SplineSet
115 -83 m 1
 80 1175 l 1
 1148 531 l 1
 115 -83 l 1
EndSplineSet
EndChar

StartChar: triagdn
Encoding: 9660 9660 583
Width: 1229
Flags: W
LayerCount: 2
Fore
SplineSet
1219 1238 m 5
 616 138 l 5
 -4 1238 l 5
 1219 1238 l 5
EndSplineSet
EndChar

StartChar: triaglf
Encoding: 9668 9668 584
Width: 1229
Flags: W
LayerCount: 2
Fore
SplineSet
84 531 m 5
 1114 1176 l 5
 1147 -83 l 5
 84 531 l 5
EndSplineSet
EndChar

StartChar: lozenge
Encoding: 9674 9674 585
Width: 1229
Flags: W
DStem2: 261 710 89 709 0.489251 -0.872143<0 400.76> 89 709 261 710 0.486669 0.873586<84.5807 485.336> 501 1287 458 1059 0.499203 -0.866485<176.093 577.838> 458 361 501 135 0.501808 0.864979<0 401.737>
LayerCount: 2
Fore
SplineSet
684 1759 m 1
 1078 964 l 1
 665 165 l 1
 554 165 l 1
 114 964 l 1
 573 1759 l 1
 684 1759 l 1
626 1412 m 1
 372 969 l 1
 612 485 l 1
 860 969 l 1
 626 1412 l 1
EndSplineSet
EndChar

StartChar: whitecircle
Encoding: 9675 9675 586
Width: 1229
Flags: W
HStem: 221 150<334.35 586.595> 784 150<333.91 587.132>
VStem: 104 150<452.439 703.668> 668 150<451.815 701.975>
LayerCount: 2
Fore
SplineSet
623 1263 m 0
 871 1263 1063 1027 1063 754 c 0
 1092 505 859 271 616 271 c 0
 365 271 144 510 137 754 c 0
 139 1012 351 1263 623 1263 c 0
624 1046 m 0
 476 1046 361 891 361 754 c 0
 361 599 485 498 616 498 c 256
 758 498 870 611 871 754 c 0
 871 885 775 1046 624 1046 c 0
EndSplineSet
EndChar

StartChar: blackcircle
Encoding: 9679 9679 587
Width: 1229
Flags: W
HStem: 221 713<292.824 631.094>
VStem: 104 714<407.906 745.646>
LayerCount: 2
Fore
SplineSet
623 1263 m 0
 871 1263 1063 1027 1063 754 c 0
 1092 505 859 271 616 271 c 0
 365 271 144 510 137 754 c 0
 139 1012 351 1263 623 1263 c 0
EndSplineSet
EndChar

StartChar: bulletinverse
Encoding: 9688 9688 588
Width: 1229
Flags: W
HStem: 93.0996 233.28<349.727 573.114> 653.62 233.28<348.385 573.674>
VStem: 63 234<377.921 601.629> 624 233<379.634 603.318>
LayerCount: 2
Fore
SplineSet
113 113 m 1
 81 1206 l 1
 1111 1206 l 1
 1151 113 l 1
 113 113 l 1
615 848 m 256
 506 848 414 762 414 645 c 0
 413 526 510 442 614 442 c 0
 725 442 817 531 817 645 c 0
 817 758 728 848 615 848 c 256
EndSplineSet
EndChar

StartChar: whitecircleinverse
Encoding: 9689 9689 589
Width: 1229
Flags: W
HStem: 110 111<289.809 635.959> 371 413<335.607 588.433> 934 111<293.797 632.866>
VStem: 0 105<406.695 749.753> 255 413<448.029 702.431> 818 104<402.264 747.094>
LayerCount: 2
Fore
SplineSet
6 134 m 1
 -0 1394 l 1
 1209 1394 l 1
 1235 134 l 1
 6 134 l 1
623 1263 m 0
 386 1263 141 1040 138 753 c 0
 146 507 369 271 616 271 c 0
 852 271 1092 495 1063 753 c 0
 1063 1033 869 1263 623 1263 c 0
625 1046 m 0
 766 1046 871 894 871 753 c 0
 870 606 755 498 617 498 c 0
 477 498 362 606 362 753 c 0
 362 900 488 1046 625 1046 c 0
EndSplineSet
EndChar

StartChar: whitebullet
Encoding: 9702 9702 590
Width: 1229
Flags: W
HStem: 406 113<368.896 552.757> 754 113<368.685 552.223>
VStem: 230 113<545.062 727.979> 579 112<546.84 727.446>
LayerCount: 2
Fore
SplineSet
899 827 m 0
 899 656 762 540 614 540 c 256
 458 540 331 666 331 827 c 0
 338 1020 464 1143 621 1143 c 0
 783 1143 906 1013 899 827 c 0
762 827 m 0
 762 911 698 994 619 994 c 256
 544 994 470 914 470 827 c 0
 470 739 539 681 614 681 c 256
 696 681 761 745 762 827 c 0
EndSplineSet
EndChar

StartChar: smileface
Encoding: 9786 9786 591
Width: 1229
Flags: W
HStem: 124 126<298.564 622.839> 338 54<371.617 548.201> 608 114<255.697 366.296 555.643 665.674> 919 126<293.127 624.394>
VStem: -0 127<417.754 749.129> 254 114<609.589 720.417> 554 113<609.487 720.519> 795 126<419.528 752.828>
LayerCount: 2
Fore
SplineSet
1225 761 m 0
 1230 443 943 151 614 151 c 0
 295 151 2 445 -3 761 c 0
 -2 1125 284 1394 628 1394 c 0
 948 1394 1227 1113 1225 761 c 0
1027 761 m 0
 1035 1028 854 1244 621 1244 c 0
 389 1244 171 1027 168 761 c 0
 190 521 395 308 614 308 c 0
 839 308 1046 524 1027 761 c 0
502 863 m 256
 502 824 470 791 429 791 c 256
 391 791 361 826 361 863 c 256
 361 899 389 933 430 933 c 256
 472 933 502 900 502 863 c 256
870 863 m 256
 870 824 841 791 802 791 c 256
 760 791 730 824 730 863 c 256
 730 901 759 933 803 933 c 256
 842 933 870 901 870 863 c 256
392 606 m 1
 440 633 l 1
 480 561 538 524 614 524 c 256
 692 524 750 561 789 633 c 1
 838 606 l 1
 787 506 712 457 614 457 c 0
 495 457 429 535 392 606 c 1
EndSplineSet
EndChar

StartChar: invsmileface
Encoding: 9787 9787 592
Width: 1229
Flags: W
HStem: 124 171<330.15 591.942> 738 307<261.901 501.505 421.958 661.515>
VStem: -0 226<494.273 736.313> 343 236<622.894 736.048> 695 226<493.852 734.781>
LayerCount: 2
Fore
SplineSet
1225 761 m 0
 1230 443 943 151 614 151 c 0
 295 151 2 445 -3 761 c 0
 -2 1125 284 1394 628 1394 c 0
 948 1394 1227 1113 1225 761 c 0
470 880 m 256
 470 917 441 959 400 959 c 256
 357 959 326 916 326 880 c 256
 326 843 356 807 398 807 c 256
 439 807 470 841 470 880 c 256
905 880 m 256
 905 918 878 959 835 959 c 256
 793 959 762 918 762 880 c 256
 762 841 792 807 834 807 c 256
 875 807 905 841 905 880 c 256
353 578 m 1
 396 495 473 403 614 403 c 0
 756 403 832 494 877 578 c 1
 820 610 l 1
 773 525 706 481 614 481 c 256
 524 481 457 525 410 610 c 1
 353 578 l 1
EndSplineSet
EndChar

StartChar: compass
Encoding: 9788 9788 593
Width: 1229
Flags: W
HStem: 448 46<0 162 760 922> 722 47<486 563.283>
VStem: 162 48<494 578.675> 436 50<10 173 769 932> 710 50<363.517 448 492 580.419>
DStem2: 125 839 95 802 0.707613 -0.7066<4.91579 197.993 796.168 991.33> 95 139 127 106 0.708621 0.705589<0 194.565 792.769 988.636>
LayerCount: 2
Fore
SplineSet
591 1260 m 1
 653 1260 l 1
 654 1064 l 1
 739 1064 803 1027 855 948 c 1
 1034 1148 l 1
 1076 1107 l 1
 899 901 l 1
 952 830 985 718 985 647 c 1
 1227 647 l 1
 1228 593 l 1
 985 593 l 1
 975 518 948 406 899 345 c 1
 1111 167 l 1
 1064 128 l 1
 853 298 l 1
 784 245 732 221 646 212 c 1
 640 21 l 1
 578 21 l 1
 584 212 l 1
 506 223 439 251 378 295 c 1
 204 129 l 1
 163 169 l 1
 333 342 l 1
 284 405 256 514 246 593 c 1
 -1 593 l 1
 -2 649 l 1
 244 649 l 1
 233 729 276 839 333 900 c 1
 126 1105 l 1
 165 1149 l 1
 378 949 l 1
 456 1032 526 1057 592 1064 c 1
 591 1260 l 1
615 933 m 256
 437 933 306 790 306 621 c 0
 306 449 439 311 614 311 c 256
 791 311 922 453 922 621 c 0
 922 795 787 933 615 933 c 256
EndSplineSet
EndChar

StartChar: female
Encoding: 9792 9792 594
Width: 1229
Flags: W
HStem: 343 69<175 426 499 747> 577 81<346.207 426 499 579.178> 1069 84<343.449 581.435>
VStem: 183 79<741.948 982.372> 426 73<80 343 412 577> 661 80<741.559 986.112>
LayerCount: 2
Fore
SplineSet
573 753 m 1
 401 778 247 977 242 1177 c 0
 245 1426 454 1580 634 1580 c 0
 813 1580 974 1424 967 1177 c 0
 962 956 823 774 663 753 c 1
 662 548 l 1
 967 548 l 1
 967 462 l 1
 662 462 l 1
 661 95 l 1
 572 95 l 1
 572 462 l 1
 264 462 l 1
 264 548 l 1
 573 548 l 1
 573 753 l 1
630 1426 m 0
 494 1426 372 1278 377 1141 c 256
 373 977 481 854 616 854 c 256
 748 854 865 972 869 1141 c 256
 868 1283 763 1426 630 1426 c 0
EndSplineSet
EndChar

StartChar: male
Encoding: 9794 9794 595
Width: 1229
Flags: W
HStem: 250 75<211.388 439.888> 750 75<207.521 441.935>
VStem: 42 76<417.863 660.889> 531 75<414.96 660.222>
DStem2: 474 782 525 740 0.693164 0.72078<5.0786 360.117>
LayerCount: 2
Fore
SplineSet
639 1082 m 1
 955 1390 l 1
 892 1468 700 1542 700 1548 c 1
 726 1580 l 9
 1129 1580 l 0
 1149 1561 l 0
 1157 1093 l 273
 1114 1069 l 1
 1107 1069 1033 1237 1004 1299 c 1
 703 1031 l 1
 762 929 795 809 795 716 c 0
 794 506 636 308 446 308 c 256
 247 308 58 510 55 700 c 0
 52 899 218 1133 455 1133 c 0
 512 1133 573 1115 639 1082 c 1
452 985 m 0
 299 985 153 852 156 704 c 256
 166 552 313 440 448 440 c 256
 579 440 702 543 702 704 c 0
 702 860 587 985 452 985 c 0
EndSplineSet
EndChar

StartChar: spade
Encoding: 9824 9824 596
Width: 1229
Flags: W
HStem: 152 28<168 272.283 656.397 754>
VStem: 456 14<417.894 503>
LayerCount: 2
Fore
SplineSet
630 1440 m 1
 711 1046 1068 957 1090 691 c 0
 1103 568 973 483 863 483 c 0
 767 483 688 542 626 661 c 1
 626 339 802 220 1006 220 c 1
 1018 186 l 1
 247 186 l 1
 254 220 l 1
 539 220 609 451 610 661 c 1
 551 535 464 483 368 483 c 0
 257 483 127 573 125 687 c 0
 123 975 540 1027 630 1440 c 1
EndSplineSet
EndChar

StartChar: club
Encoding: 9827 9827 597
Width: 1229
Flags: W
HStem: 151 25<150 211.374 718.551 773> 355 416<78.7852 299.617 619.973 842.203>
VStem: 252 415<744.613 993.475> 453 15<445.978 533>
LayerCount: 2
Fore
SplineSet
1046 184 m 1xd0
 226 184 l 1
 232 216 l 1
 257 220 606 290 606 655 c 0
 606 664 606 678 606 699 c 1xd0
 536 555 423 477 302 477 c 0
 141 477 -0 576 -3 737 c 0
 -6 906 139 1068 239 1068 c 0
 297 1068 364 1053 427 1013 c 1
 376 1105 365 1134 364 1185 c 0
 347 1320 476 1428 627 1428 c 0
 775 1428 876 1322 876 1186 c 0xe0
 877 1134 856 1078 812 1013 c 1
 900 1061 913 1068 964 1068 c 0
 1084 1068 1224 889 1226 740 c 0
 1228 588 1105 477 930 477 c 0
 739 477 643 667 625 699 c 1
 624 339 823 251 1037 216 c 1
 1046 184 l 1xd0
EndSplineSet
EndChar

StartChar: heart
Encoding: 9829 9829 598
Width: 1229
Flags: W
LayerCount: 2
Fore
SplineSet
617 149 m 1
 517 525 102 840 105 1121 c 0
 102 1251 207 1302 366 1302 c 0
 475 1302 569 1286 625 1132 c 1
 669 1286 772 1304 869 1304 c 0
 1000 1304 1092 1242 1092 1133 c 0
 1104 811 715 525 617 149 c 1
EndSplineSet
EndChar

StartChar: diamond
Encoding: 9830 9830 599
Width: 1229
Flags: W
LayerCount: 2
Fore
SplineSet
628 1425 m 1
 714 1172 880 923 1040 781 c 1
 906 677 718 387 614 159 c 1
 531 350 329 677 154 781 c 1
 355 923 502 1141 628 1425 c 1
EndSplineSet
EndChar

StartChar: musicalnote
Encoding: 9834 9834 600
Width: 1229
Flags: W
HStem: 135.78 236.52<235.114 404.073> 1026.22 20G<419 480>
VStem: 183 297<213.517 321.525> 419 61<357.72 767.58 964.41 1046.22> 626 67<401.088 670.848>
LayerCount: 2
Fore
SplineSet
564 481 m 1xd8
 578 1395 l 1
 653 1395 l 1
 646 1299 l 1
 801 1114 l 2
 857 1037 901 849 901 722 c 0
 901 619 869 528 807 449 c 1
 759 449 l 1
 799 537 819 620 819 700 c 256
 819 873 724 1051 647 1064 c 1
 639 481 l 2xd8
 639 357 532 166 387 166 c 0
 315 166 272 201 273 265 c 0xe8
 273 365 359 499 474 499 c 0
 500 499 530 494 564 481 c 1xd8
EndSplineSet
EndChar

StartChar: musicalnotedbl
Encoding: 9835 9835 601
Width: 1229
Flags: W
HStem: 71 235<87.9738 255.579> 147 235<593.354 761.757> 1025 20G<760.793 839>
VStem: 272 61<292 611 714 807> 779 60<368 732 835 928>
DStem2: 272 900 333 807 0.968822 0.247759<36.0566 498.13> 333 714 333 611 0.965113 0.261835<0 435.153>
LayerCount: 2
Fore
SplineSet
1121 494 m 2xb8
 1124 314 981 180 831 180 c 0
 735 180 716 240 716 279 c 0
 717 378 802 511 918 511 c 0x78
 951 511 981 503 1019 494 c 1
 1015 1013 l 1
 458 795 l 1
 458 360 l 2
 457 180 335 83 205 83 c 0
 92 83 55 145 55 184 c 0
 53 283 158 417 294 417 c 0
 326 417 359 370 383 360 c 1
 390 1221 l 1
 1096 1394 l 1
 1121 494 l 2xb8
458 923 m 1
 1016 1106 l 1
 1015 1217 l 1
 466 1072 l 1
 458 923 l 1
EndSplineSet
EndChar

StartChar: arrowboth
Encoding: 8596 8596 602
Width: 1229
VWidth: 1708
Flags: W
LayerCount: 2
Fore
SplineSet
525 992 m 29
 204 600 l 29
 525 208 l 29
154 -99 m 5
 154 1256 l 5
 1076 1256 l 5
 1076 -99 l 5
 154 -99 l 5
705 992 m 29
 1026 600 l 29
 705 208 l 29
1026 600 m 29
 204 600 l 29
EndSplineSet
EndChar

StartChar: arrowbothv
Encoding: 8597 8597 603
Width: 1229
VWidth: 1708
Flags: W
LayerCount: 2
Fore
SplineSet
975 752 m 29
 615 1091 l 29
 255 752 l 29
154 55 m 1
 154 1145 l 1
 1076 1145 l 1
 1076 55 l 1
 154 55 l 1
975 510 m 25
 615 107 l 25
 255 510 l 25
615 107 m 25
 615 1091 l 29
EndSplineSet
EndChar

StartChar: updownarrowbar
Encoding: 8616 8616 604
Width: 1229
VWidth: 1708
Flags: W
LayerCount: 2
Fore
SplineSet
204 26 m 25
 1026 26 l 25
975 752 m 25
 615 1091 l 25
 255 752 l 25
154 -443 m 1
 154 1145 l 1
 1076 1145 l 1
 1076 -443 l 1
 154 -443 l 1
975 510 m 25
 615 107 l 25
 255 510 l 25
615 107 m 25
 615 1091 l 25
EndSplineSet
EndChar

StartChar: nsuperior
Encoding: 8319 8319 605
Width: 1229
VWidth: 1947
Flags: MW
LayerCount: 2
Back
SplineSet
290 1425 m 1
 1319 1425 l 1
 1136 542 l 1
 107 542 l 1
 290 1425 l 1
EndSplineSet
Fore
SplineSet
888 449 m 25
 1021 1098 l 18
 1049 1234 997 1319 789 1319 c 10
 768 1319 l 18
 586 1319 445 1102 419 977 c 10
 310 449 l 25
 532 1524 l 25
EndSplineSet
EndChar

StartChar: radical
Encoding: 8730 8730 606
Width: 1229
VWidth: 1708
Flags: MW
LayerCount: 2
Back
SplineSet
-37 -25 m 1
 310 1641 l 1
 1459 1641 l 1
 1112 -25 l 1
 -37 -25 l 1
EndSplineSet
Fore
SplineSet
1376 1755 m 25
 509 5 l 25
 410 975 l 25
 74 975 l 25
EndSplineSet
EndChar

StartChar: intersection
Encoding: 8745 8745 608
Width: 1229
VWidth: 1947
Flags: MW
LayerCount: 2
Back
SplineSet
-113 0 m 5
 184 1425 l 5
 1414 1425 l 5
 1117 0 l 5
 -113 0 l 5
EndSplineSet
Fore
SplineSet
841 -198 m 25
 1092 1004 l 18
 1128 1178 1033 1320 788 1320 c 10
 765 1320 l 18
 521 1320 369 1178 333 1004 c 10
 82 -198 l 25
EndSplineSet
EndChar

StartChar: infinity
Encoding: 8734 8734 609
Width: 1229
Flags: HMWO
LayerCount: 2
Fore
SplineSet
923.286 867 m 7
 1090.29 867 1144.29 740 1116.87 611 c 4
 1085.63 464 974.82 352 813.82 352 c 7
 648.82 352 611.829 512 632.872 611 c 4
 652.428 703 765.286 867 923.286 867 c 7
438.499 868 m 7
 305.499 868 172.741 728 147.872 611 c 4
 119.814 479 192.032 353 329.032 353 c 7
 519.032 353 611.829 512 632.872 611 c 4
 652.428 703 625.499 868 438.499 868 c 7
EndSplineSet
EndChar

StartChar: almostequal
Encoding: 8776 8776 610
Width: 1229
VWidth: 1947
Flags: MW
LayerCount: 2
Fore
SplineSet
188 769 m 17
 257 870 364 945 450 945 c 10
 516 945 l 18
 584 945 629 917 649 893 c 2
 717 807 l 2
 736 784 788 761 861 761 c 10
 912 761 l 18
 1004 761 1109 851 1174 935 c 9
101 352 m 17
 170 453 280 526 363 526 c 10
 429 526 l 18
 502 526 543 500 562 476 c 2
 631 391 l 2
 649 367 700 344 775 344 c 10
 826 344 l 18
 941 344 1026 432 1087 517 c 9
EndSplineSet
EndChar

StartChar: equivalence
Encoding: 8801 8801 611
Width: 1229
Flags: W
LayerCount: 2
Back
SplineSet
17 0 m 1
 314 1425 l 1
 1284 1425 l 5
 987 0 l 5
 17 0 l 1
EndSplineSet
Fore
SplineSet
105 892 m 25
 1274 892 l 25
42 594 m 25
 1211 594 l 25
-20 295 m 25
 1149 295 l 25
EndSplineSet
EndChar

StartChar: lessequal
Encoding: 8804 8804 612
Width: 1229
VWidth: 1708
Flags: MW
LayerCount: 2
Back
SplineSet
354 1612 m 1
 1323 1612 l 1
 956 -150 l 1
 -12 -150 l 1
 354 1612 l 1
EndSplineSet
Fore
SplineSet
-144 603 m 29
 1195 102 l 29
1412 1208 m 25
 238 835 l 25
 1257 461 l 25
EndSplineSet
EndChar

StartChar: greaterequal
Encoding: 8805 8805 613
Width: 1229
VWidth: 1708
Flags: MW
LayerCount: 2
Back
SplineSet
354 1612 m 1
 1323 1612 l 1
 956 -150 l 1
 -12 -150 l 1
 354 1612 l 1
EndSplineSet
Fore
SplineSet
1520 603 m 25
 -119 102 l 25
98 1208 m 25
 1110 835 l 25
 -57 461 l 25
EndSplineSet
EndChar

StartChar: revlogicalnot
Encoding: 8976 8976 614
Width: 1229
VWidth: 1708
Flags: MW
LayerCount: 2
Back
SplineSet
-63 231 m 1
 184 1425 l 1
 1284 1425 l 5
 1037 231 l 5
 -63 231 l 1
EndSplineSet
Fore
SplineSet
1211 594 m 25
 247 594 l 25
 150 131 l 25
EndSplineSet
EndChar

StartChar: integraltp
Encoding: 8992 8992 615
Width: 1229
Flags: MW
LayerCount: 2
Fore
SplineSet
597 -615 m 25
 629 1414 l 18
 630 1490 678 1548 760 1548 c 2
 769 1548 l 2
 917 1548 960 1490 958 1414 c 9
 951 1310 l 25
EndSplineSet
EndChar

StartChar: integralbt
Encoding: 8993 8993 616
Width: 1229
Flags: MW
LayerCount: 2
Fore
SplineSet
635 1775 m 29
 602 -324 l 18
 601 -399 553 -458 471 -458 c 2
 462 -458 l 2
 243 -458 200 -399 202 -324 c 9
 203 -218 l 25
EndSplineSet
EndChar
